%TF.GenerationSoftware,KiCad,Pcbnew,9.0.8+1*%
%TF.CreationDate,2026-07-29T07:24:13+02:00*%
%TF.ProjectId,mykovolt_devkit,6d796b6f-766f-46c7-945f-6465766b6974,rev?*%
%TF.SameCoordinates,Original*%
%TF.FileFunction,Copper,L1,Top*%
%TF.FilePolarity,Positive*%
%FSLAX46Y46*%
G04 Gerber Fmt 4.6, Leading zero omitted, Abs format (unit mm)*
G04 Created by KiCad (PCBNEW 9.0.8+1) date 2026-07-29 07:24:13*
%MOMM*%
%LPD*%
G01*
G04 APERTURE LIST*
G04 Aperture macros list*
%AMRoundRect*
0 Rectangle with rounded corners*
0 $1 Rounding radius*
0 $2 $3 $4 $5 $6 $7 $8 $9 X,Y pos of 4 corners*
0 Add a 4 corners polygon primitive as box body*
4,1,4,$2,$3,$4,$5,$6,$7,$8,$9,$2,$3,0*
0 Add four circle primitives for the rounded corners*
1,1,$1+$1,$2,$3*
1,1,$1+$1,$4,$5*
1,1,$1+$1,$6,$7*
1,1,$1+$1,$8,$9*
0 Add four rect primitives between the rounded corners*
20,1,$1+$1,$2,$3,$4,$5,0*
20,1,$1+$1,$4,$5,$6,$7,0*
20,1,$1+$1,$6,$7,$8,$9,0*
20,1,$1+$1,$8,$9,$2,$3,0*%
G04 Aperture macros list end*
%TA.AperFunction,SMDPad,CuDef*%
%ADD10RoundRect,0.125000X-0.487500X-0.125000X0.487500X-0.125000X0.487500X0.125000X-0.487500X0.125000X0*%
%TD*%
%TA.AperFunction,SMDPad,CuDef*%
%ADD11RoundRect,0.150000X-0.825000X-0.150000X0.825000X-0.150000X0.825000X0.150000X-0.825000X0.150000X0*%
%TD*%
%TA.AperFunction,ComponentPad*%
%ADD12RoundRect,0.250000X-0.350000X-0.625000X0.350000X-0.625000X0.350000X0.625000X-0.350000X0.625000X0*%
%TD*%
%TA.AperFunction,ComponentPad*%
%ADD13O,1.200000X1.750000*%
%TD*%
%TA.AperFunction,SMDPad,CuDef*%
%ADD14RoundRect,0.225000X-0.225000X-0.250000X0.225000X-0.250000X0.225000X0.250000X-0.225000X0.250000X0*%
%TD*%
%TA.AperFunction,SMDPad,CuDef*%
%ADD15RoundRect,0.218750X-0.218750X-0.256250X0.218750X-0.256250X0.218750X0.256250X-0.218750X0.256250X0*%
%TD*%
%TA.AperFunction,SMDPad,CuDef*%
%ADD16RoundRect,0.200000X-0.200000X-0.275000X0.200000X-0.275000X0.200000X0.275000X-0.200000X0.275000X0*%
%TD*%
%TA.AperFunction,SMDPad,CuDef*%
%ADD17RoundRect,0.250000X-0.250000X-0.475000X0.250000X-0.475000X0.250000X0.475000X-0.250000X0.475000X0*%
%TD*%
%TA.AperFunction,SMDPad,CuDef*%
%ADD18R,0.280000X0.280000*%
%TD*%
%TA.AperFunction,SMDPad,CuDef*%
%ADD19O,0.850000X0.280000*%
%TD*%
%TA.AperFunction,SMDPad,CuDef*%
%ADD20R,0.230000X0.600000*%
%TD*%
%TA.AperFunction,SMDPad,CuDef*%
%ADD21R,0.250000X0.700000*%
%TD*%
%TA.AperFunction,SMDPad,CuDef*%
%ADD22R,0.650000X0.900000*%
%TD*%
%TA.AperFunction,SMDPad,CuDef*%
%ADD23R,1.700000X2.150000*%
%TD*%
%TA.AperFunction,SMDPad,CuDef*%
%ADD24R,2.400000X0.740000*%
%TD*%
%TA.AperFunction,SMDPad,CuDef*%
%ADD25R,1.500000X3.600000*%
%TD*%
%TA.AperFunction,SMDPad,CuDef*%
%ADD26R,1.150000X3.600000*%
%TD*%
%TA.AperFunction,SMDPad,CuDef*%
%ADD27RoundRect,0.150000X0.150000X0.200000X-0.150000X0.200000X-0.150000X-0.200000X0.150000X-0.200000X0*%
%TD*%
%TA.AperFunction,SMDPad,CuDef*%
%ADD28RoundRect,0.100000X-0.637500X-0.100000X0.637500X-0.100000X0.637500X0.100000X-0.637500X0.100000X0*%
%TD*%
%TA.AperFunction,SMDPad,CuDef*%
%ADD29R,1.000000X1.800000*%
%TD*%
%TA.AperFunction,ComponentPad*%
%ADD30RoundRect,0.250000X-0.550000X-0.550000X0.550000X-0.550000X0.550000X0.550000X-0.550000X0.550000X0*%
%TD*%
%TA.AperFunction,ComponentPad*%
%ADD31C,1.600000*%
%TD*%
%TA.AperFunction,SMDPad,CuDef*%
%ADD32RoundRect,0.062500X-0.375000X-0.062500X0.375000X-0.062500X0.375000X0.062500X-0.375000X0.062500X0*%
%TD*%
%TA.AperFunction,SMDPad,CuDef*%
%ADD33RoundRect,0.062500X-0.062500X-0.375000X0.062500X-0.375000X0.062500X0.375000X-0.062500X0.375000X0*%
%TD*%
%TA.AperFunction,HeatsinkPad*%
%ADD34R,2.000000X2.000000*%
%TD*%
%TA.AperFunction,SMDPad,CuDef*%
%ADD35RoundRect,0.093750X-0.156250X-0.093750X0.156250X-0.093750X0.156250X0.093750X-0.156250X0.093750X0*%
%TD*%
%TA.AperFunction,SMDPad,CuDef*%
%ADD36RoundRect,0.075000X-0.250000X-0.075000X0.250000X-0.075000X0.250000X0.075000X-0.250000X0.075000X0*%
%TD*%
%TA.AperFunction,ViaPad*%
%ADD37C,0.500000*%
%TD*%
%TA.AperFunction,Conductor*%
%ADD38C,0.300000*%
%TD*%
%TA.AperFunction,Conductor*%
%ADD39C,0.500000*%
%TD*%
%ADD40C,0.250000*%
%ADD41C,0.350000*%
G04 APERTURE END LIST*
D10*
X7062500Y-11350000D03*
X7062500Y-12650000D03*
X8937500Y-12000000D03*
D11*
X15525000Y-6095000D03*
X15525000Y-7365000D03*
X15525000Y-8635000D03*
X15525000Y-9905000D03*
X20475000Y-9905000D03*
X20475000Y-8635000D03*
X20475000Y-7365000D03*
X20475000Y-6095000D03*
D12*
X2000000Y-5000000D03*
D13*
X4000000Y-5000000D03*
D14*
X10225000Y-11800000D03*
X11775000Y-11800000D03*
X15225000Y-14000000D03*
X16775000Y-14000000D03*
D15*
X11212500Y-1000000D03*
X12787500Y-1000000D03*
D14*
X5225000Y-6000000D03*
X6775000Y-6000000D03*
X13225000Y-10500000D03*
X14775000Y-10500000D03*
X9225000Y-10000000D03*
X10775000Y-10000000D03*
D16*
X4175000Y-5000000D03*
X5825000Y-5000000D03*
X3175000Y-6000000D03*
X4825000Y-6000000D03*
D12*
X2000000Y-2000000D03*
D13*
X4000000Y-2000000D03*
D17*
X5050000Y-4000000D03*
X6950000Y-4000000D03*
D16*
X3175000Y-5000000D03*
X4825000Y-5000000D03*
X10175000Y-15000000D03*
X11825000Y-15000000D03*
X9175000Y-15000000D03*
X10825000Y-15000000D03*
D14*
X24225000Y-10000000D03*
X25775000Y-10000000D03*
X9725000Y-8500000D03*
X11275000Y-8500000D03*
X9225000Y-9000000D03*
X10775000Y-9000000D03*
X14225000Y-14000000D03*
X15775000Y-14000000D03*
X13225000Y-13000000D03*
X14775000Y-13000000D03*
D18*
X20240000Y-13000000D03*
D19*
X20525000Y-13000000D03*
D18*
X20240000Y-13500000D03*
D19*
X20525000Y-13500000D03*
D18*
X20240000Y-14000000D03*
D19*
X20525000Y-14000000D03*
D18*
X20240000Y-14500000D03*
D19*
X20525000Y-14500000D03*
D18*
X20240000Y-15000000D03*
D19*
X20525000Y-15000000D03*
X23475000Y-15000000D03*
D18*
X23760000Y-15000000D03*
D19*
X23475000Y-14500000D03*
D18*
X23760000Y-14500000D03*
D19*
X23475000Y-14000000D03*
D18*
X23760000Y-14000000D03*
D19*
X23475000Y-13500000D03*
D18*
X23760000Y-13500000D03*
D19*
X23475000Y-13000000D03*
D18*
X23760000Y-13000000D03*
D20*
X21400000Y-12575000D03*
D21*
X21400000Y-12575000D03*
D20*
X21400000Y-15425000D03*
D21*
X21400000Y-15425000D03*
D22*
X21565000Y-13440000D03*
X21565000Y-14560000D03*
D20*
X21800000Y-12575000D03*
D21*
X21800000Y-12575000D03*
D20*
X21800000Y-15425000D03*
D21*
X21800000Y-15425000D03*
D23*
X22000000Y-14000000D03*
D20*
X22200000Y-12575000D03*
D21*
X22200000Y-12575000D03*
D20*
X22200000Y-15425000D03*
D21*
X22200000Y-15425000D03*
D22*
X22435000Y-13440000D03*
X22435000Y-14560000D03*
D20*
X22600000Y-12575000D03*
D21*
X22600000Y-12575000D03*
D20*
X22600000Y-15425000D03*
D21*
X22600000Y-15425000D03*
D24*
X3050000Y-12460000D03*
X6950000Y-12460000D03*
X3050000Y-13730000D03*
X6950000Y-13730000D03*
X3050000Y-15000000D03*
X6950000Y-15000000D03*
X3050000Y-16270000D03*
X6950000Y-16270000D03*
X3050000Y-17540000D03*
X6950000Y-17540000D03*
D16*
X20175000Y-8000000D03*
X21825000Y-8000000D03*
D25*
X2475000Y-7000000D03*
X5525000Y-7000000D03*
D14*
X14225000Y-13000000D03*
X15775000Y-13000000D03*
X13225000Y-9500000D03*
X14775000Y-9500000D03*
X20225000Y-15000000D03*
X21775000Y-15000000D03*
X12725000Y-8500000D03*
X14275000Y-8500000D03*
X10725000Y-8500000D03*
X12275000Y-8500000D03*
X22225000Y-11000000D03*
X23775000Y-11000000D03*
X11725000Y-8500000D03*
X13275000Y-8500000D03*
D26*
X1525000Y-6000000D03*
X4475000Y-6000000D03*
D11*
X15525000Y-10095000D03*
X15525000Y-11365000D03*
X15525000Y-12635000D03*
X15525000Y-13905000D03*
X20475000Y-13905000D03*
X20475000Y-12635000D03*
X20475000Y-11365000D03*
X20475000Y-10095000D03*
D27*
X7300000Y-14000000D03*
X8700000Y-14000000D03*
D16*
X11175000Y-2000000D03*
X12825000Y-2000000D03*
X4175000Y-6000000D03*
X5825000Y-6000000D03*
X4175000Y-8000000D03*
X5825000Y-8000000D03*
D28*
X9137500Y-7075000D03*
X9137500Y-7725000D03*
X9137500Y-8375000D03*
X9137500Y-9025000D03*
X9137500Y-9675000D03*
X9137500Y-10325000D03*
X9137500Y-10975000D03*
X9137500Y-11625000D03*
X9137500Y-12275000D03*
X9137500Y-12925000D03*
X14862500Y-12925000D03*
X14862500Y-12275000D03*
X14862500Y-11625000D03*
X14862500Y-10975000D03*
X14862500Y-10325000D03*
X14862500Y-9675000D03*
X14862500Y-9025000D03*
X14862500Y-8375000D03*
X14862500Y-7725000D03*
X14862500Y-7075000D03*
D29*
X15250000Y-12000000D03*
X12750000Y-12000000D03*
D16*
X6175000Y-8000000D03*
X7825000Y-8000000D03*
D14*
X12225000Y-11800000D03*
X13775000Y-11800000D03*
D15*
X13212500Y-1000000D03*
X14787500Y-1000000D03*
D16*
X5175000Y-8000000D03*
X6825000Y-8000000D03*
D24*
X20050000Y-15730000D03*
X23950000Y-15730000D03*
X20050000Y-17000000D03*
X23950000Y-17000000D03*
X20050000Y-18270000D03*
X23950000Y-18270000D03*
D16*
X19175000Y-8000000D03*
X20825000Y-8000000D03*
D14*
X13225000Y-7500000D03*
X14775000Y-7500000D03*
X9225000Y-11000000D03*
X10775000Y-11000000D03*
D11*
X21525000Y-8095000D03*
X21525000Y-9365000D03*
X21525000Y-10635000D03*
X21525000Y-11905000D03*
X26475000Y-11905000D03*
X26475000Y-10635000D03*
X26475000Y-9365000D03*
X26475000Y-8095000D03*
D14*
X4225000Y-9000000D03*
X5775000Y-9000000D03*
D17*
X4050000Y-4000000D03*
X5950000Y-4000000D03*
D16*
X3175000Y-8000000D03*
X4825000Y-8000000D03*
D30*
X8000000Y-4000000D03*
D31*
X11500000Y-4000000D03*
D32*
X2312500Y-9000000D03*
X2312500Y-9500000D03*
X2312500Y-10000000D03*
X2312500Y-10500000D03*
X2312500Y-11000000D03*
D33*
X3000000Y-11687500D03*
X3500000Y-11687500D03*
X4000000Y-11687500D03*
X4500000Y-11687500D03*
X5000000Y-11687500D03*
D32*
X5687500Y-11000000D03*
X5687500Y-10500000D03*
X5687500Y-10000000D03*
X5687500Y-9500000D03*
X5687500Y-9000000D03*
D33*
X5000000Y-8312500D03*
X4500000Y-8312500D03*
X4000000Y-8312500D03*
X3500000Y-8312500D03*
X3000000Y-8312500D03*
D34*
X4000000Y-10000000D03*
D14*
X13225000Y-11500000D03*
X14775000Y-11500000D03*
D35*
X25150000Y-9462500D03*
D36*
X25075000Y-10000000D03*
D35*
X25150000Y-10537500D03*
X26850000Y-10537500D03*
D36*
X26925000Y-10000000D03*
D35*
X26850000Y-9462500D03*
D16*
X12175000Y-2000000D03*
X13825000Y-2000000D03*
D37*
X5000000Y-11000000D03*
X13000000Y-11000000D03*
X17000000Y-7000000D03*
X11000000Y-9000000D03*
X25000000Y-11000000D03*
X23000000Y-9000000D03*
X19000000Y-13000000D03*
X17000000Y-11000000D03*
X19000000Y-9000000D03*
X21000000Y-13000000D03*
X3000000Y-9000000D03*
X23000000Y-15000000D03*
D38*
X20525000Y-13000000D02*
X20287500Y-13000000D01*
X3406250Y-9000000D02*
X3406250Y-11687500D01*
X26850000Y-9462500D02*
X17775000Y-9462500D01*
X8043750Y-9025000D02*
X8043750Y-17540000D01*
X3156250Y-11000000D02*
X2312500Y-11000000D01*
X2312500Y-11000000D02*
X2906250Y-11000000D01*
X14275000Y-11800000D02*
X14275000Y-7500000D01*
X12412500Y-13730000D02*
X3050000Y-13730000D01*
X10906250Y-7725000D02*
X10906250Y-13730000D01*
X12412500Y-15000000D02*
X12412500Y-13730000D01*
D39*
X2156250Y-2000000D02*
X2000000Y-2000000D01*
D38*
X21825000Y-8000000D02*
X21825000Y-10800000D01*
X10087500Y-13000000D02*
X13225000Y-13000000D01*
X8062500Y-15000000D02*
X9175000Y-15000000D01*
X4000000Y-11687500D02*
X4612500Y-11687500D01*
X15775000Y-13000000D02*
X10775000Y-13000000D01*
X13275000Y-11800000D02*
X11775000Y-11800000D01*
X16775000Y-14000000D02*
X15775000Y-14000000D01*
X6437500Y-14000000D02*
X6437500Y-5000000D01*
X11725000Y-11500000D02*
X11725000Y-11800000D01*
X16742500Y-13000000D02*
X16742500Y-8500000D01*
X17600000Y-14400000D02*
X17600000Y-6800000D01*
X11362500Y-4000000D02*
X11362500Y-14000000D01*
X2312500Y-9000000D02*
X3406250Y-9000000D01*
X9637500Y-13000000D02*
X14225000Y-13000000D01*
D39*
X2875000Y-6000000D02*
X1525000Y-6000000D01*
D38*
X28400000Y-5600000D02*
X28400000Y-14400000D01*
X12825000Y-2000000D02*
X10062500Y-2000000D01*
X19175000Y-8000000D02*
X20175000Y-8000000D01*
D39*
X3500000Y-8312500D02*
X4000000Y-8312500D01*
D38*
X12225000Y-11800000D02*
X12725000Y-11800000D01*
X14862500Y-12925000D02*
X20668750Y-12925000D01*
X20525000Y-14000000D02*
X20287500Y-14000000D01*
X15525000Y-10095000D02*
X15525000Y-11365000D01*
X12025000Y-5000000D02*
X12025000Y-15730000D01*
D39*
X9762500Y-8312500D02*
X9762500Y-8635000D01*
D38*
X13775000Y-11800000D02*
X14275000Y-11800000D01*
X2312500Y-10000000D02*
X2743750Y-10000000D01*
X5000000Y-11687500D02*
X4587500Y-11687500D01*
X29000000Y-15000000D02*
X17000000Y-15000000D01*
X13143750Y-1000000D02*
X13143750Y-4000000D01*
X12775000Y-10500000D02*
X12775000Y-9000000D01*
X6293750Y-7000000D02*
X6293750Y-12650000D01*
X10362500Y-4000000D02*
X5950000Y-4000000D01*
X4612500Y-6000000D02*
X5225000Y-6000000D01*
X12275000Y-8500000D02*
X13275000Y-8500000D01*
X17668750Y-7365000D02*
X20475000Y-7365000D01*
X12693750Y-1000000D02*
X12693750Y-2000000D01*
X6275000Y-9000000D02*
X6275000Y-6000000D01*
X21025000Y-11905000D02*
X21025000Y-15000000D01*
X20475000Y-10095000D02*
X20475000Y-6095000D01*
X8043750Y-11625000D02*
X8043750Y-16270000D01*
X12000000Y-10325000D02*
X12000000Y-11625000D01*
D39*
X4000000Y-8312500D02*
X9762500Y-8312500D01*
X8000000Y-4000000D02*
X5500000Y-4000000D01*
D38*
X14775000Y-11500000D02*
X13275000Y-11500000D01*
X10775000Y-11000000D02*
X12775000Y-11000000D01*
X17775000Y-9462500D02*
X17775000Y-14000000D01*
X23760000Y-13500000D02*
X19642500Y-13500000D01*
X22875000Y-10000000D02*
X24225000Y-10000000D01*
X6275000Y-6000000D02*
X6775000Y-6000000D01*
X14225000Y-13000000D02*
X18225000Y-13000000D01*
X4431250Y-8000000D02*
X3175000Y-8000000D01*
X20668750Y-12925000D02*
X20668750Y-9365000D01*
X4000000Y-5000000D02*
X12025000Y-5000000D01*
D39*
X11193750Y-2000000D02*
X11175000Y-2000000D01*
D38*
X17000000Y-5000000D02*
X29000000Y-5000000D01*
X18200000Y-13800000D02*
X18200000Y-8000000D01*
X14787500Y-1000000D02*
X13143750Y-1000000D01*
X6412500Y-7000000D02*
X5525000Y-7000000D01*
X3525000Y-13730000D02*
X3525000Y-2000000D01*
X6825000Y-8000000D02*
X6175000Y-8000000D01*
X13400000Y-9905000D02*
X13400000Y-8500000D01*
X19642500Y-13905000D02*
X15525000Y-13905000D01*
X18325000Y-4000000D02*
X18325000Y-10537500D01*
X6981250Y-6000000D02*
X4825000Y-6000000D01*
X4825000Y-8000000D02*
X5825000Y-8000000D01*
X12725000Y-7500000D02*
X13225000Y-7500000D01*
X4500000Y-11687500D02*
X5093750Y-11687500D01*
X14343750Y-11625000D02*
X14343750Y-2000000D01*
X10906250Y-13730000D02*
X6950000Y-13730000D01*
X20475000Y-8635000D02*
X20475000Y-10700000D01*
X8637500Y-7500000D02*
X8637500Y-4000000D01*
X23650000Y-10000000D02*
X25775000Y-10000000D01*
X29000000Y-5000000D02*
X29000000Y-15000000D01*
X7300000Y-14000000D02*
X6412500Y-14000000D01*
X6437500Y-5000000D02*
X4175000Y-5000000D01*
X24000000Y-10000000D02*
X25000000Y-10000000D01*
X5093750Y-8312500D02*
X4500000Y-8312500D01*
X17775000Y-14000000D02*
X8700000Y-14000000D01*
X14775000Y-10500000D02*
X12775000Y-10500000D01*
D39*
X3175000Y-6000000D02*
X4000000Y-6000000D01*
D38*
X21775000Y-15000000D02*
X12412500Y-15000000D01*
X9725000Y-8500000D02*
X10725000Y-8500000D01*
X14737500Y-12000000D02*
X14737500Y-14000000D01*
X2743750Y-5000000D02*
X3175000Y-5000000D01*
X5687500Y-9500000D02*
X16081250Y-9500000D01*
D39*
X3112500Y-9000000D02*
X4225000Y-9000000D01*
D38*
X12193750Y-12000000D02*
X15250000Y-12000000D01*
X18200000Y-6200000D02*
X27800000Y-6200000D01*
X4431250Y-11000000D02*
X4431250Y-8000000D01*
X4068750Y-10500000D02*
X4068750Y-5000000D01*
X9637500Y-4000000D02*
X9637500Y-13000000D01*
X15775000Y-14000000D02*
X16775000Y-14000000D01*
X2312500Y-10500000D02*
X4068750Y-10500000D01*
X12787500Y-1000000D02*
X14787500Y-1000000D01*
X11362500Y-14000000D02*
X15775000Y-14000000D01*
X20525000Y-15000000D02*
X22142500Y-15000000D01*
X14862500Y-10325000D02*
X12000000Y-10325000D01*
X22875000Y-8095000D02*
X22875000Y-10000000D01*
X12975000Y-9500000D02*
X13225000Y-9500000D01*
X11775000Y-11800000D02*
X13775000Y-11800000D01*
X20175000Y-8000000D02*
X16500000Y-8000000D01*
X17668750Y-12275000D02*
X17668750Y-7365000D01*
X18225000Y-13000000D02*
X18225000Y-11000000D01*
X13225000Y-10500000D02*
X11225000Y-10500000D01*
D39*
X3112500Y-2000000D02*
X3112500Y-9000000D01*
D38*
X23760000Y-14000000D02*
X23760000Y-10800000D01*
X8043750Y-16270000D02*
X6950000Y-16270000D01*
X26475000Y-8095000D02*
X23475000Y-8095000D01*
X13400000Y-8500000D02*
X11275000Y-8500000D01*
X10725000Y-8500000D02*
X11725000Y-8500000D01*
X18225000Y-11000000D02*
X22225000Y-11000000D01*
X21525000Y-10635000D02*
X21525000Y-11905000D01*
X21525000Y-11905000D02*
X21025000Y-11905000D01*
X5093750Y-11687500D02*
X5093750Y-9000000D01*
X10175000Y-15000000D02*
X11825000Y-15000000D01*
X9137500Y-12275000D02*
X8043750Y-12275000D01*
X6950000Y-17540000D02*
X10087500Y-17540000D01*
X26500000Y-10000000D02*
X26500000Y-13000000D01*
X4175000Y-5000000D02*
X4500000Y-5000000D01*
X13275000Y-8500000D02*
X14275000Y-8500000D01*
D39*
X5500000Y-4000000D02*
X5500000Y-11687500D01*
D38*
X16081250Y-9500000D02*
X16081250Y-8095000D01*
X13212500Y-1000000D02*
X12693750Y-1000000D01*
X16448750Y-15000000D02*
X23760000Y-15000000D01*
X24225000Y-10000000D02*
X24687500Y-10000000D01*
X20050000Y-17000000D02*
X16418750Y-17000000D01*
X23650000Y-9365000D02*
X23650000Y-10000000D01*
X26850000Y-10537500D02*
X26850000Y-9462500D01*
X4000000Y-10000000D02*
X3156250Y-10000000D01*
X12512500Y-10635000D02*
X21525000Y-10635000D01*
D39*
X2000000Y-2000000D02*
X3112500Y-2000000D01*
D38*
X15775000Y-14000000D02*
X15775000Y-13000000D01*
X9137500Y-8375000D02*
X10943750Y-8375000D01*
X20287500Y-15730000D02*
X20050000Y-15730000D01*
X23775000Y-11000000D02*
X22775000Y-11000000D01*
X18000000Y-12635000D02*
X18000000Y-11365000D01*
X10943750Y-8375000D02*
X10943750Y-12000000D01*
X5825000Y-6000000D02*
X10675000Y-6000000D01*
X14343750Y-2000000D02*
X13825000Y-2000000D01*
X3156250Y-10000000D02*
X3156250Y-11000000D01*
X23760000Y-13000000D02*
X16742500Y-13000000D01*
X5093750Y-9000000D02*
X5687500Y-9000000D01*
X5056250Y-12650000D02*
X5056250Y-12460000D01*
X20287500Y-17000000D02*
X20050000Y-17000000D01*
X11500000Y-4000000D02*
X18325000Y-4000000D01*
X27800000Y-13800000D02*
X18200000Y-13800000D01*
X25775000Y-10000000D02*
X25075000Y-10000000D01*
X22000000Y-17000000D02*
X20050000Y-17000000D01*
X8062500Y-13730000D02*
X8062500Y-15000000D01*
X19642500Y-13500000D02*
X19642500Y-13905000D01*
X23475000Y-10095000D02*
X20475000Y-10095000D01*
X9225000Y-11000000D02*
X11225000Y-11000000D01*
X22000000Y-15730000D02*
X22000000Y-17000000D01*
X27200000Y-6800000D02*
X27200000Y-13200000D01*
X10775000Y-9000000D02*
X5775000Y-9000000D01*
X11225000Y-10500000D02*
X11225000Y-9000000D01*
D39*
X3500000Y-11687500D02*
X3500000Y-8312500D01*
D38*
X2906250Y-11000000D02*
X2906250Y-11687500D01*
X14862500Y-9675000D02*
X10275000Y-9675000D01*
X16500000Y-2000000D02*
X12825000Y-2000000D01*
X18800000Y-9200000D02*
X26500000Y-9200000D01*
X8700000Y-14000000D02*
X6437500Y-14000000D01*
X4250000Y-8312500D02*
X4250000Y-10000000D01*
X16418750Y-17000000D02*
X16418750Y-1000000D01*
X22142500Y-15000000D02*
X22142500Y-13500000D01*
X17600000Y-5600000D02*
X28400000Y-5600000D01*
X5950000Y-4000000D02*
X6950000Y-4000000D01*
X15275000Y-11000000D02*
X23775000Y-11000000D01*
X9225000Y-10000000D02*
X9225000Y-11000000D01*
X14275000Y-8500000D02*
X14525000Y-8500000D01*
D39*
X3737500Y-7000000D02*
X2475000Y-7000000D01*
D38*
X6412500Y-14000000D02*
X6412500Y-7000000D01*
X15275000Y-6000000D02*
X15275000Y-11000000D01*
X21225000Y-15000000D02*
X20225000Y-15000000D01*
X8100000Y-11350000D02*
X7062500Y-11350000D01*
X5687500Y-10500000D02*
X6256250Y-10500000D01*
X18800000Y-6800000D02*
X27200000Y-6800000D01*
X12725000Y-11800000D02*
X12725000Y-7500000D01*
X11225000Y-11500000D02*
X13225000Y-11500000D01*
X14737500Y-14000000D02*
X14225000Y-14000000D01*
X3050000Y-13730000D02*
X3525000Y-13730000D01*
X22225000Y-11000000D02*
X21225000Y-11000000D01*
X4587500Y-8000000D02*
X4175000Y-8000000D01*
X13275000Y-11500000D02*
X13275000Y-11800000D01*
X8562500Y-12460000D02*
X8562500Y-15000000D01*
X21525000Y-8095000D02*
X22875000Y-8095000D01*
D39*
X5750000Y-8312500D02*
X5750000Y-4000000D01*
D38*
X19700000Y-15000000D02*
X19700000Y-8000000D01*
X4050000Y-4000000D02*
X5050000Y-4000000D01*
X13225000Y-9500000D02*
X13225000Y-10500000D01*
X22237500Y-13500000D02*
X22237500Y-15730000D01*
X5525000Y-7000000D02*
X6293750Y-7000000D01*
X8043750Y-17540000D02*
X6950000Y-17540000D01*
D39*
X4225000Y-9000000D02*
X2875000Y-9000000D01*
D38*
X10362500Y-7500000D02*
X10362500Y-4000000D01*
X13987500Y-14000000D02*
X15225000Y-14000000D01*
X15525000Y-12635000D02*
X18000000Y-12635000D01*
X21225000Y-11000000D02*
X21225000Y-15000000D01*
X13225000Y-11500000D02*
X11725000Y-11500000D01*
X5093750Y-9000000D02*
X5093750Y-8312500D01*
X4612500Y-11687500D02*
X4612500Y-6000000D01*
D39*
X3000000Y-11687500D02*
X3500000Y-11687500D01*
D38*
X4825000Y-6000000D02*
X4175000Y-6000000D01*
D39*
X11175000Y-2000000D02*
X10056250Y-2000000D01*
D38*
X20825000Y-8000000D02*
X20825000Y-10700000D01*
X2743750Y-10000000D02*
X2743750Y-5000000D01*
X3500000Y-11687500D02*
X12512500Y-11687500D01*
X22142500Y-13500000D02*
X23760000Y-13500000D01*
X9137500Y-10325000D02*
X6981250Y-10325000D01*
X14775000Y-9500000D02*
X14775000Y-10500000D01*
X16448750Y-10975000D02*
X16448750Y-15000000D01*
X5056250Y-12460000D02*
X3050000Y-12460000D01*
X5687500Y-9000000D02*
X5093750Y-9000000D01*
D39*
X5500000Y-11687500D02*
X3000000Y-11687500D01*
X10056250Y-2000000D02*
X10056250Y-12000000D01*
D38*
X10943750Y-12000000D02*
X12750000Y-12000000D01*
X3525000Y-2000000D02*
X4000000Y-2000000D01*
D39*
X2156250Y-9500000D02*
X2156250Y-2000000D01*
D38*
X14862500Y-9025000D02*
X14862500Y-10700000D01*
X8637500Y-4000000D02*
X4050000Y-4000000D01*
X10275000Y-10975000D02*
X14862500Y-10975000D01*
X4000000Y-2000000D02*
X4000000Y-5000000D01*
X16418750Y-1000000D02*
X12787500Y-1000000D01*
X6775000Y-6000000D02*
X15275000Y-6000000D01*
X4500000Y-8000000D02*
X4825000Y-8000000D01*
D39*
X3737500Y-8312500D02*
X3737500Y-7000000D01*
D38*
X20668750Y-9365000D02*
X26475000Y-9365000D01*
X14775000Y-13000000D02*
X15775000Y-13000000D01*
X10225000Y-11800000D02*
X12225000Y-11800000D01*
X10775000Y-13000000D02*
X10775000Y-9000000D01*
X9225000Y-9000000D02*
X9225000Y-10000000D01*
X15525000Y-13905000D02*
X15525000Y-9905000D01*
D39*
X3737500Y-8312500D02*
X3737500Y-6000000D01*
D38*
X6950000Y-12460000D02*
X8562500Y-12460000D01*
X13987500Y-12000000D02*
X13987500Y-14000000D01*
X6256250Y-10500000D02*
X6256250Y-8000000D01*
X9137500Y-11625000D02*
X5725000Y-11625000D01*
X15775000Y-13000000D02*
X14775000Y-13000000D01*
X10775000Y-10000000D02*
X10775000Y-11000000D01*
X14862500Y-7725000D02*
X10906250Y-7725000D01*
X9137500Y-7725000D02*
X12193750Y-7725000D01*
X20475000Y-12635000D02*
X20475000Y-10700000D01*
X12775000Y-11000000D02*
X12775000Y-11500000D01*
X9137500Y-12925000D02*
X8100000Y-12925000D01*
X14275000Y-7500000D02*
X14775000Y-7500000D01*
X6825000Y-8000000D02*
X6825000Y-6000000D01*
X27200000Y-13200000D02*
X18800000Y-13200000D01*
X10275000Y-9500000D02*
X5687500Y-9500000D01*
X12512500Y-11687500D02*
X12512500Y-10635000D01*
X20050000Y-15730000D02*
X23950000Y-15730000D01*
D39*
X4000000Y-5000000D02*
X4825000Y-5000000D01*
D38*
X19700000Y-8000000D02*
X19175000Y-8000000D01*
D39*
X3737500Y-6000000D02*
X4475000Y-6000000D01*
X11212500Y-1000000D02*
X11193750Y-1000000D01*
D38*
X22117500Y-13000000D02*
X23760000Y-13000000D01*
X8100000Y-12925000D02*
X8100000Y-11350000D01*
X10275000Y-10000000D02*
X10275000Y-10975000D01*
X13225000Y-7500000D02*
X8637500Y-7500000D01*
X14862500Y-7075000D02*
X10906250Y-7075000D01*
X12193750Y-7725000D02*
X12193750Y-12000000D01*
X12725000Y-8500000D02*
X12975000Y-8500000D01*
X9137500Y-11625000D02*
X8043750Y-11625000D01*
X14862500Y-11625000D02*
X14343750Y-11625000D01*
X5050000Y-4000000D02*
X9637500Y-4000000D01*
X21025000Y-15000000D02*
X20525000Y-15000000D01*
X20287500Y-13000000D02*
X20287500Y-15730000D01*
X10906250Y-12460000D02*
X6950000Y-12460000D01*
X21525000Y-9365000D02*
X23650000Y-9365000D01*
X13862500Y-10800000D02*
X27475000Y-10800000D01*
X13862500Y-10700000D02*
X27475000Y-10700000D01*
D39*
X4000000Y-6000000D02*
X4000000Y-5000000D01*
D38*
X10906250Y-7075000D02*
X10906250Y-12460000D01*
X3406250Y-11687500D02*
X4500000Y-11687500D01*
D39*
X3000000Y-8312500D02*
X3737500Y-8312500D01*
D38*
X10675000Y-6000000D02*
X10675000Y-10095000D01*
X4500000Y-8312500D02*
X4250000Y-8312500D01*
X6950000Y-13730000D02*
X8062500Y-13730000D01*
X5725000Y-11625000D02*
X5725000Y-9000000D01*
X4500000Y-5000000D02*
X4500000Y-8000000D01*
X6293750Y-12650000D02*
X7062500Y-12650000D01*
X10062500Y-2000000D02*
X10062500Y-14000000D01*
X24687500Y-10000000D02*
X24687500Y-9462500D01*
X6825000Y-6000000D02*
X5825000Y-6000000D01*
X14525000Y-9500000D02*
X14775000Y-9500000D01*
X17000000Y-15000000D02*
X17000000Y-5600000D01*
X23950000Y-15730000D02*
X22000000Y-15730000D01*
X12975000Y-8500000D02*
X12975000Y-9500000D01*
X13143750Y-4000000D02*
X11500000Y-4000000D01*
X20475000Y-13905000D02*
X20475000Y-10800000D01*
D39*
X3500000Y-8312500D02*
X5750000Y-8312500D01*
D38*
X10775000Y-9000000D02*
X10775000Y-10000000D01*
X23475000Y-8095000D02*
X23475000Y-10095000D01*
X11725000Y-8500000D02*
X12725000Y-8500000D01*
X12775000Y-9000000D02*
X10775000Y-9000000D01*
D39*
X11193750Y-1000000D02*
X11193750Y-2000000D01*
D38*
X20475000Y-9905000D02*
X20475000Y-10800000D01*
X5687500Y-10000000D02*
X10275000Y-10000000D01*
X4068750Y-5000000D02*
X5825000Y-5000000D01*
X10675000Y-10095000D02*
X15525000Y-10095000D01*
D39*
X2312500Y-9500000D02*
X2156250Y-9500000D01*
D38*
X22117500Y-6095000D02*
X22117500Y-13000000D01*
X9175000Y-15000000D02*
X10825000Y-15000000D01*
X14862500Y-12275000D02*
X17668750Y-12275000D01*
X11725000Y-11800000D02*
X10225000Y-11800000D01*
X11225000Y-9000000D02*
X9225000Y-9000000D01*
X7062500Y-12650000D02*
X5056250Y-12650000D01*
X4250000Y-10000000D02*
X4000000Y-10000000D01*
X28400000Y-14400000D02*
X17600000Y-14400000D01*
X20287500Y-14000000D02*
X20287500Y-17000000D01*
X15525000Y-9905000D02*
X13400000Y-9905000D01*
X23760000Y-14500000D02*
X23760000Y-10700000D01*
X15525000Y-11365000D02*
X15525000Y-12635000D01*
X24687500Y-9462500D02*
X25150000Y-9462500D01*
X9137500Y-10975000D02*
X16448750Y-10975000D01*
X9137500Y-9675000D02*
X14862500Y-9675000D01*
D39*
X9762500Y-8635000D02*
X15525000Y-8635000D01*
D38*
X18000000Y-11365000D02*
X20475000Y-11365000D01*
X5775000Y-9000000D02*
X6275000Y-9000000D01*
D39*
X10056250Y-12000000D02*
X8937500Y-12000000D01*
X1525000Y-6000000D02*
X3175000Y-6000000D01*
X2875000Y-9000000D02*
X2875000Y-6000000D01*
D38*
X27800000Y-6200000D02*
X27800000Y-13800000D01*
X22775000Y-15000000D02*
X21775000Y-15000000D01*
X2906250Y-11687500D02*
X3500000Y-11687500D01*
X20525000Y-13500000D02*
X22237500Y-13500000D01*
X16081250Y-8095000D02*
X26475000Y-8095000D01*
X8043750Y-15000000D02*
X6950000Y-15000000D01*
X10087500Y-17540000D02*
X10087500Y-13000000D01*
X20475000Y-6095000D02*
X22117500Y-6095000D01*
X12693750Y-2000000D02*
X12175000Y-2000000D01*
X14862500Y-8375000D02*
X14862500Y-10800000D01*
X5725000Y-9000000D02*
X2312500Y-9000000D01*
X12750000Y-12000000D02*
X13987500Y-12000000D01*
X7825000Y-8000000D02*
X6825000Y-8000000D01*
X4587500Y-11687500D02*
X4587500Y-8000000D01*
X9137500Y-9025000D02*
X8043750Y-9025000D01*
X16500000Y-8000000D02*
X16500000Y-2000000D01*
X26475000Y-11905000D02*
X26475000Y-10700000D01*
X11225000Y-11000000D02*
X11225000Y-11500000D01*
X14525000Y-8500000D02*
X14525000Y-9500000D01*
X22775000Y-11000000D02*
X22775000Y-15000000D01*
X6256250Y-8000000D02*
X6825000Y-8000000D01*
X12000000Y-11625000D02*
X9137500Y-11625000D01*
X14775000Y-7500000D02*
X10362500Y-7500000D01*
X15250000Y-12000000D02*
X14737500Y-12000000D01*
X18325000Y-10537500D02*
X25150000Y-10537500D01*
X6981250Y-10325000D02*
X6981250Y-6000000D01*
X12025000Y-15730000D02*
X20050000Y-15730000D01*
X22237500Y-15730000D02*
X23950000Y-15730000D01*
X8562500Y-15000000D02*
X10175000Y-15000000D01*
X12775000Y-11500000D02*
X14775000Y-11500000D01*
X5687500Y-11000000D02*
X4431250Y-11000000D01*
X5825000Y-8000000D02*
X7825000Y-8000000D01*
X25150000Y-10537500D02*
X26850000Y-10537500D01*
X10275000Y-9675000D02*
X10275000Y-9500000D01*
D39*
X5750000Y-4000000D02*
X8000000Y-4000000D01*
X5000000Y-8312500D02*
X3737500Y-8312500D01*
D38*
X10062500Y-14000000D02*
X7300000Y-14000000D01*
X16742500Y-8500000D02*
X9725000Y-8500000D01*
X8043750Y-12275000D02*
X8043750Y-15000000D01*
X20225000Y-15000000D02*
X19700000Y-15000000D01*
X11275000Y-8500000D02*
X12275000Y-8500000D01*
X6950000Y-4000000D02*
X11362500Y-4000000D01*
X26475000Y-10635000D02*
X26475000Y-10800000D01*
D40*
X5000000Y-11000000D03*
X13000000Y-11000000D03*
X17000000Y-7000000D03*
X11000000Y-9000000D03*
X25000000Y-11000000D03*
X23000000Y-9000000D03*
X19000000Y-13000000D03*
X17000000Y-11000000D03*
X19000000Y-9000000D03*
X21000000Y-13000000D03*
X3000000Y-9000000D03*
X23000000Y-15000000D03*
D41*
X2000000Y-5000000D03*
X4000000Y-5000000D03*
X2000000Y-2000000D03*
X4000000Y-2000000D03*
X8000000Y-4000000D03*
X11500000Y-4000000D03*
M02*
