%TF.GenerationSoftware,KiCad,Pcbnew,6.0.11+dfsg-1*%
%TF.CreationDate,2026-07-27T13:39:11+02:00*%
%TF.ProjectId,mykovolt_devkit,6d796b6f-766f-46c7-945f-6465766b6974,rev?*%
%TF.SameCoordinates,Original*%
%TF.FileFunction,Legend,Bot*%
%TF.FilePolarity,Positive*%
%FSLAX46Y46*%
G04 Gerber Fmt 4.6, Leading zero omitted, Abs format (unit mm)*
G04 Created by KiCad (PCBNEW 6.0.11+dfsg-1) date 2026-07-27 13:39:11*
%MOMM*%
%LPD*%
G01*
G04 APERTURE LIST*
G04 Aperture macros list*
%AMRoundRect*
0 Rectangle with rounded corners*
0 $1 Rounding radius*
0 $2 $3 $4 $5 $6 $7 $8 $9 X,Y pos of 4 corners*
0 Add a 4 corners polygon primitive as box body*
4,1,4,$2,$3,$4,$5,$6,$7,$8,$9,$2,$3,0*
0 Add four circle primitives for the rounded corners*
1,1,$1+$1,$2,$3*
1,1,$1+$1,$4,$5*
1,1,$1+$1,$6,$7*
1,1,$1+$1,$8,$9*
0 Add four rect primitives between the rounded corners*
20,1,$1+$1,$2,$3,$4,$5,0*
20,1,$1+$1,$4,$5,$6,$7,0*
20,1,$1+$1,$6,$7,$8,$9,0*
20,1,$1+$1,$8,$9,$2,$3,0*%
G04 Aperture macros list end*
%TA.AperFunction,Profile*%
%ADD10C,0.100000*%
%TD*%
%ADD11C,0.100000*%
%ADD12C,0.250000*%
%ADD13C,0.350000*%
%ADD14RoundRect,0.250000X-0.350000X-0.625000X0.350000X-0.625000X0.350000X0.625000X-0.350000X0.625000X0*%
%ADD15O,1.200000X1.750000*%
%ADD16R,1.600000X1.600000*%
%ADD17C,1.600000*%
G04 APERTURE END LIST*
D10*
X30000000Y0D02*
X30000000Y-20000000D01*
X0Y-20000000D02*
X0Y0D01*
X0Y0D02*
X30000000Y0D01*
X30000000Y-20000000D02*
X0Y-20000000D01*
D11*
X13342857Y-21242857D02*
X13428571Y-21271428D01*
X13571428Y-21271428D01*
X13628571Y-21242857D01*
X13657142Y-21214285D01*
X13685714Y-21157142D01*
X13685714Y-21100000D01*
X13657142Y-21042857D01*
X13628571Y-21014285D01*
X13571428Y-20985714D01*
X13457142Y-20957142D01*
X13400000Y-20928571D01*
X13371428Y-20900000D01*
X13342857Y-20842857D01*
X13342857Y-20785714D01*
X13371428Y-20728571D01*
X13400000Y-20700000D01*
X13457142Y-20671428D01*
X13600000Y-20671428D01*
X13685714Y-20700000D01*
X13942857Y-20957142D02*
X14142857Y-20957142D01*
X14228571Y-21271428D02*
X13942857Y-21271428D01*
X13942857Y-20671428D01*
X14228571Y-20671428D01*
X14485714Y-21271428D02*
X14485714Y-20671428D01*
X14828571Y-21271428D01*
X14828571Y-20671428D01*
X15085714Y-21242857D02*
X15171428Y-21271428D01*
X15314285Y-21271428D01*
X15371428Y-21242857D01*
X15400000Y-21214285D01*
X15428571Y-21157142D01*
X15428571Y-21100000D01*
X15400000Y-21042857D01*
X15371428Y-21014285D01*
X15314285Y-20985714D01*
X15200000Y-20957142D01*
X15142857Y-20928571D01*
X15114285Y-20900000D01*
X15085714Y-20842857D01*
X15085714Y-20785714D01*
X15114285Y-20728571D01*
X15142857Y-20700000D01*
X15200000Y-20671428D01*
X15342857Y-20671428D01*
X15428571Y-20700000D01*
X15800000Y-20671428D02*
X15914285Y-20671428D01*
X15971428Y-20700000D01*
X16028571Y-20757142D01*
X16057142Y-20871428D01*
X16057142Y-21071428D01*
X16028571Y-21185714D01*
X15971428Y-21242857D01*
X15914285Y-21271428D01*
X15800000Y-21271428D01*
X15742857Y-21242857D01*
X15685714Y-21185714D01*
X15657142Y-21071428D01*
X15657142Y-20871428D01*
X15685714Y-20757142D01*
X15742857Y-20700000D01*
X15800000Y-20671428D01*
X16657142Y-21271428D02*
X16457142Y-20985714D01*
X16314285Y-21271428D02*
X16314285Y-20671428D01*
X16542857Y-20671428D01*
X16600000Y-20700000D01*
X16628571Y-20728571D01*
X16657142Y-20785714D01*
X16657142Y-20871428D01*
X16628571Y-20928571D01*
X16600000Y-20957142D01*
X16542857Y-20985714D01*
X16314285Y-20985714D01*
D12*
X5000000Y-11000000D03*
X13000000Y-11000000D03*
X25000000Y-11000000D03*
X19000000Y-13000000D03*
X19000000Y-9000000D03*
X23000000Y-15000000D03*
X11000000Y-9000000D03*
X17000000Y-11000000D03*
X21000000Y-13000000D03*
X3000000Y-9000000D03*
X17000000Y-7000000D03*
X23000000Y-9000000D03*
D13*
X2000000Y-5000000D03*
X4000000Y-5000000D03*
X8000000Y-4000000D03*
X11500000Y-4000000D03*
X2000000Y-2000000D03*
X4000000Y-2000000D03*
%LPC*%
D14*
X2000000Y-5000000D03*
D15*
X4000000Y-5000000D03*
D16*
X8000000Y-4000000D03*
D17*
X11500000Y-4000000D03*
D14*
X2000000Y-2000000D03*
D15*
X4000000Y-2000000D03*
M02*
