%TF.GenerationSoftware,KiCad,Pcbnew,9.0.8+1*%
%TF.CreationDate,2026-07-29T06:42:39+02:00*%
%TF.ProjectId,mykovolt_devkit,6d796b6f-766f-46c7-945f-6465766b6974,rev?*%
%TF.SameCoordinates,Original*%
%TF.FileFunction,Soldermask,Top*%
%TF.FilePolarity,Negative*%
%FSLAX46Y46*%
G04 Gerber Fmt 4.6, Leading zero omitted, Abs format (unit mm)*
G04 Created by KiCad (PCBNEW 9.0.8+1) date 2026-07-29 06:42:39*
%MOMM*%
%LPD*%
G01*
G04 APERTURE LIST*
G04 Aperture macros list*
%AMRoundRect*
0 Rectangle with rounded corners*
0 $1 Rounding radius*
0 $2 $3 $4 $5 $6 $7 $8 $9 X,Y pos of 4 corners*
0 Add a 4 corners polygon primitive as box body*
4,1,4,$2,$3,$4,$5,$6,$7,$8,$9,$2,$3,0*
0 Add four circle primitives for the rounded corners*
1,1,$1+$1,$2,$3*
1,1,$1+$1,$4,$5*
1,1,$1+$1,$6,$7*
1,1,$1+$1,$8,$9*
0 Add four rect primitives between the rounded corners*
20,1,$1+$1,$2,$3,$4,$5,0*
20,1,$1+$1,$4,$5,$6,$7,0*
20,1,$1+$1,$6,$7,$8,$9,0*
20,1,$1+$1,$8,$9,$2,$3,0*%
G04 Aperture macros list end*
%ADD10R,2.400000X0.740000*%
%ADD11RoundRect,0.150000X-0.825000X-0.150000X0.825000X-0.150000X0.825000X0.150000X-0.825000X0.150000X0*%
%ADD12RoundRect,0.225000X-0.225000X-0.250000X0.225000X-0.250000X0.225000X0.250000X-0.225000X0.250000X0*%
%ADD13RoundRect,0.200000X-0.200000X-0.275000X0.200000X-0.275000X0.200000X0.275000X-0.200000X0.275000X0*%
%ADD14RoundRect,0.093750X-0.156250X-0.093750X0.156250X-0.093750X0.156250X0.093750X-0.156250X0.093750X0*%
%ADD15RoundRect,0.075000X-0.250000X-0.075000X0.250000X-0.075000X0.250000X0.075000X-0.250000X0.075000X0*%
%ADD16RoundRect,0.218750X-0.218750X-0.256250X0.218750X-0.256250X0.218750X0.256250X-0.218750X0.256250X0*%
%ADD17RoundRect,0.250000X-0.550000X-0.550000X0.550000X-0.550000X0.550000X0.550000X-0.550000X0.550000X0*%
%ADD18C,1.600000*%
%ADD19R,1.150000X3.600000*%
%ADD20RoundRect,0.150000X0.150000X0.200000X-0.150000X0.200000X-0.150000X-0.200000X0.150000X-0.200000X0*%
%ADD21RoundRect,0.250000X-0.350000X-0.625000X0.350000X-0.625000X0.350000X0.625000X-0.350000X0.625000X0*%
%ADD22O,1.200000X1.750000*%
%ADD23RoundRect,0.250000X-0.250000X-0.475000X0.250000X-0.475000X0.250000X0.475000X-0.250000X0.475000X0*%
%ADD24RoundRect,0.100000X-0.637500X-0.100000X0.637500X-0.100000X0.637500X0.100000X-0.637500X0.100000X0*%
%ADD25R,1.500000X3.600000*%
%ADD26R,1.000000X1.800000*%
%ADD27RoundRect,0.062500X-0.375000X-0.062500X0.375000X-0.062500X0.375000X0.062500X-0.375000X0.062500X0*%
%ADD28RoundRect,0.062500X-0.062500X-0.375000X0.062500X-0.375000X0.062500X0.375000X-0.062500X0.375000X0*%
%ADD29R,2.000000X2.000000*%
%ADD30R,0.280000X0.280000*%
%ADD31O,0.850000X0.280000*%
%ADD32R,0.230000X0.600000*%
%ADD33R,0.250000X0.700000*%
%ADD34R,0.650000X0.900000*%
%ADD35R,1.700000X2.150000*%
%ADD36RoundRect,0.125000X-0.487500X-0.125000X0.487500X-0.125000X0.487500X0.125000X-0.487500X0.125000X0*%
%ADD37C,0.350000*%
G04 APERTURE END LIST*
D10*
X20050000Y-15730000D03*
X23950000Y-15730000D03*
X20050000Y-17000000D03*
X23950000Y-17000000D03*
X20050000Y-18270000D03*
X23950000Y-18270000D03*
D11*
X15525000Y-6095000D03*
X15525000Y-7365000D03*
X15525000Y-8635000D03*
X15525000Y-9905000D03*
X20475000Y-9905000D03*
X20475000Y-8635000D03*
X20475000Y-7365000D03*
X20475000Y-6095000D03*
D12*
X20225000Y-15000000D03*
X21775000Y-15000000D03*
D13*
X20175000Y-8000000D03*
X21825000Y-8000000D03*
D12*
X4225000Y-9000000D03*
X5775000Y-9000000D03*
D14*
X25150000Y-9462500D03*
D15*
X25075000Y-10000000D03*
D14*
X25150000Y-10537500D03*
X26850000Y-10537500D03*
D15*
X26925000Y-10000000D03*
D14*
X26850000Y-9462500D03*
D16*
X13212500Y-1000000D03*
X14787500Y-1000000D03*
D13*
X12175000Y-2000000D03*
X13825000Y-2000000D03*
D11*
X15525000Y-10095000D03*
X15525000Y-11365000D03*
X15525000Y-12635000D03*
X15525000Y-13905000D03*
X20475000Y-13905000D03*
X20475000Y-12635000D03*
X20475000Y-11365000D03*
X20475000Y-10095000D03*
D17*
X8000000Y-4000000D03*
D18*
X11500000Y-4000000D03*
D12*
X10225000Y-11800000D03*
X11775000Y-11800000D03*
D13*
X11175000Y-2000000D03*
X12825000Y-2000000D03*
D12*
X13225000Y-11500000D03*
X14775000Y-11500000D03*
D19*
X1525000Y-6000000D03*
X4475000Y-6000000D03*
D20*
X7300000Y-14000000D03*
X8700000Y-14000000D03*
D21*
X2000000Y-2000000D03*
D22*
X4000000Y-2000000D03*
D23*
X4050000Y-4000000D03*
X5950000Y-4000000D03*
D12*
X9225000Y-10000000D03*
X10775000Y-10000000D03*
D13*
X4175000Y-6000000D03*
X5825000Y-6000000D03*
D12*
X9225000Y-11000000D03*
X10775000Y-11000000D03*
X22225000Y-11000000D03*
X23775000Y-11000000D03*
D24*
X9137500Y-7075000D03*
X9137500Y-7725000D03*
X9137500Y-8375000D03*
X9137500Y-9025000D03*
X9137500Y-9675000D03*
X9137500Y-10325000D03*
X9137500Y-10975000D03*
X9137500Y-11625000D03*
X9137500Y-12275000D03*
X9137500Y-12925000D03*
X14862500Y-12925000D03*
X14862500Y-12275000D03*
X14862500Y-11625000D03*
X14862500Y-10975000D03*
X14862500Y-10325000D03*
X14862500Y-9675000D03*
X14862500Y-9025000D03*
X14862500Y-8375000D03*
X14862500Y-7725000D03*
X14862500Y-7075000D03*
D10*
X3050000Y-12460000D03*
X6950000Y-12460000D03*
X3050000Y-13730000D03*
X6950000Y-13730000D03*
X3050000Y-15000000D03*
X6950000Y-15000000D03*
X3050000Y-16270000D03*
X6950000Y-16270000D03*
X3050000Y-17540000D03*
X6950000Y-17540000D03*
D12*
X13225000Y-9500000D03*
X14775000Y-9500000D03*
D13*
X5175000Y-8000000D03*
X6825000Y-8000000D03*
X9175000Y-15000000D03*
X10825000Y-15000000D03*
D12*
X15225000Y-14000000D03*
X16775000Y-14000000D03*
X10725000Y-8500000D03*
X12275000Y-8500000D03*
D25*
X2475000Y-7000000D03*
X5525000Y-7000000D03*
D12*
X5225000Y-6000000D03*
X6775000Y-6000000D03*
X13225000Y-13000000D03*
X14775000Y-13000000D03*
D13*
X4175000Y-5000000D03*
X5825000Y-5000000D03*
D12*
X9225000Y-9000000D03*
X10775000Y-9000000D03*
X13225000Y-7500000D03*
X14775000Y-7500000D03*
X11725000Y-8500000D03*
X13275000Y-8500000D03*
D11*
X21525000Y-8095000D03*
X21525000Y-9365000D03*
X21525000Y-10635000D03*
X21525000Y-11905000D03*
X26475000Y-11905000D03*
X26475000Y-10635000D03*
X26475000Y-9365000D03*
X26475000Y-8095000D03*
D13*
X10175000Y-15000000D03*
X11825000Y-15000000D03*
D12*
X14225000Y-13000000D03*
X15775000Y-13000000D03*
X14225000Y-14000000D03*
X15775000Y-14000000D03*
X12725000Y-8500000D03*
X14275000Y-8500000D03*
D16*
X11212500Y-1000000D03*
X12787500Y-1000000D03*
D12*
X9725000Y-8500000D03*
X11275000Y-8500000D03*
X13225000Y-10500000D03*
X14775000Y-10500000D03*
D26*
X15250000Y-12000000D03*
X12750000Y-12000000D03*
D13*
X19175000Y-8000000D03*
X20825000Y-8000000D03*
X3175000Y-5000000D03*
X4825000Y-5000000D03*
D21*
X2000000Y-5000000D03*
D22*
X4000000Y-5000000D03*
D13*
X6175000Y-8000000D03*
X7825000Y-8000000D03*
X3175000Y-6000000D03*
X4825000Y-6000000D03*
D12*
X12225000Y-11800000D03*
X13775000Y-11800000D03*
D13*
X4175000Y-8000000D03*
X5825000Y-8000000D03*
D27*
X2312500Y-9000000D03*
X2312500Y-9500000D03*
X2312500Y-10000000D03*
X2312500Y-10500000D03*
X2312500Y-11000000D03*
D28*
X3000000Y-11687500D03*
X3500000Y-11687500D03*
X4000000Y-11687500D03*
X4500000Y-11687500D03*
X5000000Y-11687500D03*
D27*
X5687500Y-11000000D03*
X5687500Y-10500000D03*
X5687500Y-10000000D03*
X5687500Y-9500000D03*
X5687500Y-9000000D03*
D28*
X5000000Y-8312500D03*
X4500000Y-8312500D03*
X4000000Y-8312500D03*
X3500000Y-8312500D03*
X3000000Y-8312500D03*
D29*
X4000000Y-10000000D03*
D13*
X3175000Y-8000000D03*
X4825000Y-8000000D03*
D23*
X5050000Y-4000000D03*
X6950000Y-4000000D03*
D30*
X20240000Y-13000000D03*
D31*
X20525000Y-13000000D03*
D30*
X20240000Y-13500000D03*
D31*
X20525000Y-13500000D03*
D30*
X20240000Y-14000000D03*
D31*
X20525000Y-14000000D03*
D30*
X20240000Y-14500000D03*
D31*
X20525000Y-14500000D03*
D30*
X20240000Y-15000000D03*
D31*
X20525000Y-15000000D03*
X23475000Y-15000000D03*
D30*
X23760000Y-15000000D03*
D31*
X23475000Y-14500000D03*
D30*
X23760000Y-14500000D03*
D31*
X23475000Y-14000000D03*
D30*
X23760000Y-14000000D03*
D31*
X23475000Y-13500000D03*
D30*
X23760000Y-13500000D03*
D31*
X23475000Y-13000000D03*
D30*
X23760000Y-13000000D03*
D32*
X21400000Y-12575000D03*
D33*
X21400000Y-12575000D03*
D32*
X21400000Y-15425000D03*
D33*
X21400000Y-15425000D03*
D34*
X21565000Y-13440000D03*
X21565000Y-14560000D03*
D32*
X21800000Y-12575000D03*
D33*
X21800000Y-12575000D03*
D32*
X21800000Y-15425000D03*
D33*
X21800000Y-15425000D03*
D35*
X22000000Y-14000000D03*
D32*
X22200000Y-12575000D03*
D33*
X22200000Y-12575000D03*
D32*
X22200000Y-15425000D03*
D33*
X22200000Y-15425000D03*
D34*
X22435000Y-13440000D03*
X22435000Y-14560000D03*
D32*
X22600000Y-12575000D03*
D33*
X22600000Y-12575000D03*
D32*
X22600000Y-15425000D03*
D33*
X22600000Y-15425000D03*
D12*
X24225000Y-10000000D03*
X25775000Y-10000000D03*
D36*
X7062500Y-11350000D03*
X7062500Y-12650000D03*
X8937500Y-12000000D03*
D37*
X8000000Y-4000000D03*
X11500000Y-4000000D03*
X2000000Y-2000000D03*
X4000000Y-2000000D03*
X2000000Y-5000000D03*
X4000000Y-5000000D03*
M02*
