%TF.GenerationSoftware,KiCad,Pcbnew,9.0.8+1*%
%TF.CreationDate,2026-07-27T22:55:21+02:00*%
%TF.ProjectId,mykovolt_devkit,6d796b6f-766f-46c7-945f-6465766b6974,rev?*%
%TF.SameCoordinates,Original*%
%TF.FileFunction,Legend,Top*%
%TF.FilePolarity,Positive*%
%FSLAX46Y46*%
G04 Gerber Fmt 4.6, Leading zero omitted, Abs format (unit mm)*
G04 Created by KiCad (PCBNEW 9.0.8+1) date 2026-07-27 22:55:21*
%MOMM*%
%LPD*%
G01*
G04 APERTURE LIST*
%ADD10C,0.150000*%
%ADD11C,0.120000*%
G04 APERTURE END LIST*
D10*
X7333332Y-12454819D02*
X7333332Y-11454819D01*
X7333332Y-11454819D02*
X7666665Y-12169104D01*
X7666665Y-12169104D02*
X7999998Y-11454819D01*
X7999998Y-11454819D02*
X7999998Y-12454819D01*
X8380951Y-11788152D02*
X8619046Y-12454819D01*
X8857141Y-11788152D02*
X8619046Y-12454819D01*
X8619046Y-12454819D02*
X8523808Y-12692914D01*
X8523808Y-12692914D02*
X8476189Y-12740533D01*
X8476189Y-12740533D02*
X8380951Y-12788152D01*
X9238094Y-12454819D02*
X9238094Y-11454819D01*
X9333332Y-12073866D02*
X9619046Y-12454819D01*
X9619046Y-11788152D02*
X9238094Y-12169104D01*
X10190475Y-12454819D02*
X10095237Y-12407200D01*
X10095237Y-12407200D02*
X10047618Y-12359580D01*
X10047618Y-12359580D02*
X9999999Y-12264342D01*
X9999999Y-12264342D02*
X9999999Y-11978628D01*
X9999999Y-11978628D02*
X10047618Y-11883390D01*
X10047618Y-11883390D02*
X10095237Y-11835771D01*
X10095237Y-11835771D02*
X10190475Y-11788152D01*
X10190475Y-11788152D02*
X10333332Y-11788152D01*
X10333332Y-11788152D02*
X10428570Y-11835771D01*
X10428570Y-11835771D02*
X10476189Y-11883390D01*
X10476189Y-11883390D02*
X10523808Y-11978628D01*
X10523808Y-11978628D02*
X10523808Y-12264342D01*
X10523808Y-12264342D02*
X10476189Y-12359580D01*
X10476189Y-12359580D02*
X10428570Y-12407200D01*
X10428570Y-12407200D02*
X10333332Y-12454819D01*
X10333332Y-12454819D02*
X10190475Y-12454819D01*
X10809523Y-11454819D02*
X11142856Y-12454819D01*
X11142856Y-12454819D02*
X11476189Y-11454819D01*
X11952380Y-12454819D02*
X11857142Y-12407200D01*
X11857142Y-12407200D02*
X11809523Y-12359580D01*
X11809523Y-12359580D02*
X11761904Y-12264342D01*
X11761904Y-12264342D02*
X11761904Y-11978628D01*
X11761904Y-11978628D02*
X11809523Y-11883390D01*
X11809523Y-11883390D02*
X11857142Y-11835771D01*
X11857142Y-11835771D02*
X11952380Y-11788152D01*
X11952380Y-11788152D02*
X12095237Y-11788152D01*
X12095237Y-11788152D02*
X12190475Y-11835771D01*
X12190475Y-11835771D02*
X12238094Y-11883390D01*
X12238094Y-11883390D02*
X12285713Y-11978628D01*
X12285713Y-11978628D02*
X12285713Y-12264342D01*
X12285713Y-12264342D02*
X12238094Y-12359580D01*
X12238094Y-12359580D02*
X12190475Y-12407200D01*
X12190475Y-12407200D02*
X12095237Y-12454819D01*
X12095237Y-12454819D02*
X11952380Y-12454819D01*
X12857142Y-12454819D02*
X12761904Y-12407200D01*
X12761904Y-12407200D02*
X12714285Y-12311961D01*
X12714285Y-12311961D02*
X12714285Y-11454819D01*
X13095238Y-11788152D02*
X13476190Y-11788152D01*
X13238095Y-11454819D02*
X13238095Y-12311961D01*
X13238095Y-12311961D02*
X13285714Y-12407200D01*
X13285714Y-12407200D02*
X13380952Y-12454819D01*
X13380952Y-12454819D02*
X13476190Y-12454819D01*
X14571429Y-12454819D02*
X14571429Y-11454819D01*
X14571429Y-11454819D02*
X14809524Y-11454819D01*
X14809524Y-11454819D02*
X14952381Y-11502438D01*
X14952381Y-11502438D02*
X15047619Y-11597676D01*
X15047619Y-11597676D02*
X15095238Y-11692914D01*
X15095238Y-11692914D02*
X15142857Y-11883390D01*
X15142857Y-11883390D02*
X15142857Y-12026247D01*
X15142857Y-12026247D02*
X15095238Y-12216723D01*
X15095238Y-12216723D02*
X15047619Y-12311961D01*
X15047619Y-12311961D02*
X14952381Y-12407200D01*
X14952381Y-12407200D02*
X14809524Y-12454819D01*
X14809524Y-12454819D02*
X14571429Y-12454819D01*
X15952381Y-12407200D02*
X15857143Y-12454819D01*
X15857143Y-12454819D02*
X15666667Y-12454819D01*
X15666667Y-12454819D02*
X15571429Y-12407200D01*
X15571429Y-12407200D02*
X15523810Y-12311961D01*
X15523810Y-12311961D02*
X15523810Y-11931009D01*
X15523810Y-11931009D02*
X15571429Y-11835771D01*
X15571429Y-11835771D02*
X15666667Y-11788152D01*
X15666667Y-11788152D02*
X15857143Y-11788152D01*
X15857143Y-11788152D02*
X15952381Y-11835771D01*
X15952381Y-11835771D02*
X16000000Y-11931009D01*
X16000000Y-11931009D02*
X16000000Y-12026247D01*
X16000000Y-12026247D02*
X15523810Y-12121485D01*
X16333334Y-11788152D02*
X16571429Y-12454819D01*
X16571429Y-12454819D02*
X16809524Y-11788152D01*
X17190477Y-12454819D02*
X17190477Y-11454819D01*
X17761905Y-12454819D02*
X17333334Y-11883390D01*
X17761905Y-11454819D02*
X17190477Y-12026247D01*
X18190477Y-12454819D02*
X18190477Y-11788152D01*
X18190477Y-11454819D02*
X18142858Y-11502438D01*
X18142858Y-11502438D02*
X18190477Y-11550057D01*
X18190477Y-11550057D02*
X18238096Y-11502438D01*
X18238096Y-11502438D02*
X18190477Y-11454819D01*
X18190477Y-11454819D02*
X18190477Y-11550057D01*
X18523810Y-11788152D02*
X18904762Y-11788152D01*
X18666667Y-11454819D02*
X18666667Y-12311961D01*
X18666667Y-12311961D02*
X18714286Y-12407200D01*
X18714286Y-12407200D02*
X18809524Y-12454819D01*
X18809524Y-12454819D02*
X18904762Y-12454819D01*
X19904763Y-11788152D02*
X20142858Y-12454819D01*
X20142858Y-12454819D02*
X20380953Y-11788152D01*
X20952382Y-11454819D02*
X21047620Y-11454819D01*
X21047620Y-11454819D02*
X21142858Y-11502438D01*
X21142858Y-11502438D02*
X21190477Y-11550057D01*
X21190477Y-11550057D02*
X21238096Y-11645295D01*
X21238096Y-11645295D02*
X21285715Y-11835771D01*
X21285715Y-11835771D02*
X21285715Y-12073866D01*
X21285715Y-12073866D02*
X21238096Y-12264342D01*
X21238096Y-12264342D02*
X21190477Y-12359580D01*
X21190477Y-12359580D02*
X21142858Y-12407200D01*
X21142858Y-12407200D02*
X21047620Y-12454819D01*
X21047620Y-12454819D02*
X20952382Y-12454819D01*
X20952382Y-12454819D02*
X20857144Y-12407200D01*
X20857144Y-12407200D02*
X20809525Y-12359580D01*
X20809525Y-12359580D02*
X20761906Y-12264342D01*
X20761906Y-12264342D02*
X20714287Y-12073866D01*
X20714287Y-12073866D02*
X20714287Y-11835771D01*
X20714287Y-11835771D02*
X20761906Y-11645295D01*
X20761906Y-11645295D02*
X20809525Y-11550057D01*
X20809525Y-11550057D02*
X20857144Y-11502438D01*
X20857144Y-11502438D02*
X20952382Y-11454819D01*
X21714287Y-12359580D02*
X21761906Y-12407200D01*
X21761906Y-12407200D02*
X21714287Y-12454819D01*
X21714287Y-12454819D02*
X21666668Y-12407200D01*
X21666668Y-12407200D02*
X21714287Y-12359580D01*
X21714287Y-12359580D02*
X21714287Y-12454819D01*
X22714286Y-12454819D02*
X22142858Y-12454819D01*
X22428572Y-12454819D02*
X22428572Y-11454819D01*
X22428572Y-11454819D02*
X22333334Y-11597676D01*
X22333334Y-11597676D02*
X22238096Y-11692914D01*
X22238096Y-11692914D02*
X22142858Y-11740533D01*
D11*
X7819046Y-13063855D02*
X8314284Y-13063855D01*
X8314284Y-13063855D02*
X8047618Y-13368617D01*
X8047618Y-13368617D02*
X8161903Y-13368617D01*
X8161903Y-13368617D02*
X8238094Y-13406712D01*
X8238094Y-13406712D02*
X8276189Y-13444807D01*
X8276189Y-13444807D02*
X8314284Y-13520998D01*
X8314284Y-13520998D02*
X8314284Y-13711474D01*
X8314284Y-13711474D02*
X8276189Y-13787664D01*
X8276189Y-13787664D02*
X8238094Y-13825760D01*
X8238094Y-13825760D02*
X8161903Y-13863855D01*
X8161903Y-13863855D02*
X7933332Y-13863855D01*
X7933332Y-13863855D02*
X7857141Y-13825760D01*
X7857141Y-13825760D02*
X7819046Y-13787664D01*
X8809523Y-13063855D02*
X8885713Y-13063855D01*
X8885713Y-13063855D02*
X8961904Y-13101950D01*
X8961904Y-13101950D02*
X8999999Y-13140045D01*
X8999999Y-13140045D02*
X9038094Y-13216236D01*
X9038094Y-13216236D02*
X9076189Y-13368617D01*
X9076189Y-13368617D02*
X9076189Y-13559093D01*
X9076189Y-13559093D02*
X9038094Y-13711474D01*
X9038094Y-13711474D02*
X8999999Y-13787664D01*
X8999999Y-13787664D02*
X8961904Y-13825760D01*
X8961904Y-13825760D02*
X8885713Y-13863855D01*
X8885713Y-13863855D02*
X8809523Y-13863855D01*
X8809523Y-13863855D02*
X8733332Y-13825760D01*
X8733332Y-13825760D02*
X8695237Y-13787664D01*
X8695237Y-13787664D02*
X8657142Y-13711474D01*
X8657142Y-13711474D02*
X8619046Y-13559093D01*
X8619046Y-13559093D02*
X8619046Y-13368617D01*
X8619046Y-13368617D02*
X8657142Y-13216236D01*
X8657142Y-13216236D02*
X8695237Y-13140045D01*
X8695237Y-13140045D02*
X8733332Y-13101950D01*
X8733332Y-13101950D02*
X8809523Y-13063855D01*
X9342856Y-13863855D02*
X9761904Y-13330521D01*
X9342856Y-13330521D02*
X9761904Y-13863855D01*
X10028570Y-13140045D02*
X10066666Y-13101950D01*
X10066666Y-13101950D02*
X10142856Y-13063855D01*
X10142856Y-13063855D02*
X10333332Y-13063855D01*
X10333332Y-13063855D02*
X10409523Y-13101950D01*
X10409523Y-13101950D02*
X10447618Y-13140045D01*
X10447618Y-13140045D02*
X10485713Y-13216236D01*
X10485713Y-13216236D02*
X10485713Y-13292426D01*
X10485713Y-13292426D02*
X10447618Y-13406712D01*
X10447618Y-13406712D02*
X9990475Y-13863855D01*
X9990475Y-13863855D02*
X10485713Y-13863855D01*
X10980952Y-13063855D02*
X11057142Y-13063855D01*
X11057142Y-13063855D02*
X11133333Y-13101950D01*
X11133333Y-13101950D02*
X11171428Y-13140045D01*
X11171428Y-13140045D02*
X11209523Y-13216236D01*
X11209523Y-13216236D02*
X11247618Y-13368617D01*
X11247618Y-13368617D02*
X11247618Y-13559093D01*
X11247618Y-13559093D02*
X11209523Y-13711474D01*
X11209523Y-13711474D02*
X11171428Y-13787664D01*
X11171428Y-13787664D02*
X11133333Y-13825760D01*
X11133333Y-13825760D02*
X11057142Y-13863855D01*
X11057142Y-13863855D02*
X10980952Y-13863855D01*
X10980952Y-13863855D02*
X10904761Y-13825760D01*
X10904761Y-13825760D02*
X10866666Y-13787664D01*
X10866666Y-13787664D02*
X10828571Y-13711474D01*
X10828571Y-13711474D02*
X10790475Y-13559093D01*
X10790475Y-13559093D02*
X10790475Y-13368617D01*
X10790475Y-13368617D02*
X10828571Y-13216236D01*
X10828571Y-13216236D02*
X10866666Y-13140045D01*
X10866666Y-13140045D02*
X10904761Y-13101950D01*
X10904761Y-13101950D02*
X10980952Y-13063855D01*
X11590476Y-13863855D02*
X11590476Y-13330521D01*
X11590476Y-13406712D02*
X11628571Y-13368617D01*
X11628571Y-13368617D02*
X11704761Y-13330521D01*
X11704761Y-13330521D02*
X11819047Y-13330521D01*
X11819047Y-13330521D02*
X11895238Y-13368617D01*
X11895238Y-13368617D02*
X11933333Y-13444807D01*
X11933333Y-13444807D02*
X11933333Y-13863855D01*
X11933333Y-13444807D02*
X11971428Y-13368617D01*
X11971428Y-13368617D02*
X12047619Y-13330521D01*
X12047619Y-13330521D02*
X12161904Y-13330521D01*
X12161904Y-13330521D02*
X12238095Y-13368617D01*
X12238095Y-13368617D02*
X12276190Y-13444807D01*
X12276190Y-13444807D02*
X12276190Y-13863855D01*
X12657143Y-13863855D02*
X12657143Y-13330521D01*
X12657143Y-13406712D02*
X12695238Y-13368617D01*
X12695238Y-13368617D02*
X12771428Y-13330521D01*
X12771428Y-13330521D02*
X12885714Y-13330521D01*
X12885714Y-13330521D02*
X12961905Y-13368617D01*
X12961905Y-13368617D02*
X13000000Y-13444807D01*
X13000000Y-13444807D02*
X13000000Y-13863855D01*
X13000000Y-13444807D02*
X13038095Y-13368617D01*
X13038095Y-13368617D02*
X13114286Y-13330521D01*
X13114286Y-13330521D02*
X13228571Y-13330521D01*
X13228571Y-13330521D02*
X13304762Y-13368617D01*
X13304762Y-13368617D02*
X13342857Y-13444807D01*
X13342857Y-13444807D02*
X13342857Y-13863855D01*
X14676191Y-13330521D02*
X14676191Y-13863855D01*
X14485715Y-13025760D02*
X14295238Y-13597188D01*
X14295238Y-13597188D02*
X14790477Y-13597188D01*
X15476191Y-13863855D02*
X15095239Y-13863855D01*
X15095239Y-13863855D02*
X15095239Y-13063855D01*
X16352382Y-13444807D02*
X16619048Y-13444807D01*
X16733334Y-13863855D02*
X16352382Y-13863855D01*
X16352382Y-13863855D02*
X16352382Y-13063855D01*
X16352382Y-13063855D02*
X16733334Y-13063855D01*
X17076192Y-13863855D02*
X17076192Y-13063855D01*
X17076192Y-13063855D02*
X17533335Y-13863855D01*
X17533335Y-13863855D02*
X17533335Y-13063855D01*
X17914287Y-13863855D02*
X17914287Y-13063855D01*
X18714286Y-13101950D02*
X18638096Y-13063855D01*
X18638096Y-13063855D02*
X18523810Y-13063855D01*
X18523810Y-13063855D02*
X18409524Y-13101950D01*
X18409524Y-13101950D02*
X18333334Y-13178140D01*
X18333334Y-13178140D02*
X18295239Y-13254331D01*
X18295239Y-13254331D02*
X18257143Y-13406712D01*
X18257143Y-13406712D02*
X18257143Y-13520998D01*
X18257143Y-13520998D02*
X18295239Y-13673379D01*
X18295239Y-13673379D02*
X18333334Y-13749569D01*
X18333334Y-13749569D02*
X18409524Y-13825760D01*
X18409524Y-13825760D02*
X18523810Y-13863855D01*
X18523810Y-13863855D02*
X18600001Y-13863855D01*
X18600001Y-13863855D02*
X18714286Y-13825760D01*
X18714286Y-13825760D02*
X18752382Y-13787664D01*
X18752382Y-13787664D02*
X18752382Y-13520998D01*
X18752382Y-13520998D02*
X18600001Y-13520998D01*
X20161906Y-13863855D02*
X19895239Y-13482902D01*
X19704763Y-13863855D02*
X19704763Y-13063855D01*
X19704763Y-13063855D02*
X20009525Y-13063855D01*
X20009525Y-13063855D02*
X20085715Y-13101950D01*
X20085715Y-13101950D02*
X20123810Y-13140045D01*
X20123810Y-13140045D02*
X20161906Y-13216236D01*
X20161906Y-13216236D02*
X20161906Y-13330521D01*
X20161906Y-13330521D02*
X20123810Y-13406712D01*
X20123810Y-13406712D02*
X20085715Y-13444807D01*
X20085715Y-13444807D02*
X20009525Y-13482902D01*
X20009525Y-13482902D02*
X19704763Y-13482902D01*
X20809525Y-13825760D02*
X20733334Y-13863855D01*
X20733334Y-13863855D02*
X20580953Y-13863855D01*
X20580953Y-13863855D02*
X20504763Y-13825760D01*
X20504763Y-13825760D02*
X20466667Y-13749569D01*
X20466667Y-13749569D02*
X20466667Y-13444807D01*
X20466667Y-13444807D02*
X20504763Y-13368617D01*
X20504763Y-13368617D02*
X20580953Y-13330521D01*
X20580953Y-13330521D02*
X20733334Y-13330521D01*
X20733334Y-13330521D02*
X20809525Y-13368617D01*
X20809525Y-13368617D02*
X20847620Y-13444807D01*
X20847620Y-13444807D02*
X20847620Y-13520998D01*
X20847620Y-13520998D02*
X20466667Y-13597188D01*
X21114286Y-13330521D02*
X21304762Y-13863855D01*
X21304762Y-13863855D02*
X21495239Y-13330521D01*
X21761905Y-13635283D02*
X22142858Y-13635283D01*
X21685715Y-13863855D02*
X21952382Y-13063855D01*
X21952382Y-13063855D02*
X22219048Y-13863855D01*
D10*
X11238095Y-9454819D02*
X11238095Y-10264342D01*
X11238095Y-10264342D02*
X11285714Y-10359580D01*
X11285714Y-10359580D02*
X11333333Y-10407200D01*
X11333333Y-10407200D02*
X11428571Y-10454819D01*
X11428571Y-10454819D02*
X11619047Y-10454819D01*
X11619047Y-10454819D02*
X11714285Y-10407200D01*
X11714285Y-10407200D02*
X11761904Y-10359580D01*
X11761904Y-10359580D02*
X11809523Y-10264342D01*
X11809523Y-10264342D02*
X11809523Y-9454819D01*
X12809523Y-10454819D02*
X12238095Y-10454819D01*
X12523809Y-10454819D02*
X12523809Y-9454819D01*
X12523809Y-9454819D02*
X12428571Y-9597676D01*
X12428571Y-9597676D02*
X12333333Y-9692914D01*
X12333333Y-9692914D02*
X12238095Y-9740533D01*
X3238095Y-9454819D02*
X3238095Y-10264342D01*
X3238095Y-10264342D02*
X3285714Y-10359580D01*
X3285714Y-10359580D02*
X3333333Y-10407200D01*
X3333333Y-10407200D02*
X3428571Y-10454819D01*
X3428571Y-10454819D02*
X3619047Y-10454819D01*
X3619047Y-10454819D02*
X3714285Y-10407200D01*
X3714285Y-10407200D02*
X3761904Y-10359580D01*
X3761904Y-10359580D02*
X3809523Y-10264342D01*
X3809523Y-10264342D02*
X3809523Y-9454819D01*
X4238095Y-9550057D02*
X4285714Y-9502438D01*
X4285714Y-9502438D02*
X4380952Y-9454819D01*
X4380952Y-9454819D02*
X4619047Y-9454819D01*
X4619047Y-9454819D02*
X4714285Y-9502438D01*
X4714285Y-9502438D02*
X4761904Y-9550057D01*
X4761904Y-9550057D02*
X4809523Y-9645295D01*
X4809523Y-9645295D02*
X4809523Y-9740533D01*
X4809523Y-9740533D02*
X4761904Y-9883390D01*
X4761904Y-9883390D02*
X4190476Y-10454819D01*
X4190476Y-10454819D02*
X4809523Y-10454819D01*
X23238095Y-9454819D02*
X23238095Y-10264342D01*
X23238095Y-10264342D02*
X23285714Y-10359580D01*
X23285714Y-10359580D02*
X23333333Y-10407200D01*
X23333333Y-10407200D02*
X23428571Y-10454819D01*
X23428571Y-10454819D02*
X23619047Y-10454819D01*
X23619047Y-10454819D02*
X23714285Y-10407200D01*
X23714285Y-10407200D02*
X23761904Y-10359580D01*
X23761904Y-10359580D02*
X23809523Y-10264342D01*
X23809523Y-10264342D02*
X23809523Y-9454819D01*
X24190476Y-9454819D02*
X24809523Y-9454819D01*
X24809523Y-9454819D02*
X24476190Y-9835771D01*
X24476190Y-9835771D02*
X24619047Y-9835771D01*
X24619047Y-9835771D02*
X24714285Y-9883390D01*
X24714285Y-9883390D02*
X24761904Y-9931009D01*
X24761904Y-9931009D02*
X24809523Y-10026247D01*
X24809523Y-10026247D02*
X24809523Y-10264342D01*
X24809523Y-10264342D02*
X24761904Y-10359580D01*
X24761904Y-10359580D02*
X24714285Y-10407200D01*
X24714285Y-10407200D02*
X24619047Y-10454819D01*
X24619047Y-10454819D02*
X24333333Y-10454819D01*
X24333333Y-10454819D02*
X24238095Y-10407200D01*
X24238095Y-10407200D02*
X24190476Y-10359580D01*
X17238095Y-11454819D02*
X17238095Y-12264342D01*
X17238095Y-12264342D02*
X17285714Y-12359580D01*
X17285714Y-12359580D02*
X17333333Y-12407200D01*
X17333333Y-12407200D02*
X17428571Y-12454819D01*
X17428571Y-12454819D02*
X17619047Y-12454819D01*
X17619047Y-12454819D02*
X17714285Y-12407200D01*
X17714285Y-12407200D02*
X17761904Y-12359580D01*
X17761904Y-12359580D02*
X17809523Y-12264342D01*
X17809523Y-12264342D02*
X17809523Y-11454819D01*
X18714285Y-11788152D02*
X18714285Y-12454819D01*
X18476190Y-11407200D02*
X18238095Y-12121485D01*
X18238095Y-12121485D02*
X18857142Y-12121485D01*
X17238095Y-7454819D02*
X17238095Y-8264342D01*
X17238095Y-8264342D02*
X17285714Y-8359580D01*
X17285714Y-8359580D02*
X17333333Y-8407200D01*
X17333333Y-8407200D02*
X17428571Y-8454819D01*
X17428571Y-8454819D02*
X17619047Y-8454819D01*
X17619047Y-8454819D02*
X17714285Y-8407200D01*
X17714285Y-8407200D02*
X17761904Y-8359580D01*
X17761904Y-8359580D02*
X17809523Y-8264342D01*
X17809523Y-8264342D02*
X17809523Y-7454819D01*
X18761904Y-7454819D02*
X18285714Y-7454819D01*
X18285714Y-7454819D02*
X18238095Y-7931009D01*
X18238095Y-7931009D02*
X18285714Y-7883390D01*
X18285714Y-7883390D02*
X18380952Y-7835771D01*
X18380952Y-7835771D02*
X18619047Y-7835771D01*
X18619047Y-7835771D02*
X18714285Y-7883390D01*
X18714285Y-7883390D02*
X18761904Y-7931009D01*
X18761904Y-7931009D02*
X18809523Y-8026247D01*
X18809523Y-8026247D02*
X18809523Y-8264342D01*
X18809523Y-8264342D02*
X18761904Y-8359580D01*
X18761904Y-8359580D02*
X18714285Y-8407200D01*
X18714285Y-8407200D02*
X18619047Y-8454819D01*
X18619047Y-8454819D02*
X18380952Y-8454819D01*
X18380952Y-8454819D02*
X18285714Y-8407200D01*
X18285714Y-8407200D02*
X18238095Y-8359580D01*
X21238095Y-13454819D02*
X21238095Y-14264342D01*
X21238095Y-14264342D02*
X21285714Y-14359580D01*
X21285714Y-14359580D02*
X21333333Y-14407200D01*
X21333333Y-14407200D02*
X21428571Y-14454819D01*
X21428571Y-14454819D02*
X21619047Y-14454819D01*
X21619047Y-14454819D02*
X21714285Y-14407200D01*
X21714285Y-14407200D02*
X21761904Y-14359580D01*
X21761904Y-14359580D02*
X21809523Y-14264342D01*
X21809523Y-14264342D02*
X21809523Y-13454819D01*
X22714285Y-13454819D02*
X22523809Y-13454819D01*
X22523809Y-13454819D02*
X22428571Y-13502438D01*
X22428571Y-13502438D02*
X22380952Y-13550057D01*
X22380952Y-13550057D02*
X22285714Y-13692914D01*
X22285714Y-13692914D02*
X22238095Y-13883390D01*
X22238095Y-13883390D02*
X22238095Y-14264342D01*
X22238095Y-14264342D02*
X22285714Y-14359580D01*
X22285714Y-14359580D02*
X22333333Y-14407200D01*
X22333333Y-14407200D02*
X22428571Y-14454819D01*
X22428571Y-14454819D02*
X22619047Y-14454819D01*
X22619047Y-14454819D02*
X22714285Y-14407200D01*
X22714285Y-14407200D02*
X22761904Y-14359580D01*
X22761904Y-14359580D02*
X22809523Y-14264342D01*
X22809523Y-14264342D02*
X22809523Y-14026247D01*
X22809523Y-14026247D02*
X22761904Y-13931009D01*
X22761904Y-13931009D02*
X22714285Y-13883390D01*
X22714285Y-13883390D02*
X22619047Y-13835771D01*
X22619047Y-13835771D02*
X22428571Y-13835771D01*
X22428571Y-13835771D02*
X22333333Y-13883390D01*
X22333333Y-13883390D02*
X22285714Y-13931009D01*
X22285714Y-13931009D02*
X22238095Y-14026247D01*
X19833333Y-8454819D02*
X19500000Y-7978628D01*
X19261905Y-8454819D02*
X19261905Y-7454819D01*
X19261905Y-7454819D02*
X19642857Y-7454819D01*
X19642857Y-7454819D02*
X19738095Y-7502438D01*
X19738095Y-7502438D02*
X19785714Y-7550057D01*
X19785714Y-7550057D02*
X19833333Y-7645295D01*
X19833333Y-7645295D02*
X19833333Y-7788152D01*
X19833333Y-7788152D02*
X19785714Y-7883390D01*
X19785714Y-7883390D02*
X19738095Y-7931009D01*
X19738095Y-7931009D02*
X19642857Y-7978628D01*
X19642857Y-7978628D02*
X19261905Y-7978628D01*
X20785714Y-8454819D02*
X20214286Y-8454819D01*
X20500000Y-8454819D02*
X20500000Y-7454819D01*
X20500000Y-7454819D02*
X20404762Y-7597676D01*
X20404762Y-7597676D02*
X20309524Y-7692914D01*
X20309524Y-7692914D02*
X20214286Y-7740533D01*
X20833333Y-8454819D02*
X20500000Y-7978628D01*
X20261905Y-8454819D02*
X20261905Y-7454819D01*
X20261905Y-7454819D02*
X20642857Y-7454819D01*
X20642857Y-7454819D02*
X20738095Y-7502438D01*
X20738095Y-7502438D02*
X20785714Y-7550057D01*
X20785714Y-7550057D02*
X20833333Y-7645295D01*
X20833333Y-7645295D02*
X20833333Y-7788152D01*
X20833333Y-7788152D02*
X20785714Y-7883390D01*
X20785714Y-7883390D02*
X20738095Y-7931009D01*
X20738095Y-7931009D02*
X20642857Y-7978628D01*
X20642857Y-7978628D02*
X20261905Y-7978628D01*
X21214286Y-7550057D02*
X21261905Y-7502438D01*
X21261905Y-7502438D02*
X21357143Y-7454819D01*
X21357143Y-7454819D02*
X21595238Y-7454819D01*
X21595238Y-7454819D02*
X21690476Y-7502438D01*
X21690476Y-7502438D02*
X21738095Y-7550057D01*
X21738095Y-7550057D02*
X21785714Y-7645295D01*
X21785714Y-7645295D02*
X21785714Y-7740533D01*
X21785714Y-7740533D02*
X21738095Y-7883390D01*
X21738095Y-7883390D02*
X21166667Y-8454819D01*
X21166667Y-8454819D02*
X21785714Y-8454819D01*
X3833333Y-5454819D02*
X3500000Y-4978628D01*
X3261905Y-5454819D02*
X3261905Y-4454819D01*
X3261905Y-4454819D02*
X3642857Y-4454819D01*
X3642857Y-4454819D02*
X3738095Y-4502438D01*
X3738095Y-4502438D02*
X3785714Y-4550057D01*
X3785714Y-4550057D02*
X3833333Y-4645295D01*
X3833333Y-4645295D02*
X3833333Y-4788152D01*
X3833333Y-4788152D02*
X3785714Y-4883390D01*
X3785714Y-4883390D02*
X3738095Y-4931009D01*
X3738095Y-4931009D02*
X3642857Y-4978628D01*
X3642857Y-4978628D02*
X3261905Y-4978628D01*
X4166667Y-4454819D02*
X4785714Y-4454819D01*
X4785714Y-4454819D02*
X4452381Y-4835771D01*
X4452381Y-4835771D02*
X4595238Y-4835771D01*
X4595238Y-4835771D02*
X4690476Y-4883390D01*
X4690476Y-4883390D02*
X4738095Y-4931009D01*
X4738095Y-4931009D02*
X4785714Y-5026247D01*
X4785714Y-5026247D02*
X4785714Y-5264342D01*
X4785714Y-5264342D02*
X4738095Y-5359580D01*
X4738095Y-5359580D02*
X4690476Y-5407200D01*
X4690476Y-5407200D02*
X4595238Y-5454819D01*
X4595238Y-5454819D02*
X4309524Y-5454819D01*
X4309524Y-5454819D02*
X4214286Y-5407200D01*
X4214286Y-5407200D02*
X4166667Y-5359580D01*
X4833333Y-5454819D02*
X4500000Y-4978628D01*
X4261905Y-5454819D02*
X4261905Y-4454819D01*
X4261905Y-4454819D02*
X4642857Y-4454819D01*
X4642857Y-4454819D02*
X4738095Y-4502438D01*
X4738095Y-4502438D02*
X4785714Y-4550057D01*
X4785714Y-4550057D02*
X4833333Y-4645295D01*
X4833333Y-4645295D02*
X4833333Y-4788152D01*
X4833333Y-4788152D02*
X4785714Y-4883390D01*
X4785714Y-4883390D02*
X4738095Y-4931009D01*
X4738095Y-4931009D02*
X4642857Y-4978628D01*
X4642857Y-4978628D02*
X4261905Y-4978628D01*
X5690476Y-4788152D02*
X5690476Y-5454819D01*
X5452381Y-4407200D02*
X5214286Y-5121485D01*
X5214286Y-5121485D02*
X5833333Y-5121485D01*
X3833333Y-8454819D02*
X3500000Y-7978628D01*
X3261905Y-8454819D02*
X3261905Y-7454819D01*
X3261905Y-7454819D02*
X3642857Y-7454819D01*
X3642857Y-7454819D02*
X3738095Y-7502438D01*
X3738095Y-7502438D02*
X3785714Y-7550057D01*
X3785714Y-7550057D02*
X3833333Y-7645295D01*
X3833333Y-7645295D02*
X3833333Y-7788152D01*
X3833333Y-7788152D02*
X3785714Y-7883390D01*
X3785714Y-7883390D02*
X3738095Y-7931009D01*
X3738095Y-7931009D02*
X3642857Y-7978628D01*
X3642857Y-7978628D02*
X3261905Y-7978628D01*
X4738095Y-7454819D02*
X4261905Y-7454819D01*
X4261905Y-7454819D02*
X4214286Y-7931009D01*
X4214286Y-7931009D02*
X4261905Y-7883390D01*
X4261905Y-7883390D02*
X4357143Y-7835771D01*
X4357143Y-7835771D02*
X4595238Y-7835771D01*
X4595238Y-7835771D02*
X4690476Y-7883390D01*
X4690476Y-7883390D02*
X4738095Y-7931009D01*
X4738095Y-7931009D02*
X4785714Y-8026247D01*
X4785714Y-8026247D02*
X4785714Y-8264342D01*
X4785714Y-8264342D02*
X4738095Y-8359580D01*
X4738095Y-8359580D02*
X4690476Y-8407200D01*
X4690476Y-8407200D02*
X4595238Y-8454819D01*
X4595238Y-8454819D02*
X4357143Y-8454819D01*
X4357143Y-8454819D02*
X4261905Y-8407200D01*
X4261905Y-8407200D02*
X4214286Y-8359580D01*
X4833333Y-8454819D02*
X4500000Y-7978628D01*
X4261905Y-8454819D02*
X4261905Y-7454819D01*
X4261905Y-7454819D02*
X4642857Y-7454819D01*
X4642857Y-7454819D02*
X4738095Y-7502438D01*
X4738095Y-7502438D02*
X4785714Y-7550057D01*
X4785714Y-7550057D02*
X4833333Y-7645295D01*
X4833333Y-7645295D02*
X4833333Y-7788152D01*
X4833333Y-7788152D02*
X4785714Y-7883390D01*
X4785714Y-7883390D02*
X4738095Y-7931009D01*
X4738095Y-7931009D02*
X4642857Y-7978628D01*
X4642857Y-7978628D02*
X4261905Y-7978628D01*
X5690476Y-7454819D02*
X5500000Y-7454819D01*
X5500000Y-7454819D02*
X5404762Y-7502438D01*
X5404762Y-7502438D02*
X5357143Y-7550057D01*
X5357143Y-7550057D02*
X5261905Y-7692914D01*
X5261905Y-7692914D02*
X5214286Y-7883390D01*
X5214286Y-7883390D02*
X5214286Y-8264342D01*
X5214286Y-8264342D02*
X5261905Y-8359580D01*
X5261905Y-8359580D02*
X5309524Y-8407200D01*
X5309524Y-8407200D02*
X5404762Y-8454819D01*
X5404762Y-8454819D02*
X5595238Y-8454819D01*
X5595238Y-8454819D02*
X5690476Y-8407200D01*
X5690476Y-8407200D02*
X5738095Y-8359580D01*
X5738095Y-8359580D02*
X5785714Y-8264342D01*
X5785714Y-8264342D02*
X5785714Y-8026247D01*
X5785714Y-8026247D02*
X5738095Y-7931009D01*
X5738095Y-7931009D02*
X5690476Y-7883390D01*
X5690476Y-7883390D02*
X5595238Y-7835771D01*
X5595238Y-7835771D02*
X5404762Y-7835771D01*
X5404762Y-7835771D02*
X5309524Y-7883390D01*
X5309524Y-7883390D02*
X5261905Y-7931009D01*
X5261905Y-7931009D02*
X5214286Y-8026247D01*
X5833333Y-8454819D02*
X5500000Y-7978628D01*
X5261905Y-8454819D02*
X5261905Y-7454819D01*
X5261905Y-7454819D02*
X5642857Y-7454819D01*
X5642857Y-7454819D02*
X5738095Y-7502438D01*
X5738095Y-7502438D02*
X5785714Y-7550057D01*
X5785714Y-7550057D02*
X5833333Y-7645295D01*
X5833333Y-7645295D02*
X5833333Y-7788152D01*
X5833333Y-7788152D02*
X5785714Y-7883390D01*
X5785714Y-7883390D02*
X5738095Y-7931009D01*
X5738095Y-7931009D02*
X5642857Y-7978628D01*
X5642857Y-7978628D02*
X5261905Y-7978628D01*
X6166667Y-7454819D02*
X6833333Y-7454819D01*
X6833333Y-7454819D02*
X6404762Y-8454819D01*
X6833333Y-8454819D02*
X6500000Y-7978628D01*
X6261905Y-8454819D02*
X6261905Y-7454819D01*
X6261905Y-7454819D02*
X6642857Y-7454819D01*
X6642857Y-7454819D02*
X6738095Y-7502438D01*
X6738095Y-7502438D02*
X6785714Y-7550057D01*
X6785714Y-7550057D02*
X6833333Y-7645295D01*
X6833333Y-7645295D02*
X6833333Y-7788152D01*
X6833333Y-7788152D02*
X6785714Y-7883390D01*
X6785714Y-7883390D02*
X6738095Y-7931009D01*
X6738095Y-7931009D02*
X6642857Y-7978628D01*
X6642857Y-7978628D02*
X6261905Y-7978628D01*
X7404762Y-7883390D02*
X7309524Y-7835771D01*
X7309524Y-7835771D02*
X7261905Y-7788152D01*
X7261905Y-7788152D02*
X7214286Y-7692914D01*
X7214286Y-7692914D02*
X7214286Y-7645295D01*
X7214286Y-7645295D02*
X7261905Y-7550057D01*
X7261905Y-7550057D02*
X7309524Y-7502438D01*
X7309524Y-7502438D02*
X7404762Y-7454819D01*
X7404762Y-7454819D02*
X7595238Y-7454819D01*
X7595238Y-7454819D02*
X7690476Y-7502438D01*
X7690476Y-7502438D02*
X7738095Y-7550057D01*
X7738095Y-7550057D02*
X7785714Y-7645295D01*
X7785714Y-7645295D02*
X7785714Y-7692914D01*
X7785714Y-7692914D02*
X7738095Y-7788152D01*
X7738095Y-7788152D02*
X7690476Y-7835771D01*
X7690476Y-7835771D02*
X7595238Y-7883390D01*
X7595238Y-7883390D02*
X7404762Y-7883390D01*
X7404762Y-7883390D02*
X7309524Y-7931009D01*
X7309524Y-7931009D02*
X7261905Y-7978628D01*
X7261905Y-7978628D02*
X7214286Y-8073866D01*
X7214286Y-8073866D02*
X7214286Y-8264342D01*
X7214286Y-8264342D02*
X7261905Y-8359580D01*
X7261905Y-8359580D02*
X7309524Y-8407200D01*
X7309524Y-8407200D02*
X7404762Y-8454819D01*
X7404762Y-8454819D02*
X7595238Y-8454819D01*
X7595238Y-8454819D02*
X7690476Y-8407200D01*
X7690476Y-8407200D02*
X7738095Y-8359580D01*
X7738095Y-8359580D02*
X7785714Y-8264342D01*
X7785714Y-8264342D02*
X7785714Y-8073866D01*
X7785714Y-8073866D02*
X7738095Y-7978628D01*
X7738095Y-7978628D02*
X7690476Y-7931009D01*
X7690476Y-7931009D02*
X7595238Y-7883390D01*
X3833333Y-6454819D02*
X3500000Y-5978628D01*
X3261905Y-6454819D02*
X3261905Y-5454819D01*
X3261905Y-5454819D02*
X3642857Y-5454819D01*
X3642857Y-5454819D02*
X3738095Y-5502438D01*
X3738095Y-5502438D02*
X3785714Y-5550057D01*
X3785714Y-5550057D02*
X3833333Y-5645295D01*
X3833333Y-5645295D02*
X3833333Y-5788152D01*
X3833333Y-5788152D02*
X3785714Y-5883390D01*
X3785714Y-5883390D02*
X3738095Y-5931009D01*
X3738095Y-5931009D02*
X3642857Y-5978628D01*
X3642857Y-5978628D02*
X3261905Y-5978628D01*
X4309524Y-6454819D02*
X4500000Y-6454819D01*
X4500000Y-6454819D02*
X4595238Y-6407200D01*
X4595238Y-6407200D02*
X4642857Y-6359580D01*
X4642857Y-6359580D02*
X4738095Y-6216723D01*
X4738095Y-6216723D02*
X4785714Y-6026247D01*
X4785714Y-6026247D02*
X4785714Y-5645295D01*
X4785714Y-5645295D02*
X4738095Y-5550057D01*
X4738095Y-5550057D02*
X4690476Y-5502438D01*
X4690476Y-5502438D02*
X4595238Y-5454819D01*
X4595238Y-5454819D02*
X4404762Y-5454819D01*
X4404762Y-5454819D02*
X4309524Y-5502438D01*
X4309524Y-5502438D02*
X4261905Y-5550057D01*
X4261905Y-5550057D02*
X4214286Y-5645295D01*
X4214286Y-5645295D02*
X4214286Y-5883390D01*
X4214286Y-5883390D02*
X4261905Y-5978628D01*
X4261905Y-5978628D02*
X4309524Y-6026247D01*
X4309524Y-6026247D02*
X4404762Y-6073866D01*
X4404762Y-6073866D02*
X4595238Y-6073866D01*
X4595238Y-6073866D02*
X4690476Y-6026247D01*
X4690476Y-6026247D02*
X4738095Y-5978628D01*
X4738095Y-5978628D02*
X4785714Y-5883390D01*
X4357142Y-6454819D02*
X4023809Y-5978628D01*
X3785714Y-6454819D02*
X3785714Y-5454819D01*
X3785714Y-5454819D02*
X4166666Y-5454819D01*
X4166666Y-5454819D02*
X4261904Y-5502438D01*
X4261904Y-5502438D02*
X4309523Y-5550057D01*
X4309523Y-5550057D02*
X4357142Y-5645295D01*
X4357142Y-5645295D02*
X4357142Y-5788152D01*
X4357142Y-5788152D02*
X4309523Y-5883390D01*
X4309523Y-5883390D02*
X4261904Y-5931009D01*
X4261904Y-5931009D02*
X4166666Y-5978628D01*
X4166666Y-5978628D02*
X3785714Y-5978628D01*
X5309523Y-6454819D02*
X4738095Y-6454819D01*
X5023809Y-6454819D02*
X5023809Y-5454819D01*
X5023809Y-5454819D02*
X4928571Y-5597676D01*
X4928571Y-5597676D02*
X4833333Y-5692914D01*
X4833333Y-5692914D02*
X4738095Y-5740533D01*
X5928571Y-5454819D02*
X6023809Y-5454819D01*
X6023809Y-5454819D02*
X6119047Y-5502438D01*
X6119047Y-5502438D02*
X6166666Y-5550057D01*
X6166666Y-5550057D02*
X6214285Y-5645295D01*
X6214285Y-5645295D02*
X6261904Y-5835771D01*
X6261904Y-5835771D02*
X6261904Y-6073866D01*
X6261904Y-6073866D02*
X6214285Y-6264342D01*
X6214285Y-6264342D02*
X6166666Y-6359580D01*
X6166666Y-6359580D02*
X6119047Y-6407200D01*
X6119047Y-6407200D02*
X6023809Y-6454819D01*
X6023809Y-6454819D02*
X5928571Y-6454819D01*
X5928571Y-6454819D02*
X5833333Y-6407200D01*
X5833333Y-6407200D02*
X5785714Y-6359580D01*
X5785714Y-6359580D02*
X5738095Y-6264342D01*
X5738095Y-6264342D02*
X5690476Y-6073866D01*
X5690476Y-6073866D02*
X5690476Y-5835771D01*
X5690476Y-5835771D02*
X5738095Y-5645295D01*
X5738095Y-5645295D02*
X5785714Y-5550057D01*
X5785714Y-5550057D02*
X5833333Y-5502438D01*
X5833333Y-5502438D02*
X5928571Y-5454819D01*
X9357142Y-15454819D02*
X9023809Y-14978628D01*
X8785714Y-15454819D02*
X8785714Y-14454819D01*
X8785714Y-14454819D02*
X9166666Y-14454819D01*
X9166666Y-14454819D02*
X9261904Y-14502438D01*
X9261904Y-14502438D02*
X9309523Y-14550057D01*
X9309523Y-14550057D02*
X9357142Y-14645295D01*
X9357142Y-14645295D02*
X9357142Y-14788152D01*
X9357142Y-14788152D02*
X9309523Y-14883390D01*
X9309523Y-14883390D02*
X9261904Y-14931009D01*
X9261904Y-14931009D02*
X9166666Y-14978628D01*
X9166666Y-14978628D02*
X8785714Y-14978628D01*
X10309523Y-15454819D02*
X9738095Y-15454819D01*
X10023809Y-15454819D02*
X10023809Y-14454819D01*
X10023809Y-14454819D02*
X9928571Y-14597676D01*
X9928571Y-14597676D02*
X9833333Y-14692914D01*
X9833333Y-14692914D02*
X9738095Y-14740533D01*
X11261904Y-15454819D02*
X10690476Y-15454819D01*
X10976190Y-15454819D02*
X10976190Y-14454819D01*
X10976190Y-14454819D02*
X10880952Y-14597676D01*
X10880952Y-14597676D02*
X10785714Y-14692914D01*
X10785714Y-14692914D02*
X10690476Y-14740533D01*
X10357142Y-15454819D02*
X10023809Y-14978628D01*
X9785714Y-15454819D02*
X9785714Y-14454819D01*
X9785714Y-14454819D02*
X10166666Y-14454819D01*
X10166666Y-14454819D02*
X10261904Y-14502438D01*
X10261904Y-14502438D02*
X10309523Y-14550057D01*
X10309523Y-14550057D02*
X10357142Y-14645295D01*
X10357142Y-14645295D02*
X10357142Y-14788152D01*
X10357142Y-14788152D02*
X10309523Y-14883390D01*
X10309523Y-14883390D02*
X10261904Y-14931009D01*
X10261904Y-14931009D02*
X10166666Y-14978628D01*
X10166666Y-14978628D02*
X9785714Y-14978628D01*
X11309523Y-15454819D02*
X10738095Y-15454819D01*
X11023809Y-15454819D02*
X11023809Y-14454819D01*
X11023809Y-14454819D02*
X10928571Y-14597676D01*
X10928571Y-14597676D02*
X10833333Y-14692914D01*
X10833333Y-14692914D02*
X10738095Y-14740533D01*
X11690476Y-14550057D02*
X11738095Y-14502438D01*
X11738095Y-14502438D02*
X11833333Y-14454819D01*
X11833333Y-14454819D02*
X12071428Y-14454819D01*
X12071428Y-14454819D02*
X12166666Y-14502438D01*
X12166666Y-14502438D02*
X12214285Y-14550057D01*
X12214285Y-14550057D02*
X12261904Y-14645295D01*
X12261904Y-14645295D02*
X12261904Y-14740533D01*
X12261904Y-14740533D02*
X12214285Y-14883390D01*
X12214285Y-14883390D02*
X11642857Y-15454819D01*
X11642857Y-15454819D02*
X12261904Y-15454819D01*
X11357142Y-2454819D02*
X11023809Y-1978628D01*
X10785714Y-2454819D02*
X10785714Y-1454819D01*
X10785714Y-1454819D02*
X11166666Y-1454819D01*
X11166666Y-1454819D02*
X11261904Y-1502438D01*
X11261904Y-1502438D02*
X11309523Y-1550057D01*
X11309523Y-1550057D02*
X11357142Y-1645295D01*
X11357142Y-1645295D02*
X11357142Y-1788152D01*
X11357142Y-1788152D02*
X11309523Y-1883390D01*
X11309523Y-1883390D02*
X11261904Y-1931009D01*
X11261904Y-1931009D02*
X11166666Y-1978628D01*
X11166666Y-1978628D02*
X10785714Y-1978628D01*
X12309523Y-2454819D02*
X11738095Y-2454819D01*
X12023809Y-2454819D02*
X12023809Y-1454819D01*
X12023809Y-1454819D02*
X11928571Y-1597676D01*
X11928571Y-1597676D02*
X11833333Y-1692914D01*
X11833333Y-1692914D02*
X11738095Y-1740533D01*
X12642857Y-1454819D02*
X13261904Y-1454819D01*
X13261904Y-1454819D02*
X12928571Y-1835771D01*
X12928571Y-1835771D02*
X13071428Y-1835771D01*
X13071428Y-1835771D02*
X13166666Y-1883390D01*
X13166666Y-1883390D02*
X13214285Y-1931009D01*
X13214285Y-1931009D02*
X13261904Y-2026247D01*
X13261904Y-2026247D02*
X13261904Y-2264342D01*
X13261904Y-2264342D02*
X13214285Y-2359580D01*
X13214285Y-2359580D02*
X13166666Y-2407200D01*
X13166666Y-2407200D02*
X13071428Y-2454819D01*
X13071428Y-2454819D02*
X12785714Y-2454819D01*
X12785714Y-2454819D02*
X12690476Y-2407200D01*
X12690476Y-2407200D02*
X12642857Y-2359580D01*
X12357142Y-2454819D02*
X12023809Y-1978628D01*
X11785714Y-2454819D02*
X11785714Y-1454819D01*
X11785714Y-1454819D02*
X12166666Y-1454819D01*
X12166666Y-1454819D02*
X12261904Y-1502438D01*
X12261904Y-1502438D02*
X12309523Y-1550057D01*
X12309523Y-1550057D02*
X12357142Y-1645295D01*
X12357142Y-1645295D02*
X12357142Y-1788152D01*
X12357142Y-1788152D02*
X12309523Y-1883390D01*
X12309523Y-1883390D02*
X12261904Y-1931009D01*
X12261904Y-1931009D02*
X12166666Y-1978628D01*
X12166666Y-1978628D02*
X11785714Y-1978628D01*
X13309523Y-2454819D02*
X12738095Y-2454819D01*
X13023809Y-2454819D02*
X13023809Y-1454819D01*
X13023809Y-1454819D02*
X12928571Y-1597676D01*
X12928571Y-1597676D02*
X12833333Y-1692914D01*
X12833333Y-1692914D02*
X12738095Y-1740533D01*
X14166666Y-1788152D02*
X14166666Y-2454819D01*
X13928571Y-1407200D02*
X13690476Y-2121485D01*
X13690476Y-2121485D02*
X14309523Y-2121485D01*
X10333333Y-8859580D02*
X10285714Y-8907200D01*
X10285714Y-8907200D02*
X10142857Y-8954819D01*
X10142857Y-8954819D02*
X10047619Y-8954819D01*
X10047619Y-8954819D02*
X9904762Y-8907200D01*
X9904762Y-8907200D02*
X9809524Y-8811961D01*
X9809524Y-8811961D02*
X9761905Y-8716723D01*
X9761905Y-8716723D02*
X9714286Y-8526247D01*
X9714286Y-8526247D02*
X9714286Y-8383390D01*
X9714286Y-8383390D02*
X9761905Y-8192914D01*
X9761905Y-8192914D02*
X9809524Y-8097676D01*
X9809524Y-8097676D02*
X9904762Y-8002438D01*
X9904762Y-8002438D02*
X10047619Y-7954819D01*
X10047619Y-7954819D02*
X10142857Y-7954819D01*
X10142857Y-7954819D02*
X10285714Y-8002438D01*
X10285714Y-8002438D02*
X10333333Y-8050057D01*
X11285714Y-8954819D02*
X10714286Y-8954819D01*
X11000000Y-8954819D02*
X11000000Y-7954819D01*
X11000000Y-7954819D02*
X10904762Y-8097676D01*
X10904762Y-8097676D02*
X10809524Y-8192914D01*
X10809524Y-8192914D02*
X10714286Y-8240533D01*
X11333333Y-8859580D02*
X11285714Y-8907200D01*
X11285714Y-8907200D02*
X11142857Y-8954819D01*
X11142857Y-8954819D02*
X11047619Y-8954819D01*
X11047619Y-8954819D02*
X10904762Y-8907200D01*
X10904762Y-8907200D02*
X10809524Y-8811961D01*
X10809524Y-8811961D02*
X10761905Y-8716723D01*
X10761905Y-8716723D02*
X10714286Y-8526247D01*
X10714286Y-8526247D02*
X10714286Y-8383390D01*
X10714286Y-8383390D02*
X10761905Y-8192914D01*
X10761905Y-8192914D02*
X10809524Y-8097676D01*
X10809524Y-8097676D02*
X10904762Y-8002438D01*
X10904762Y-8002438D02*
X11047619Y-7954819D01*
X11047619Y-7954819D02*
X11142857Y-7954819D01*
X11142857Y-7954819D02*
X11285714Y-8002438D01*
X11285714Y-8002438D02*
X11333333Y-8050057D01*
X11714286Y-8050057D02*
X11761905Y-8002438D01*
X11761905Y-8002438D02*
X11857143Y-7954819D01*
X11857143Y-7954819D02*
X12095238Y-7954819D01*
X12095238Y-7954819D02*
X12190476Y-8002438D01*
X12190476Y-8002438D02*
X12238095Y-8050057D01*
X12238095Y-8050057D02*
X12285714Y-8145295D01*
X12285714Y-8145295D02*
X12285714Y-8240533D01*
X12285714Y-8240533D02*
X12238095Y-8383390D01*
X12238095Y-8383390D02*
X11666667Y-8954819D01*
X11666667Y-8954819D02*
X12285714Y-8954819D01*
X12333333Y-8859580D02*
X12285714Y-8907200D01*
X12285714Y-8907200D02*
X12142857Y-8954819D01*
X12142857Y-8954819D02*
X12047619Y-8954819D01*
X12047619Y-8954819D02*
X11904762Y-8907200D01*
X11904762Y-8907200D02*
X11809524Y-8811961D01*
X11809524Y-8811961D02*
X11761905Y-8716723D01*
X11761905Y-8716723D02*
X11714286Y-8526247D01*
X11714286Y-8526247D02*
X11714286Y-8383390D01*
X11714286Y-8383390D02*
X11761905Y-8192914D01*
X11761905Y-8192914D02*
X11809524Y-8097676D01*
X11809524Y-8097676D02*
X11904762Y-8002438D01*
X11904762Y-8002438D02*
X12047619Y-7954819D01*
X12047619Y-7954819D02*
X12142857Y-7954819D01*
X12142857Y-7954819D02*
X12285714Y-8002438D01*
X12285714Y-8002438D02*
X12333333Y-8050057D01*
X12666667Y-7954819D02*
X13285714Y-7954819D01*
X13285714Y-7954819D02*
X12952381Y-8335771D01*
X12952381Y-8335771D02*
X13095238Y-8335771D01*
X13095238Y-8335771D02*
X13190476Y-8383390D01*
X13190476Y-8383390D02*
X13238095Y-8431009D01*
X13238095Y-8431009D02*
X13285714Y-8526247D01*
X13285714Y-8526247D02*
X13285714Y-8764342D01*
X13285714Y-8764342D02*
X13238095Y-8859580D01*
X13238095Y-8859580D02*
X13190476Y-8907200D01*
X13190476Y-8907200D02*
X13095238Y-8954819D01*
X13095238Y-8954819D02*
X12809524Y-8954819D01*
X12809524Y-8954819D02*
X12714286Y-8907200D01*
X12714286Y-8907200D02*
X12666667Y-8859580D01*
X13333333Y-8859580D02*
X13285714Y-8907200D01*
X13285714Y-8907200D02*
X13142857Y-8954819D01*
X13142857Y-8954819D02*
X13047619Y-8954819D01*
X13047619Y-8954819D02*
X12904762Y-8907200D01*
X12904762Y-8907200D02*
X12809524Y-8811961D01*
X12809524Y-8811961D02*
X12761905Y-8716723D01*
X12761905Y-8716723D02*
X12714286Y-8526247D01*
X12714286Y-8526247D02*
X12714286Y-8383390D01*
X12714286Y-8383390D02*
X12761905Y-8192914D01*
X12761905Y-8192914D02*
X12809524Y-8097676D01*
X12809524Y-8097676D02*
X12904762Y-8002438D01*
X12904762Y-8002438D02*
X13047619Y-7954819D01*
X13047619Y-7954819D02*
X13142857Y-7954819D01*
X13142857Y-7954819D02*
X13285714Y-8002438D01*
X13285714Y-8002438D02*
X13333333Y-8050057D01*
X14190476Y-8288152D02*
X14190476Y-8954819D01*
X13952381Y-7907200D02*
X13714286Y-8621485D01*
X13714286Y-8621485D02*
X14333333Y-8621485D01*
X13833333Y-9859580D02*
X13785714Y-9907200D01*
X13785714Y-9907200D02*
X13642857Y-9954819D01*
X13642857Y-9954819D02*
X13547619Y-9954819D01*
X13547619Y-9954819D02*
X13404762Y-9907200D01*
X13404762Y-9907200D02*
X13309524Y-9811961D01*
X13309524Y-9811961D02*
X13261905Y-9716723D01*
X13261905Y-9716723D02*
X13214286Y-9526247D01*
X13214286Y-9526247D02*
X13214286Y-9383390D01*
X13214286Y-9383390D02*
X13261905Y-9192914D01*
X13261905Y-9192914D02*
X13309524Y-9097676D01*
X13309524Y-9097676D02*
X13404762Y-9002438D01*
X13404762Y-9002438D02*
X13547619Y-8954819D01*
X13547619Y-8954819D02*
X13642857Y-8954819D01*
X13642857Y-8954819D02*
X13785714Y-9002438D01*
X13785714Y-9002438D02*
X13833333Y-9050057D01*
X14738095Y-8954819D02*
X14261905Y-8954819D01*
X14261905Y-8954819D02*
X14214286Y-9431009D01*
X14214286Y-9431009D02*
X14261905Y-9383390D01*
X14261905Y-9383390D02*
X14357143Y-9335771D01*
X14357143Y-9335771D02*
X14595238Y-9335771D01*
X14595238Y-9335771D02*
X14690476Y-9383390D01*
X14690476Y-9383390D02*
X14738095Y-9431009D01*
X14738095Y-9431009D02*
X14785714Y-9526247D01*
X14785714Y-9526247D02*
X14785714Y-9764342D01*
X14785714Y-9764342D02*
X14738095Y-9859580D01*
X14738095Y-9859580D02*
X14690476Y-9907200D01*
X14690476Y-9907200D02*
X14595238Y-9954819D01*
X14595238Y-9954819D02*
X14357143Y-9954819D01*
X14357143Y-9954819D02*
X14261905Y-9907200D01*
X14261905Y-9907200D02*
X14214286Y-9859580D01*
X13833333Y-10859580D02*
X13785714Y-10907200D01*
X13785714Y-10907200D02*
X13642857Y-10954819D01*
X13642857Y-10954819D02*
X13547619Y-10954819D01*
X13547619Y-10954819D02*
X13404762Y-10907200D01*
X13404762Y-10907200D02*
X13309524Y-10811961D01*
X13309524Y-10811961D02*
X13261905Y-10716723D01*
X13261905Y-10716723D02*
X13214286Y-10526247D01*
X13214286Y-10526247D02*
X13214286Y-10383390D01*
X13214286Y-10383390D02*
X13261905Y-10192914D01*
X13261905Y-10192914D02*
X13309524Y-10097676D01*
X13309524Y-10097676D02*
X13404762Y-10002438D01*
X13404762Y-10002438D02*
X13547619Y-9954819D01*
X13547619Y-9954819D02*
X13642857Y-9954819D01*
X13642857Y-9954819D02*
X13785714Y-10002438D01*
X13785714Y-10002438D02*
X13833333Y-10050057D01*
X14690476Y-9954819D02*
X14500000Y-9954819D01*
X14500000Y-9954819D02*
X14404762Y-10002438D01*
X14404762Y-10002438D02*
X14357143Y-10050057D01*
X14357143Y-10050057D02*
X14261905Y-10192914D01*
X14261905Y-10192914D02*
X14214286Y-10383390D01*
X14214286Y-10383390D02*
X14214286Y-10764342D01*
X14214286Y-10764342D02*
X14261905Y-10859580D01*
X14261905Y-10859580D02*
X14309524Y-10907200D01*
X14309524Y-10907200D02*
X14404762Y-10954819D01*
X14404762Y-10954819D02*
X14595238Y-10954819D01*
X14595238Y-10954819D02*
X14690476Y-10907200D01*
X14690476Y-10907200D02*
X14738095Y-10859580D01*
X14738095Y-10859580D02*
X14785714Y-10764342D01*
X14785714Y-10764342D02*
X14785714Y-10526247D01*
X14785714Y-10526247D02*
X14738095Y-10431009D01*
X14738095Y-10431009D02*
X14690476Y-10383390D01*
X14690476Y-10383390D02*
X14595238Y-10335771D01*
X14595238Y-10335771D02*
X14404762Y-10335771D01*
X14404762Y-10335771D02*
X14309524Y-10383390D01*
X14309524Y-10383390D02*
X14261905Y-10431009D01*
X14261905Y-10431009D02*
X14214286Y-10526247D01*
X9833333Y-9359580D02*
X9785714Y-9407200D01*
X9785714Y-9407200D02*
X9642857Y-9454819D01*
X9642857Y-9454819D02*
X9547619Y-9454819D01*
X9547619Y-9454819D02*
X9404762Y-9407200D01*
X9404762Y-9407200D02*
X9309524Y-9311961D01*
X9309524Y-9311961D02*
X9261905Y-9216723D01*
X9261905Y-9216723D02*
X9214286Y-9026247D01*
X9214286Y-9026247D02*
X9214286Y-8883390D01*
X9214286Y-8883390D02*
X9261905Y-8692914D01*
X9261905Y-8692914D02*
X9309524Y-8597676D01*
X9309524Y-8597676D02*
X9404762Y-8502438D01*
X9404762Y-8502438D02*
X9547619Y-8454819D01*
X9547619Y-8454819D02*
X9642857Y-8454819D01*
X9642857Y-8454819D02*
X9785714Y-8502438D01*
X9785714Y-8502438D02*
X9833333Y-8550057D01*
X10166667Y-8454819D02*
X10833333Y-8454819D01*
X10833333Y-8454819D02*
X10404762Y-9454819D01*
X9833333Y-10359580D02*
X9785714Y-10407200D01*
X9785714Y-10407200D02*
X9642857Y-10454819D01*
X9642857Y-10454819D02*
X9547619Y-10454819D01*
X9547619Y-10454819D02*
X9404762Y-10407200D01*
X9404762Y-10407200D02*
X9309524Y-10311961D01*
X9309524Y-10311961D02*
X9261905Y-10216723D01*
X9261905Y-10216723D02*
X9214286Y-10026247D01*
X9214286Y-10026247D02*
X9214286Y-9883390D01*
X9214286Y-9883390D02*
X9261905Y-9692914D01*
X9261905Y-9692914D02*
X9309524Y-9597676D01*
X9309524Y-9597676D02*
X9404762Y-9502438D01*
X9404762Y-9502438D02*
X9547619Y-9454819D01*
X9547619Y-9454819D02*
X9642857Y-9454819D01*
X9642857Y-9454819D02*
X9785714Y-9502438D01*
X9785714Y-9502438D02*
X9833333Y-9550057D01*
X10404762Y-9883390D02*
X10309524Y-9835771D01*
X10309524Y-9835771D02*
X10261905Y-9788152D01*
X10261905Y-9788152D02*
X10214286Y-9692914D01*
X10214286Y-9692914D02*
X10214286Y-9645295D01*
X10214286Y-9645295D02*
X10261905Y-9550057D01*
X10261905Y-9550057D02*
X10309524Y-9502438D01*
X10309524Y-9502438D02*
X10404762Y-9454819D01*
X10404762Y-9454819D02*
X10595238Y-9454819D01*
X10595238Y-9454819D02*
X10690476Y-9502438D01*
X10690476Y-9502438D02*
X10738095Y-9550057D01*
X10738095Y-9550057D02*
X10785714Y-9645295D01*
X10785714Y-9645295D02*
X10785714Y-9692914D01*
X10785714Y-9692914D02*
X10738095Y-9788152D01*
X10738095Y-9788152D02*
X10690476Y-9835771D01*
X10690476Y-9835771D02*
X10595238Y-9883390D01*
X10595238Y-9883390D02*
X10404762Y-9883390D01*
X10404762Y-9883390D02*
X10309524Y-9931009D01*
X10309524Y-9931009D02*
X10261905Y-9978628D01*
X10261905Y-9978628D02*
X10214286Y-10073866D01*
X10214286Y-10073866D02*
X10214286Y-10264342D01*
X10214286Y-10264342D02*
X10261905Y-10359580D01*
X10261905Y-10359580D02*
X10309524Y-10407200D01*
X10309524Y-10407200D02*
X10404762Y-10454819D01*
X10404762Y-10454819D02*
X10595238Y-10454819D01*
X10595238Y-10454819D02*
X10690476Y-10407200D01*
X10690476Y-10407200D02*
X10738095Y-10359580D01*
X10738095Y-10359580D02*
X10785714Y-10264342D01*
X10785714Y-10264342D02*
X10785714Y-10073866D01*
X10785714Y-10073866D02*
X10738095Y-9978628D01*
X10738095Y-9978628D02*
X10690476Y-9931009D01*
X10690476Y-9931009D02*
X10595238Y-9883390D01*
X9833333Y-11359580D02*
X9785714Y-11407200D01*
X9785714Y-11407200D02*
X9642857Y-11454819D01*
X9642857Y-11454819D02*
X9547619Y-11454819D01*
X9547619Y-11454819D02*
X9404762Y-11407200D01*
X9404762Y-11407200D02*
X9309524Y-11311961D01*
X9309524Y-11311961D02*
X9261905Y-11216723D01*
X9261905Y-11216723D02*
X9214286Y-11026247D01*
X9214286Y-11026247D02*
X9214286Y-10883390D01*
X9214286Y-10883390D02*
X9261905Y-10692914D01*
X9261905Y-10692914D02*
X9309524Y-10597676D01*
X9309524Y-10597676D02*
X9404762Y-10502438D01*
X9404762Y-10502438D02*
X9547619Y-10454819D01*
X9547619Y-10454819D02*
X9642857Y-10454819D01*
X9642857Y-10454819D02*
X9785714Y-10502438D01*
X9785714Y-10502438D02*
X9833333Y-10550057D01*
X10309524Y-11454819D02*
X10500000Y-11454819D01*
X10500000Y-11454819D02*
X10595238Y-11407200D01*
X10595238Y-11407200D02*
X10642857Y-11359580D01*
X10642857Y-11359580D02*
X10738095Y-11216723D01*
X10738095Y-11216723D02*
X10785714Y-11026247D01*
X10785714Y-11026247D02*
X10785714Y-10645295D01*
X10785714Y-10645295D02*
X10738095Y-10550057D01*
X10738095Y-10550057D02*
X10690476Y-10502438D01*
X10690476Y-10502438D02*
X10595238Y-10454819D01*
X10595238Y-10454819D02*
X10404762Y-10454819D01*
X10404762Y-10454819D02*
X10309524Y-10502438D01*
X10309524Y-10502438D02*
X10261905Y-10550057D01*
X10261905Y-10550057D02*
X10214286Y-10645295D01*
X10214286Y-10645295D02*
X10214286Y-10883390D01*
X10214286Y-10883390D02*
X10261905Y-10978628D01*
X10261905Y-10978628D02*
X10309524Y-11026247D01*
X10309524Y-11026247D02*
X10404762Y-11073866D01*
X10404762Y-11073866D02*
X10595238Y-11073866D01*
X10595238Y-11073866D02*
X10690476Y-11026247D01*
X10690476Y-11026247D02*
X10738095Y-10978628D01*
X10738095Y-10978628D02*
X10785714Y-10883390D01*
X13357142Y-11859580D02*
X13309523Y-11907200D01*
X13309523Y-11907200D02*
X13166666Y-11954819D01*
X13166666Y-11954819D02*
X13071428Y-11954819D01*
X13071428Y-11954819D02*
X12928571Y-11907200D01*
X12928571Y-11907200D02*
X12833333Y-11811961D01*
X12833333Y-11811961D02*
X12785714Y-11716723D01*
X12785714Y-11716723D02*
X12738095Y-11526247D01*
X12738095Y-11526247D02*
X12738095Y-11383390D01*
X12738095Y-11383390D02*
X12785714Y-11192914D01*
X12785714Y-11192914D02*
X12833333Y-11097676D01*
X12833333Y-11097676D02*
X12928571Y-11002438D01*
X12928571Y-11002438D02*
X13071428Y-10954819D01*
X13071428Y-10954819D02*
X13166666Y-10954819D01*
X13166666Y-10954819D02*
X13309523Y-11002438D01*
X13309523Y-11002438D02*
X13357142Y-11050057D01*
X14309523Y-11954819D02*
X13738095Y-11954819D01*
X14023809Y-11954819D02*
X14023809Y-10954819D01*
X14023809Y-10954819D02*
X13928571Y-11097676D01*
X13928571Y-11097676D02*
X13833333Y-11192914D01*
X13833333Y-11192914D02*
X13738095Y-11240533D01*
X14928571Y-10954819D02*
X15023809Y-10954819D01*
X15023809Y-10954819D02*
X15119047Y-11002438D01*
X15119047Y-11002438D02*
X15166666Y-11050057D01*
X15166666Y-11050057D02*
X15214285Y-11145295D01*
X15214285Y-11145295D02*
X15261904Y-11335771D01*
X15261904Y-11335771D02*
X15261904Y-11573866D01*
X15261904Y-11573866D02*
X15214285Y-11764342D01*
X15214285Y-11764342D02*
X15166666Y-11859580D01*
X15166666Y-11859580D02*
X15119047Y-11907200D01*
X15119047Y-11907200D02*
X15023809Y-11954819D01*
X15023809Y-11954819D02*
X14928571Y-11954819D01*
X14928571Y-11954819D02*
X14833333Y-11907200D01*
X14833333Y-11907200D02*
X14785714Y-11859580D01*
X14785714Y-11859580D02*
X14738095Y-11764342D01*
X14738095Y-11764342D02*
X14690476Y-11573866D01*
X14690476Y-11573866D02*
X14690476Y-11335771D01*
X14690476Y-11335771D02*
X14738095Y-11145295D01*
X14738095Y-11145295D02*
X14785714Y-11050057D01*
X14785714Y-11050057D02*
X14833333Y-11002438D01*
X14833333Y-11002438D02*
X14928571Y-10954819D01*
X10357142Y-12159580D02*
X10309523Y-12207200D01*
X10309523Y-12207200D02*
X10166666Y-12254819D01*
X10166666Y-12254819D02*
X10071428Y-12254819D01*
X10071428Y-12254819D02*
X9928571Y-12207200D01*
X9928571Y-12207200D02*
X9833333Y-12111961D01*
X9833333Y-12111961D02*
X9785714Y-12016723D01*
X9785714Y-12016723D02*
X9738095Y-11826247D01*
X9738095Y-11826247D02*
X9738095Y-11683390D01*
X9738095Y-11683390D02*
X9785714Y-11492914D01*
X9785714Y-11492914D02*
X9833333Y-11397676D01*
X9833333Y-11397676D02*
X9928571Y-11302438D01*
X9928571Y-11302438D02*
X10071428Y-11254819D01*
X10071428Y-11254819D02*
X10166666Y-11254819D01*
X10166666Y-11254819D02*
X10309523Y-11302438D01*
X10309523Y-11302438D02*
X10357142Y-11350057D01*
X11309523Y-12254819D02*
X10738095Y-12254819D01*
X11023809Y-12254819D02*
X11023809Y-11254819D01*
X11023809Y-11254819D02*
X10928571Y-11397676D01*
X10928571Y-11397676D02*
X10833333Y-11492914D01*
X10833333Y-11492914D02*
X10738095Y-11540533D01*
X12261904Y-12254819D02*
X11690476Y-12254819D01*
X11976190Y-12254819D02*
X11976190Y-11254819D01*
X11976190Y-11254819D02*
X11880952Y-11397676D01*
X11880952Y-11397676D02*
X11785714Y-11492914D01*
X11785714Y-11492914D02*
X11690476Y-11540533D01*
X12357142Y-12159580D02*
X12309523Y-12207200D01*
X12309523Y-12207200D02*
X12166666Y-12254819D01*
X12166666Y-12254819D02*
X12071428Y-12254819D01*
X12071428Y-12254819D02*
X11928571Y-12207200D01*
X11928571Y-12207200D02*
X11833333Y-12111961D01*
X11833333Y-12111961D02*
X11785714Y-12016723D01*
X11785714Y-12016723D02*
X11738095Y-11826247D01*
X11738095Y-11826247D02*
X11738095Y-11683390D01*
X11738095Y-11683390D02*
X11785714Y-11492914D01*
X11785714Y-11492914D02*
X11833333Y-11397676D01*
X11833333Y-11397676D02*
X11928571Y-11302438D01*
X11928571Y-11302438D02*
X12071428Y-11254819D01*
X12071428Y-11254819D02*
X12166666Y-11254819D01*
X12166666Y-11254819D02*
X12309523Y-11302438D01*
X12309523Y-11302438D02*
X12357142Y-11350057D01*
X13309523Y-12254819D02*
X12738095Y-12254819D01*
X13023809Y-12254819D02*
X13023809Y-11254819D01*
X13023809Y-11254819D02*
X12928571Y-11397676D01*
X12928571Y-11397676D02*
X12833333Y-11492914D01*
X12833333Y-11492914D02*
X12738095Y-11540533D01*
X13690476Y-11350057D02*
X13738095Y-11302438D01*
X13738095Y-11302438D02*
X13833333Y-11254819D01*
X13833333Y-11254819D02*
X14071428Y-11254819D01*
X14071428Y-11254819D02*
X14166666Y-11302438D01*
X14166666Y-11302438D02*
X14214285Y-11350057D01*
X14214285Y-11350057D02*
X14261904Y-11445295D01*
X14261904Y-11445295D02*
X14261904Y-11540533D01*
X14261904Y-11540533D02*
X14214285Y-11683390D01*
X14214285Y-11683390D02*
X13642857Y-12254819D01*
X13642857Y-12254819D02*
X14261904Y-12254819D01*
X13357142Y-7859580D02*
X13309523Y-7907200D01*
X13309523Y-7907200D02*
X13166666Y-7954819D01*
X13166666Y-7954819D02*
X13071428Y-7954819D01*
X13071428Y-7954819D02*
X12928571Y-7907200D01*
X12928571Y-7907200D02*
X12833333Y-7811961D01*
X12833333Y-7811961D02*
X12785714Y-7716723D01*
X12785714Y-7716723D02*
X12738095Y-7526247D01*
X12738095Y-7526247D02*
X12738095Y-7383390D01*
X12738095Y-7383390D02*
X12785714Y-7192914D01*
X12785714Y-7192914D02*
X12833333Y-7097676D01*
X12833333Y-7097676D02*
X12928571Y-7002438D01*
X12928571Y-7002438D02*
X13071428Y-6954819D01*
X13071428Y-6954819D02*
X13166666Y-6954819D01*
X13166666Y-6954819D02*
X13309523Y-7002438D01*
X13309523Y-7002438D02*
X13357142Y-7050057D01*
X14309523Y-7954819D02*
X13738095Y-7954819D01*
X14023809Y-7954819D02*
X14023809Y-6954819D01*
X14023809Y-6954819D02*
X13928571Y-7097676D01*
X13928571Y-7097676D02*
X13833333Y-7192914D01*
X13833333Y-7192914D02*
X13738095Y-7240533D01*
X14642857Y-6954819D02*
X15261904Y-6954819D01*
X15261904Y-6954819D02*
X14928571Y-7335771D01*
X14928571Y-7335771D02*
X15071428Y-7335771D01*
X15071428Y-7335771D02*
X15166666Y-7383390D01*
X15166666Y-7383390D02*
X15214285Y-7431009D01*
X15214285Y-7431009D02*
X15261904Y-7526247D01*
X15261904Y-7526247D02*
X15261904Y-7764342D01*
X15261904Y-7764342D02*
X15214285Y-7859580D01*
X15214285Y-7859580D02*
X15166666Y-7907200D01*
X15166666Y-7907200D02*
X15071428Y-7954819D01*
X15071428Y-7954819D02*
X14785714Y-7954819D01*
X14785714Y-7954819D02*
X14690476Y-7907200D01*
X14690476Y-7907200D02*
X14642857Y-7859580D01*
X4357142Y-4359580D02*
X4309523Y-4407200D01*
X4309523Y-4407200D02*
X4166666Y-4454819D01*
X4166666Y-4454819D02*
X4071428Y-4454819D01*
X4071428Y-4454819D02*
X3928571Y-4407200D01*
X3928571Y-4407200D02*
X3833333Y-4311961D01*
X3833333Y-4311961D02*
X3785714Y-4216723D01*
X3785714Y-4216723D02*
X3738095Y-4026247D01*
X3738095Y-4026247D02*
X3738095Y-3883390D01*
X3738095Y-3883390D02*
X3785714Y-3692914D01*
X3785714Y-3692914D02*
X3833333Y-3597676D01*
X3833333Y-3597676D02*
X3928571Y-3502438D01*
X3928571Y-3502438D02*
X4071428Y-3454819D01*
X4071428Y-3454819D02*
X4166666Y-3454819D01*
X4166666Y-3454819D02*
X4309523Y-3502438D01*
X4309523Y-3502438D02*
X4357142Y-3550057D01*
X5309523Y-4454819D02*
X4738095Y-4454819D01*
X5023809Y-4454819D02*
X5023809Y-3454819D01*
X5023809Y-3454819D02*
X4928571Y-3597676D01*
X4928571Y-3597676D02*
X4833333Y-3692914D01*
X4833333Y-3692914D02*
X4738095Y-3740533D01*
X6166666Y-3788152D02*
X6166666Y-4454819D01*
X5928571Y-3407200D02*
X5690476Y-4121485D01*
X5690476Y-4121485D02*
X6309523Y-4121485D01*
X5357142Y-4359580D02*
X5309523Y-4407200D01*
X5309523Y-4407200D02*
X5166666Y-4454819D01*
X5166666Y-4454819D02*
X5071428Y-4454819D01*
X5071428Y-4454819D02*
X4928571Y-4407200D01*
X4928571Y-4407200D02*
X4833333Y-4311961D01*
X4833333Y-4311961D02*
X4785714Y-4216723D01*
X4785714Y-4216723D02*
X4738095Y-4026247D01*
X4738095Y-4026247D02*
X4738095Y-3883390D01*
X4738095Y-3883390D02*
X4785714Y-3692914D01*
X4785714Y-3692914D02*
X4833333Y-3597676D01*
X4833333Y-3597676D02*
X4928571Y-3502438D01*
X4928571Y-3502438D02*
X5071428Y-3454819D01*
X5071428Y-3454819D02*
X5166666Y-3454819D01*
X5166666Y-3454819D02*
X5309523Y-3502438D01*
X5309523Y-3502438D02*
X5357142Y-3550057D01*
X6309523Y-4454819D02*
X5738095Y-4454819D01*
X6023809Y-4454819D02*
X6023809Y-3454819D01*
X6023809Y-3454819D02*
X5928571Y-3597676D01*
X5928571Y-3597676D02*
X5833333Y-3692914D01*
X5833333Y-3692914D02*
X5738095Y-3740533D01*
X7214285Y-3454819D02*
X6738095Y-3454819D01*
X6738095Y-3454819D02*
X6690476Y-3931009D01*
X6690476Y-3931009D02*
X6738095Y-3883390D01*
X6738095Y-3883390D02*
X6833333Y-3835771D01*
X6833333Y-3835771D02*
X7071428Y-3835771D01*
X7071428Y-3835771D02*
X7166666Y-3883390D01*
X7166666Y-3883390D02*
X7214285Y-3931009D01*
X7214285Y-3931009D02*
X7261904Y-4026247D01*
X7261904Y-4026247D02*
X7261904Y-4264342D01*
X7261904Y-4264342D02*
X7214285Y-4359580D01*
X7214285Y-4359580D02*
X7166666Y-4407200D01*
X7166666Y-4407200D02*
X7071428Y-4454819D01*
X7071428Y-4454819D02*
X6833333Y-4454819D01*
X6833333Y-4454819D02*
X6738095Y-4407200D01*
X6738095Y-4407200D02*
X6690476Y-4359580D01*
X14357142Y-14359580D02*
X14309523Y-14407200D01*
X14309523Y-14407200D02*
X14166666Y-14454819D01*
X14166666Y-14454819D02*
X14071428Y-14454819D01*
X14071428Y-14454819D02*
X13928571Y-14407200D01*
X13928571Y-14407200D02*
X13833333Y-14311961D01*
X13833333Y-14311961D02*
X13785714Y-14216723D01*
X13785714Y-14216723D02*
X13738095Y-14026247D01*
X13738095Y-14026247D02*
X13738095Y-13883390D01*
X13738095Y-13883390D02*
X13785714Y-13692914D01*
X13785714Y-13692914D02*
X13833333Y-13597676D01*
X13833333Y-13597676D02*
X13928571Y-13502438D01*
X13928571Y-13502438D02*
X14071428Y-13454819D01*
X14071428Y-13454819D02*
X14166666Y-13454819D01*
X14166666Y-13454819D02*
X14309523Y-13502438D01*
X14309523Y-13502438D02*
X14357142Y-13550057D01*
X15309523Y-14454819D02*
X14738095Y-14454819D01*
X15023809Y-14454819D02*
X15023809Y-13454819D01*
X15023809Y-13454819D02*
X14928571Y-13597676D01*
X14928571Y-13597676D02*
X14833333Y-13692914D01*
X14833333Y-13692914D02*
X14738095Y-13740533D01*
X16166666Y-13454819D02*
X15976190Y-13454819D01*
X15976190Y-13454819D02*
X15880952Y-13502438D01*
X15880952Y-13502438D02*
X15833333Y-13550057D01*
X15833333Y-13550057D02*
X15738095Y-13692914D01*
X15738095Y-13692914D02*
X15690476Y-13883390D01*
X15690476Y-13883390D02*
X15690476Y-14264342D01*
X15690476Y-14264342D02*
X15738095Y-14359580D01*
X15738095Y-14359580D02*
X15785714Y-14407200D01*
X15785714Y-14407200D02*
X15880952Y-14454819D01*
X15880952Y-14454819D02*
X16071428Y-14454819D01*
X16071428Y-14454819D02*
X16166666Y-14407200D01*
X16166666Y-14407200D02*
X16214285Y-14359580D01*
X16214285Y-14359580D02*
X16261904Y-14264342D01*
X16261904Y-14264342D02*
X16261904Y-14026247D01*
X16261904Y-14026247D02*
X16214285Y-13931009D01*
X16214285Y-13931009D02*
X16166666Y-13883390D01*
X16166666Y-13883390D02*
X16071428Y-13835771D01*
X16071428Y-13835771D02*
X15880952Y-13835771D01*
X15880952Y-13835771D02*
X15785714Y-13883390D01*
X15785714Y-13883390D02*
X15738095Y-13931009D01*
X15738095Y-13931009D02*
X15690476Y-14026247D01*
X15357142Y-14359580D02*
X15309523Y-14407200D01*
X15309523Y-14407200D02*
X15166666Y-14454819D01*
X15166666Y-14454819D02*
X15071428Y-14454819D01*
X15071428Y-14454819D02*
X14928571Y-14407200D01*
X14928571Y-14407200D02*
X14833333Y-14311961D01*
X14833333Y-14311961D02*
X14785714Y-14216723D01*
X14785714Y-14216723D02*
X14738095Y-14026247D01*
X14738095Y-14026247D02*
X14738095Y-13883390D01*
X14738095Y-13883390D02*
X14785714Y-13692914D01*
X14785714Y-13692914D02*
X14833333Y-13597676D01*
X14833333Y-13597676D02*
X14928571Y-13502438D01*
X14928571Y-13502438D02*
X15071428Y-13454819D01*
X15071428Y-13454819D02*
X15166666Y-13454819D01*
X15166666Y-13454819D02*
X15309523Y-13502438D01*
X15309523Y-13502438D02*
X15357142Y-13550057D01*
X16309523Y-14454819D02*
X15738095Y-14454819D01*
X16023809Y-14454819D02*
X16023809Y-13454819D01*
X16023809Y-13454819D02*
X15928571Y-13597676D01*
X15928571Y-13597676D02*
X15833333Y-13692914D01*
X15833333Y-13692914D02*
X15738095Y-13740533D01*
X16642857Y-13454819D02*
X17309523Y-13454819D01*
X17309523Y-13454819D02*
X16880952Y-14454819D01*
X13357142Y-13359580D02*
X13309523Y-13407200D01*
X13309523Y-13407200D02*
X13166666Y-13454819D01*
X13166666Y-13454819D02*
X13071428Y-13454819D01*
X13071428Y-13454819D02*
X12928571Y-13407200D01*
X12928571Y-13407200D02*
X12833333Y-13311961D01*
X12833333Y-13311961D02*
X12785714Y-13216723D01*
X12785714Y-13216723D02*
X12738095Y-13026247D01*
X12738095Y-13026247D02*
X12738095Y-12883390D01*
X12738095Y-12883390D02*
X12785714Y-12692914D01*
X12785714Y-12692914D02*
X12833333Y-12597676D01*
X12833333Y-12597676D02*
X12928571Y-12502438D01*
X12928571Y-12502438D02*
X13071428Y-12454819D01*
X13071428Y-12454819D02*
X13166666Y-12454819D01*
X13166666Y-12454819D02*
X13309523Y-12502438D01*
X13309523Y-12502438D02*
X13357142Y-12550057D01*
X14309523Y-13454819D02*
X13738095Y-13454819D01*
X14023809Y-13454819D02*
X14023809Y-12454819D01*
X14023809Y-12454819D02*
X13928571Y-12597676D01*
X13928571Y-12597676D02*
X13833333Y-12692914D01*
X13833333Y-12692914D02*
X13738095Y-12740533D01*
X14880952Y-12883390D02*
X14785714Y-12835771D01*
X14785714Y-12835771D02*
X14738095Y-12788152D01*
X14738095Y-12788152D02*
X14690476Y-12692914D01*
X14690476Y-12692914D02*
X14690476Y-12645295D01*
X14690476Y-12645295D02*
X14738095Y-12550057D01*
X14738095Y-12550057D02*
X14785714Y-12502438D01*
X14785714Y-12502438D02*
X14880952Y-12454819D01*
X14880952Y-12454819D02*
X15071428Y-12454819D01*
X15071428Y-12454819D02*
X15166666Y-12502438D01*
X15166666Y-12502438D02*
X15214285Y-12550057D01*
X15214285Y-12550057D02*
X15261904Y-12645295D01*
X15261904Y-12645295D02*
X15261904Y-12692914D01*
X15261904Y-12692914D02*
X15214285Y-12788152D01*
X15214285Y-12788152D02*
X15166666Y-12835771D01*
X15166666Y-12835771D02*
X15071428Y-12883390D01*
X15071428Y-12883390D02*
X14880952Y-12883390D01*
X14880952Y-12883390D02*
X14785714Y-12931009D01*
X14785714Y-12931009D02*
X14738095Y-12978628D01*
X14738095Y-12978628D02*
X14690476Y-13073866D01*
X14690476Y-13073866D02*
X14690476Y-13264342D01*
X14690476Y-13264342D02*
X14738095Y-13359580D01*
X14738095Y-13359580D02*
X14785714Y-13407200D01*
X14785714Y-13407200D02*
X14880952Y-13454819D01*
X14880952Y-13454819D02*
X15071428Y-13454819D01*
X15071428Y-13454819D02*
X15166666Y-13407200D01*
X15166666Y-13407200D02*
X15214285Y-13359580D01*
X15214285Y-13359580D02*
X15261904Y-13264342D01*
X15261904Y-13264342D02*
X15261904Y-13073866D01*
X15261904Y-13073866D02*
X15214285Y-12978628D01*
X15214285Y-12978628D02*
X15166666Y-12931009D01*
X15166666Y-12931009D02*
X15071428Y-12883390D01*
X14357142Y-13359580D02*
X14309523Y-13407200D01*
X14309523Y-13407200D02*
X14166666Y-13454819D01*
X14166666Y-13454819D02*
X14071428Y-13454819D01*
X14071428Y-13454819D02*
X13928571Y-13407200D01*
X13928571Y-13407200D02*
X13833333Y-13311961D01*
X13833333Y-13311961D02*
X13785714Y-13216723D01*
X13785714Y-13216723D02*
X13738095Y-13026247D01*
X13738095Y-13026247D02*
X13738095Y-12883390D01*
X13738095Y-12883390D02*
X13785714Y-12692914D01*
X13785714Y-12692914D02*
X13833333Y-12597676D01*
X13833333Y-12597676D02*
X13928571Y-12502438D01*
X13928571Y-12502438D02*
X14071428Y-12454819D01*
X14071428Y-12454819D02*
X14166666Y-12454819D01*
X14166666Y-12454819D02*
X14309523Y-12502438D01*
X14309523Y-12502438D02*
X14357142Y-12550057D01*
X15309523Y-13454819D02*
X14738095Y-13454819D01*
X15023809Y-13454819D02*
X15023809Y-12454819D01*
X15023809Y-12454819D02*
X14928571Y-12597676D01*
X14928571Y-12597676D02*
X14833333Y-12692914D01*
X14833333Y-12692914D02*
X14738095Y-12740533D01*
X15785714Y-13454819D02*
X15976190Y-13454819D01*
X15976190Y-13454819D02*
X16071428Y-13407200D01*
X16071428Y-13407200D02*
X16119047Y-13359580D01*
X16119047Y-13359580D02*
X16214285Y-13216723D01*
X16214285Y-13216723D02*
X16261904Y-13026247D01*
X16261904Y-13026247D02*
X16261904Y-12645295D01*
X16261904Y-12645295D02*
X16214285Y-12550057D01*
X16214285Y-12550057D02*
X16166666Y-12502438D01*
X16166666Y-12502438D02*
X16071428Y-12454819D01*
X16071428Y-12454819D02*
X15880952Y-12454819D01*
X15880952Y-12454819D02*
X15785714Y-12502438D01*
X15785714Y-12502438D02*
X15738095Y-12550057D01*
X15738095Y-12550057D02*
X15690476Y-12645295D01*
X15690476Y-12645295D02*
X15690476Y-12883390D01*
X15690476Y-12883390D02*
X15738095Y-12978628D01*
X15738095Y-12978628D02*
X15785714Y-13026247D01*
X15785714Y-13026247D02*
X15880952Y-13073866D01*
X15880952Y-13073866D02*
X16071428Y-13073866D01*
X16071428Y-13073866D02*
X16166666Y-13026247D01*
X16166666Y-13026247D02*
X16214285Y-12978628D01*
X16214285Y-12978628D02*
X16261904Y-12883390D01*
X24357142Y-10359580D02*
X24309523Y-10407200D01*
X24309523Y-10407200D02*
X24166666Y-10454819D01*
X24166666Y-10454819D02*
X24071428Y-10454819D01*
X24071428Y-10454819D02*
X23928571Y-10407200D01*
X23928571Y-10407200D02*
X23833333Y-10311961D01*
X23833333Y-10311961D02*
X23785714Y-10216723D01*
X23785714Y-10216723D02*
X23738095Y-10026247D01*
X23738095Y-10026247D02*
X23738095Y-9883390D01*
X23738095Y-9883390D02*
X23785714Y-9692914D01*
X23785714Y-9692914D02*
X23833333Y-9597676D01*
X23833333Y-9597676D02*
X23928571Y-9502438D01*
X23928571Y-9502438D02*
X24071428Y-9454819D01*
X24071428Y-9454819D02*
X24166666Y-9454819D01*
X24166666Y-9454819D02*
X24309523Y-9502438D01*
X24309523Y-9502438D02*
X24357142Y-9550057D01*
X24738095Y-9550057D02*
X24785714Y-9502438D01*
X24785714Y-9502438D02*
X24880952Y-9454819D01*
X24880952Y-9454819D02*
X25119047Y-9454819D01*
X25119047Y-9454819D02*
X25214285Y-9502438D01*
X25214285Y-9502438D02*
X25261904Y-9550057D01*
X25261904Y-9550057D02*
X25309523Y-9645295D01*
X25309523Y-9645295D02*
X25309523Y-9740533D01*
X25309523Y-9740533D02*
X25261904Y-9883390D01*
X25261904Y-9883390D02*
X24690476Y-10454819D01*
X24690476Y-10454819D02*
X25309523Y-10454819D01*
X25928571Y-9454819D02*
X26023809Y-9454819D01*
X26023809Y-9454819D02*
X26119047Y-9502438D01*
X26119047Y-9502438D02*
X26166666Y-9550057D01*
X26166666Y-9550057D02*
X26214285Y-9645295D01*
X26214285Y-9645295D02*
X26261904Y-9835771D01*
X26261904Y-9835771D02*
X26261904Y-10073866D01*
X26261904Y-10073866D02*
X26214285Y-10264342D01*
X26214285Y-10264342D02*
X26166666Y-10359580D01*
X26166666Y-10359580D02*
X26119047Y-10407200D01*
X26119047Y-10407200D02*
X26023809Y-10454819D01*
X26023809Y-10454819D02*
X25928571Y-10454819D01*
X25928571Y-10454819D02*
X25833333Y-10407200D01*
X25833333Y-10407200D02*
X25785714Y-10359580D01*
X25785714Y-10359580D02*
X25738095Y-10264342D01*
X25738095Y-10264342D02*
X25690476Y-10073866D01*
X25690476Y-10073866D02*
X25690476Y-9835771D01*
X25690476Y-9835771D02*
X25738095Y-9645295D01*
X25738095Y-9645295D02*
X25785714Y-9550057D01*
X25785714Y-9550057D02*
X25833333Y-9502438D01*
X25833333Y-9502438D02*
X25928571Y-9454819D01*
X4357142Y-9359580D02*
X4309523Y-9407200D01*
X4309523Y-9407200D02*
X4166666Y-9454819D01*
X4166666Y-9454819D02*
X4071428Y-9454819D01*
X4071428Y-9454819D02*
X3928571Y-9407200D01*
X3928571Y-9407200D02*
X3833333Y-9311961D01*
X3833333Y-9311961D02*
X3785714Y-9216723D01*
X3785714Y-9216723D02*
X3738095Y-9026247D01*
X3738095Y-9026247D02*
X3738095Y-8883390D01*
X3738095Y-8883390D02*
X3785714Y-8692914D01*
X3785714Y-8692914D02*
X3833333Y-8597676D01*
X3833333Y-8597676D02*
X3928571Y-8502438D01*
X3928571Y-8502438D02*
X4071428Y-8454819D01*
X4071428Y-8454819D02*
X4166666Y-8454819D01*
X4166666Y-8454819D02*
X4309523Y-8502438D01*
X4309523Y-8502438D02*
X4357142Y-8550057D01*
X4738095Y-8550057D02*
X4785714Y-8502438D01*
X4785714Y-8502438D02*
X4880952Y-8454819D01*
X4880952Y-8454819D02*
X5119047Y-8454819D01*
X5119047Y-8454819D02*
X5214285Y-8502438D01*
X5214285Y-8502438D02*
X5261904Y-8550057D01*
X5261904Y-8550057D02*
X5309523Y-8645295D01*
X5309523Y-8645295D02*
X5309523Y-8740533D01*
X5309523Y-8740533D02*
X5261904Y-8883390D01*
X5261904Y-8883390D02*
X4690476Y-9454819D01*
X4690476Y-9454819D02*
X5309523Y-9454819D01*
X6261904Y-9454819D02*
X5690476Y-9454819D01*
X5976190Y-9454819D02*
X5976190Y-8454819D01*
X5976190Y-8454819D02*
X5880952Y-8597676D01*
X5880952Y-8597676D02*
X5785714Y-8692914D01*
X5785714Y-8692914D02*
X5690476Y-8740533D01*
X5357142Y-6359580D02*
X5309523Y-6407200D01*
X5309523Y-6407200D02*
X5166666Y-6454819D01*
X5166666Y-6454819D02*
X5071428Y-6454819D01*
X5071428Y-6454819D02*
X4928571Y-6407200D01*
X4928571Y-6407200D02*
X4833333Y-6311961D01*
X4833333Y-6311961D02*
X4785714Y-6216723D01*
X4785714Y-6216723D02*
X4738095Y-6026247D01*
X4738095Y-6026247D02*
X4738095Y-5883390D01*
X4738095Y-5883390D02*
X4785714Y-5692914D01*
X4785714Y-5692914D02*
X4833333Y-5597676D01*
X4833333Y-5597676D02*
X4928571Y-5502438D01*
X4928571Y-5502438D02*
X5071428Y-5454819D01*
X5071428Y-5454819D02*
X5166666Y-5454819D01*
X5166666Y-5454819D02*
X5309523Y-5502438D01*
X5309523Y-5502438D02*
X5357142Y-5550057D01*
X5738095Y-5550057D02*
X5785714Y-5502438D01*
X5785714Y-5502438D02*
X5880952Y-5454819D01*
X5880952Y-5454819D02*
X6119047Y-5454819D01*
X6119047Y-5454819D02*
X6214285Y-5502438D01*
X6214285Y-5502438D02*
X6261904Y-5550057D01*
X6261904Y-5550057D02*
X6309523Y-5645295D01*
X6309523Y-5645295D02*
X6309523Y-5740533D01*
X6309523Y-5740533D02*
X6261904Y-5883390D01*
X6261904Y-5883390D02*
X5690476Y-6454819D01*
X5690476Y-6454819D02*
X6309523Y-6454819D01*
X6690476Y-5550057D02*
X6738095Y-5502438D01*
X6738095Y-5502438D02*
X6833333Y-5454819D01*
X6833333Y-5454819D02*
X7071428Y-5454819D01*
X7071428Y-5454819D02*
X7166666Y-5502438D01*
X7166666Y-5502438D02*
X7214285Y-5550057D01*
X7214285Y-5550057D02*
X7261904Y-5645295D01*
X7261904Y-5645295D02*
X7261904Y-5740533D01*
X7261904Y-5740533D02*
X7214285Y-5883390D01*
X7214285Y-5883390D02*
X6642857Y-6454819D01*
X6642857Y-6454819D02*
X7261904Y-6454819D01*
X22357142Y-11359580D02*
X22309523Y-11407200D01*
X22309523Y-11407200D02*
X22166666Y-11454819D01*
X22166666Y-11454819D02*
X22071428Y-11454819D01*
X22071428Y-11454819D02*
X21928571Y-11407200D01*
X21928571Y-11407200D02*
X21833333Y-11311961D01*
X21833333Y-11311961D02*
X21785714Y-11216723D01*
X21785714Y-11216723D02*
X21738095Y-11026247D01*
X21738095Y-11026247D02*
X21738095Y-10883390D01*
X21738095Y-10883390D02*
X21785714Y-10692914D01*
X21785714Y-10692914D02*
X21833333Y-10597676D01*
X21833333Y-10597676D02*
X21928571Y-10502438D01*
X21928571Y-10502438D02*
X22071428Y-10454819D01*
X22071428Y-10454819D02*
X22166666Y-10454819D01*
X22166666Y-10454819D02*
X22309523Y-10502438D01*
X22309523Y-10502438D02*
X22357142Y-10550057D01*
X22738095Y-10550057D02*
X22785714Y-10502438D01*
X22785714Y-10502438D02*
X22880952Y-10454819D01*
X22880952Y-10454819D02*
X23119047Y-10454819D01*
X23119047Y-10454819D02*
X23214285Y-10502438D01*
X23214285Y-10502438D02*
X23261904Y-10550057D01*
X23261904Y-10550057D02*
X23309523Y-10645295D01*
X23309523Y-10645295D02*
X23309523Y-10740533D01*
X23309523Y-10740533D02*
X23261904Y-10883390D01*
X23261904Y-10883390D02*
X22690476Y-11454819D01*
X22690476Y-11454819D02*
X23309523Y-11454819D01*
X23642857Y-10454819D02*
X24261904Y-10454819D01*
X24261904Y-10454819D02*
X23928571Y-10835771D01*
X23928571Y-10835771D02*
X24071428Y-10835771D01*
X24071428Y-10835771D02*
X24166666Y-10883390D01*
X24166666Y-10883390D02*
X24214285Y-10931009D01*
X24214285Y-10931009D02*
X24261904Y-11026247D01*
X24261904Y-11026247D02*
X24261904Y-11264342D01*
X24261904Y-11264342D02*
X24214285Y-11359580D01*
X24214285Y-11359580D02*
X24166666Y-11407200D01*
X24166666Y-11407200D02*
X24071428Y-11454819D01*
X24071428Y-11454819D02*
X23785714Y-11454819D01*
X23785714Y-11454819D02*
X23690476Y-11407200D01*
X23690476Y-11407200D02*
X23642857Y-11359580D01*
X20357142Y-15359580D02*
X20309523Y-15407200D01*
X20309523Y-15407200D02*
X20166666Y-15454819D01*
X20166666Y-15454819D02*
X20071428Y-15454819D01*
X20071428Y-15454819D02*
X19928571Y-15407200D01*
X19928571Y-15407200D02*
X19833333Y-15311961D01*
X19833333Y-15311961D02*
X19785714Y-15216723D01*
X19785714Y-15216723D02*
X19738095Y-15026247D01*
X19738095Y-15026247D02*
X19738095Y-14883390D01*
X19738095Y-14883390D02*
X19785714Y-14692914D01*
X19785714Y-14692914D02*
X19833333Y-14597676D01*
X19833333Y-14597676D02*
X19928571Y-14502438D01*
X19928571Y-14502438D02*
X20071428Y-14454819D01*
X20071428Y-14454819D02*
X20166666Y-14454819D01*
X20166666Y-14454819D02*
X20309523Y-14502438D01*
X20309523Y-14502438D02*
X20357142Y-14550057D01*
X20738095Y-14550057D02*
X20785714Y-14502438D01*
X20785714Y-14502438D02*
X20880952Y-14454819D01*
X20880952Y-14454819D02*
X21119047Y-14454819D01*
X21119047Y-14454819D02*
X21214285Y-14502438D01*
X21214285Y-14502438D02*
X21261904Y-14550057D01*
X21261904Y-14550057D02*
X21309523Y-14645295D01*
X21309523Y-14645295D02*
X21309523Y-14740533D01*
X21309523Y-14740533D02*
X21261904Y-14883390D01*
X21261904Y-14883390D02*
X20690476Y-15454819D01*
X20690476Y-15454819D02*
X21309523Y-15454819D01*
X22166666Y-14788152D02*
X22166666Y-15454819D01*
X21928571Y-14407200D02*
X21690476Y-15121485D01*
X21690476Y-15121485D02*
X22309523Y-15121485D01*
X2833333Y-6454819D02*
X2357143Y-6454819D01*
X2357143Y-6454819D02*
X2357143Y-5454819D01*
X3690476Y-6454819D02*
X3119048Y-6454819D01*
X3404762Y-6454819D02*
X3404762Y-5454819D01*
X3404762Y-5454819D02*
X3309524Y-5597676D01*
X3309524Y-5597676D02*
X3214286Y-5692914D01*
X3214286Y-5692914D02*
X3119048Y-5740533D01*
X3833333Y-7454819D02*
X3357143Y-7454819D01*
X3357143Y-7454819D02*
X3357143Y-6454819D01*
X4119048Y-6550057D02*
X4166667Y-6502438D01*
X4166667Y-6502438D02*
X4261905Y-6454819D01*
X4261905Y-6454819D02*
X4500000Y-6454819D01*
X4500000Y-6454819D02*
X4595238Y-6502438D01*
X4595238Y-6502438D02*
X4642857Y-6550057D01*
X4642857Y-6550057D02*
X4690476Y-6645295D01*
X4690476Y-6645295D02*
X4690476Y-6740533D01*
X4690476Y-6740533D02*
X4642857Y-6883390D01*
X4642857Y-6883390D02*
X4071429Y-7454819D01*
X4071429Y-7454819D02*
X4690476Y-7454819D01*
X13190476Y-11454819D02*
X13857142Y-12454819D01*
X13857142Y-11454819D02*
X13190476Y-12454819D01*
X14761904Y-12454819D02*
X14190476Y-12454819D01*
X14476190Y-12454819D02*
X14476190Y-11454819D01*
X14476190Y-11454819D02*
X14380952Y-11597676D01*
X14380952Y-11597676D02*
X14285714Y-11692914D01*
X14285714Y-11692914D02*
X14190476Y-11740533D01*
X7904761Y-12550057D02*
X7809523Y-12502438D01*
X7809523Y-12502438D02*
X7714285Y-12407200D01*
X7714285Y-12407200D02*
X7571428Y-12264342D01*
X7571428Y-12264342D02*
X7476190Y-12216723D01*
X7476190Y-12216723D02*
X7380952Y-12216723D01*
X7428571Y-12454819D02*
X7333333Y-12407200D01*
X7333333Y-12407200D02*
X7238095Y-12311961D01*
X7238095Y-12311961D02*
X7190476Y-12121485D01*
X7190476Y-12121485D02*
X7190476Y-11788152D01*
X7190476Y-11788152D02*
X7238095Y-11597676D01*
X7238095Y-11597676D02*
X7333333Y-11502438D01*
X7333333Y-11502438D02*
X7428571Y-11454819D01*
X7428571Y-11454819D02*
X7619047Y-11454819D01*
X7619047Y-11454819D02*
X7714285Y-11502438D01*
X7714285Y-11502438D02*
X7809523Y-11597676D01*
X7809523Y-11597676D02*
X7857142Y-11788152D01*
X7857142Y-11788152D02*
X7857142Y-12121485D01*
X7857142Y-12121485D02*
X7809523Y-12311961D01*
X7809523Y-12311961D02*
X7714285Y-12407200D01*
X7714285Y-12407200D02*
X7619047Y-12454819D01*
X7619047Y-12454819D02*
X7428571Y-12454819D01*
X8809523Y-12454819D02*
X8238095Y-12454819D01*
X8523809Y-12454819D02*
X8523809Y-11454819D01*
X8523809Y-11454819D02*
X8428571Y-11597676D01*
X8428571Y-11597676D02*
X8333333Y-11692914D01*
X8333333Y-11692914D02*
X8238095Y-11740533D01*
X10880952Y-1454819D02*
X10404762Y-1454819D01*
X10404762Y-1454819D02*
X10404762Y-454819D01*
X11214286Y-931009D02*
X11547619Y-931009D01*
X11690476Y-1454819D02*
X11214286Y-1454819D01*
X11214286Y-1454819D02*
X11214286Y-454819D01*
X11214286Y-454819D02*
X11690476Y-454819D01*
X12119048Y-1454819D02*
X12119048Y-454819D01*
X12119048Y-454819D02*
X12357143Y-454819D01*
X12357143Y-454819D02*
X12500000Y-502438D01*
X12500000Y-502438D02*
X12595238Y-597676D01*
X12595238Y-597676D02*
X12642857Y-692914D01*
X12642857Y-692914D02*
X12690476Y-883390D01*
X12690476Y-883390D02*
X12690476Y-1026247D01*
X12690476Y-1026247D02*
X12642857Y-1216723D01*
X12642857Y-1216723D02*
X12595238Y-1311961D01*
X12595238Y-1311961D02*
X12500000Y-1407200D01*
X12500000Y-1407200D02*
X12357143Y-1454819D01*
X12357143Y-1454819D02*
X12119048Y-1454819D01*
X13642857Y-1454819D02*
X13071429Y-1454819D01*
X13357143Y-1454819D02*
X13357143Y-454819D01*
X13357143Y-454819D02*
X13261905Y-597676D01*
X13261905Y-597676D02*
X13166667Y-692914D01*
X13166667Y-692914D02*
X13071429Y-740533D01*
X12880952Y-1454819D02*
X12404762Y-1454819D01*
X12404762Y-1454819D02*
X12404762Y-454819D01*
X13214286Y-931009D02*
X13547619Y-931009D01*
X13690476Y-1454819D02*
X13214286Y-1454819D01*
X13214286Y-1454819D02*
X13214286Y-454819D01*
X13214286Y-454819D02*
X13690476Y-454819D01*
X14119048Y-1454819D02*
X14119048Y-454819D01*
X14119048Y-454819D02*
X14357143Y-454819D01*
X14357143Y-454819D02*
X14500000Y-502438D01*
X14500000Y-502438D02*
X14595238Y-597676D01*
X14595238Y-597676D02*
X14642857Y-692914D01*
X14642857Y-692914D02*
X14690476Y-883390D01*
X14690476Y-883390D02*
X14690476Y-1026247D01*
X14690476Y-1026247D02*
X14642857Y-1216723D01*
X14642857Y-1216723D02*
X14595238Y-1311961D01*
X14595238Y-1311961D02*
X14500000Y-1407200D01*
X14500000Y-1407200D02*
X14357143Y-1454819D01*
X14357143Y-1454819D02*
X14119048Y-1454819D01*
X15071429Y-550057D02*
X15119048Y-502438D01*
X15119048Y-502438D02*
X15214286Y-454819D01*
X15214286Y-454819D02*
X15452381Y-454819D01*
X15452381Y-454819D02*
X15547619Y-502438D01*
X15547619Y-502438D02*
X15595238Y-550057D01*
X15595238Y-550057D02*
X15642857Y-645295D01*
X15642857Y-645295D02*
X15642857Y-740533D01*
X15642857Y-740533D02*
X15595238Y-883390D01*
X15595238Y-883390D02*
X15023810Y-1454819D01*
X15023810Y-1454819D02*
X15642857Y-1454819D01*
X4666666Y-14454819D02*
X4666666Y-15169104D01*
X4666666Y-15169104D02*
X4619047Y-15311961D01*
X4619047Y-15311961D02*
X4523809Y-15407200D01*
X4523809Y-15407200D02*
X4380952Y-15454819D01*
X4380952Y-15454819D02*
X4285714Y-15454819D01*
X5666666Y-15454819D02*
X5095238Y-15454819D01*
X5380952Y-15454819D02*
X5380952Y-14454819D01*
X5380952Y-14454819D02*
X5285714Y-14597676D01*
X5285714Y-14597676D02*
X5190476Y-14692914D01*
X5190476Y-14692914D02*
X5095238Y-14740533D01*
X1666666Y-1454819D02*
X1666666Y-2169104D01*
X1666666Y-2169104D02*
X1619047Y-2311961D01*
X1619047Y-2311961D02*
X1523809Y-2407200D01*
X1523809Y-2407200D02*
X1380952Y-2454819D01*
X1380952Y-2454819D02*
X1285714Y-2454819D01*
X2095238Y-1550057D02*
X2142857Y-1502438D01*
X2142857Y-1502438D02*
X2238095Y-1454819D01*
X2238095Y-1454819D02*
X2476190Y-1454819D01*
X2476190Y-1454819D02*
X2571428Y-1502438D01*
X2571428Y-1502438D02*
X2619047Y-1550057D01*
X2619047Y-1550057D02*
X2666666Y-1645295D01*
X2666666Y-1645295D02*
X2666666Y-1740533D01*
X2666666Y-1740533D02*
X2619047Y-1883390D01*
X2619047Y-1883390D02*
X2047619Y-2454819D01*
X2047619Y-2454819D02*
X2666666Y-2454819D01*
X1666666Y-4454819D02*
X1666666Y-5169104D01*
X1666666Y-5169104D02*
X1619047Y-5311961D01*
X1619047Y-5311961D02*
X1523809Y-5407200D01*
X1523809Y-5407200D02*
X1380952Y-5454819D01*
X1380952Y-5454819D02*
X1285714Y-5454819D01*
X2047619Y-4454819D02*
X2666666Y-4454819D01*
X2666666Y-4454819D02*
X2333333Y-4835771D01*
X2333333Y-4835771D02*
X2476190Y-4835771D01*
X2476190Y-4835771D02*
X2571428Y-4883390D01*
X2571428Y-4883390D02*
X2619047Y-4931009D01*
X2619047Y-4931009D02*
X2666666Y-5026247D01*
X2666666Y-5026247D02*
X2666666Y-5264342D01*
X2666666Y-5264342D02*
X2619047Y-5359580D01*
X2619047Y-5359580D02*
X2571428Y-5407200D01*
X2571428Y-5407200D02*
X2476190Y-5454819D01*
X2476190Y-5454819D02*
X2190476Y-5454819D01*
X2190476Y-5454819D02*
X2095238Y-5407200D01*
X2095238Y-5407200D02*
X2047619Y-5359580D01*
X21666666Y-16454819D02*
X21666666Y-17169104D01*
X21666666Y-17169104D02*
X21619047Y-17311961D01*
X21619047Y-17311961D02*
X21523809Y-17407200D01*
X21523809Y-17407200D02*
X21380952Y-17454819D01*
X21380952Y-17454819D02*
X21285714Y-17454819D01*
X22571428Y-16788152D02*
X22571428Y-17454819D01*
X22333333Y-16407200D02*
X22095238Y-17121485D01*
X22095238Y-17121485D02*
X22714285Y-17121485D01*
X6738095Y-4407200D02*
X6880952Y-4454819D01*
X6880952Y-4454819D02*
X7119047Y-4454819D01*
X7119047Y-4454819D02*
X7214285Y-4407200D01*
X7214285Y-4407200D02*
X7261904Y-4359580D01*
X7261904Y-4359580D02*
X7309523Y-4264342D01*
X7309523Y-4264342D02*
X7309523Y-4169104D01*
X7309523Y-4169104D02*
X7261904Y-4073866D01*
X7261904Y-4073866D02*
X7214285Y-4026247D01*
X7214285Y-4026247D02*
X7119047Y-3978628D01*
X7119047Y-3978628D02*
X6928571Y-3931009D01*
X6928571Y-3931009D02*
X6833333Y-3883390D01*
X6833333Y-3883390D02*
X6785714Y-3835771D01*
X6785714Y-3835771D02*
X6738095Y-3740533D01*
X6738095Y-3740533D02*
X6738095Y-3645295D01*
X6738095Y-3645295D02*
X6785714Y-3550057D01*
X6785714Y-3550057D02*
X6833333Y-3502438D01*
X6833333Y-3502438D02*
X6928571Y-3454819D01*
X6928571Y-3454819D02*
X7166666Y-3454819D01*
X7166666Y-3454819D02*
X7309523Y-3502438D01*
X8309523Y-4359580D02*
X8261904Y-4407200D01*
X8261904Y-4407200D02*
X8119047Y-4454819D01*
X8119047Y-4454819D02*
X8023809Y-4454819D01*
X8023809Y-4454819D02*
X7880952Y-4407200D01*
X7880952Y-4407200D02*
X7785714Y-4311961D01*
X7785714Y-4311961D02*
X7738095Y-4216723D01*
X7738095Y-4216723D02*
X7690476Y-4026247D01*
X7690476Y-4026247D02*
X7690476Y-3883390D01*
X7690476Y-3883390D02*
X7738095Y-3692914D01*
X7738095Y-3692914D02*
X7785714Y-3597676D01*
X7785714Y-3597676D02*
X7880952Y-3502438D01*
X7880952Y-3502438D02*
X8023809Y-3454819D01*
X8023809Y-3454819D02*
X8119047Y-3454819D01*
X8119047Y-3454819D02*
X8261904Y-3502438D01*
X8261904Y-3502438D02*
X8309523Y-3550057D01*
X9261904Y-4454819D02*
X8690476Y-4454819D01*
X8976190Y-4454819D02*
X8976190Y-3454819D01*
X8976190Y-3454819D02*
X8880952Y-3597676D01*
X8880952Y-3597676D02*
X8785714Y-3692914D01*
X8785714Y-3692914D02*
X8690476Y-3740533D01*
X25261905Y-10454819D02*
X25261905Y-9454819D01*
X25261905Y-9454819D02*
X25500000Y-9454819D01*
X25500000Y-9454819D02*
X25642857Y-9502438D01*
X25642857Y-9502438D02*
X25738095Y-9597676D01*
X25738095Y-9597676D02*
X25785714Y-9692914D01*
X25785714Y-9692914D02*
X25833333Y-9883390D01*
X25833333Y-9883390D02*
X25833333Y-10026247D01*
X25833333Y-10026247D02*
X25785714Y-10216723D01*
X25785714Y-10216723D02*
X25738095Y-10311961D01*
X25738095Y-10311961D02*
X25642857Y-10407200D01*
X25642857Y-10407200D02*
X25500000Y-10454819D01*
X25500000Y-10454819D02*
X25261905Y-10454819D01*
X26785714Y-10454819D02*
X26214286Y-10454819D01*
X26500000Y-10454819D02*
X26500000Y-9454819D01*
X26500000Y-9454819D02*
X26404762Y-9597676D01*
X26404762Y-9597676D02*
X26309524Y-9692914D01*
X26309524Y-9692914D02*
X26214286Y-9740533D01*
X7261905Y-14454819D02*
X7261905Y-13454819D01*
X7261905Y-13454819D02*
X7500000Y-13454819D01*
X7500000Y-13454819D02*
X7642857Y-13502438D01*
X7642857Y-13502438D02*
X7738095Y-13597676D01*
X7738095Y-13597676D02*
X7785714Y-13692914D01*
X7785714Y-13692914D02*
X7833333Y-13883390D01*
X7833333Y-13883390D02*
X7833333Y-14026247D01*
X7833333Y-14026247D02*
X7785714Y-14216723D01*
X7785714Y-14216723D02*
X7738095Y-14311961D01*
X7738095Y-14311961D02*
X7642857Y-14407200D01*
X7642857Y-14407200D02*
X7500000Y-14454819D01*
X7500000Y-14454819D02*
X7261905Y-14454819D01*
X8214286Y-13550057D02*
X8261905Y-13502438D01*
X8261905Y-13502438D02*
X8357143Y-13454819D01*
X8357143Y-13454819D02*
X8595238Y-13454819D01*
X8595238Y-13454819D02*
X8690476Y-13502438D01*
X8690476Y-13502438D02*
X8738095Y-13550057D01*
X8738095Y-13550057D02*
X8785714Y-13645295D01*
X8785714Y-13645295D02*
X8785714Y-13740533D01*
X8785714Y-13740533D02*
X8738095Y-13883390D01*
X8738095Y-13883390D02*
X8166667Y-14454819D01*
X8166667Y-14454819D02*
X8785714Y-14454819D01*
%LPC*%
%LPD*%
M02*
