%TF.GenerationSoftware,KiCad,Pcbnew,6.0.11+dfsg-1*%
%TF.CreationDate,2026-07-27T13:39:11+02:00*%
%TF.ProjectId,mykovolt_devkit,6d796b6f-766f-46c7-945f-6465766b6974,rev?*%
%TF.SameCoordinates,Original*%
%TF.FileFunction,Copper,L4,Bot*%
%TF.FilePolarity,Positive*%
%FSLAX46Y46*%
G04 Gerber Fmt 4.6, Leading zero omitted, Abs format (unit mm)*
G04 Created by KiCad (PCBNEW 6.0.11+dfsg-1) date 2026-07-27 13:39:11*
%MOMM*%
%LPD*%
G01*
G04 APERTURE LIST*
G04 Aperture macros list*
%AMRoundRect*
0 Rectangle with rounded corners*
0 $1 Rounding radius*
0 $2 $3 $4 $5 $6 $7 $8 $9 X,Y pos of 4 corners*
0 Add a 4 corners polygon primitive as box body*
4,1,4,$2,$3,$4,$5,$6,$7,$8,$9,$2,$3,0*
0 Add four circle primitives for the rounded corners*
1,1,$1+$1,$2,$3*
1,1,$1+$1,$4,$5*
1,1,$1+$1,$6,$7*
1,1,$1+$1,$8,$9*
0 Add four rect primitives between the rounded corners*
20,1,$1+$1,$2,$3,$4,$5,0*
20,1,$1+$1,$4,$5,$6,$7,0*
20,1,$1+$1,$6,$7,$8,$9,0*
20,1,$1+$1,$8,$9,$2,$3,0*%
G04 Aperture macros list end*
%TA.AperFunction,Profile*%
%ADD10C,0.100000*%
%TD*%
%TA.AperFunction,ComponentPad*%
%ADD11RoundRect,0.250000X-0.350000X-0.625000X0.350000X-0.625000X0.350000X0.625000X-0.350000X0.625000X0*%
%TD*%
%TA.AperFunction,ComponentPad*%
%ADD12O,1.200000X1.750000*%
%TD*%
%TA.AperFunction,ComponentPad*%
%ADD13R,1.600000X1.600000*%
%TD*%
%TA.AperFunction,ComponentPad*%
%ADD14C,1.600000*%
%TD*%
%TA.AperFunction,ViaPad*%
%ADD15C,0.500000*%
%TD*%
%TA.AperFunction,Conductor*%
%ADD16C,0.300000*%
%TD*%
%TA.AperFunction,Conductor*%
%ADD17C,0.200000*%
%TD*%
%ADD18C,0.250000*%
%ADD19C,0.350000*%
G04 APERTURE END LIST*
D10*
X30000000Y0D02*
X30000000Y-20000000D01*
X0Y-20000000D02*
X0Y0D01*
X0Y0D02*
X30000000Y0D01*
X30000000Y-20000000D02*
X0Y-20000000D01*
D11*
X2000000Y-5000000D03*
D12*
X4000000Y-5000000D03*
D13*
X8000000Y-4000000D03*
D14*
X11500000Y-4000000D03*
D11*
X2000000Y-2000000D03*
D12*
X4000000Y-2000000D03*
D15*
X5000000Y-11000000D03*
X13000000Y-11000000D03*
X25000000Y-11000000D03*
X19000000Y-13000000D03*
X19000000Y-9000000D03*
X23000000Y-15000000D03*
X11000000Y-9000000D03*
X17000000Y-11000000D03*
X21000000Y-13000000D03*
X3000000Y-9000000D03*
X17000000Y-7000000D03*
X23000000Y-9000000D03*
D16*
X15450000Y-15500000D02*
X15450000Y-17000000D01*
X13650000Y-15500000D02*
X13650000Y-17000000D01*
X11850000Y-15500000D02*
X11850000Y-17000000D01*
X16050000Y-15500000D02*
X16050000Y-17000000D01*
X14850000Y-15500000D02*
X14850000Y-17000000D01*
X14250000Y-15500000D02*
X14250000Y-17000000D01*
D17*
X15000000Y-17000000D02*
X21000000Y-17000000D01*
D16*
X16650000Y-15500000D02*
X16650000Y-17000000D01*
X17250000Y-15500000D02*
X17250000Y-17000000D01*
X12450000Y-15500000D02*
X12450000Y-17000000D01*
X13050000Y-15500000D02*
X13050000Y-17000000D01*
X11850000Y-15500000D02*
X12150000Y-15500000D01*
X15300000Y-17000000D02*
X15300000Y-18500000D01*
X16500000Y-17000000D02*
X16500000Y-18500000D01*
X16500000Y-18500000D02*
X17400000Y-18500000D01*
X12300000Y-17000000D02*
X12300000Y-18500000D01*
X17100000Y-17000000D02*
X17100000Y-18500000D01*
X13500000Y-17000000D02*
X13500000Y-18500000D01*
X14100000Y-17000000D02*
X14100000Y-18500000D01*
D17*
X16000000Y-17000000D02*
X22000000Y-17000000D01*
D16*
X14700000Y-17000000D02*
X14700000Y-18500000D01*
X12900000Y-17000000D02*
X12900000Y-18500000D01*
X15900000Y-17000000D02*
X15900000Y-18500000D01*
D17*
X11350000Y-15000000D02*
X18650000Y-15000000D01*
X11350000Y-19000000D02*
X11350000Y-15000000D01*
X18650000Y-15000000D02*
X18650000Y-19000000D01*
X18650000Y-19000000D02*
X11350000Y-19000000D01*
D18*
X5000000Y-11000000D03*
X13000000Y-11000000D03*
X25000000Y-11000000D03*
X19000000Y-13000000D03*
X19000000Y-9000000D03*
X23000000Y-15000000D03*
X11000000Y-9000000D03*
X17000000Y-11000000D03*
X21000000Y-13000000D03*
X3000000Y-9000000D03*
X17000000Y-7000000D03*
X23000000Y-9000000D03*
D19*
X2000000Y-5000000D03*
X4000000Y-5000000D03*
X8000000Y-4000000D03*
X11500000Y-4000000D03*
X2000000Y-2000000D03*
X4000000Y-2000000D03*
M02*
