%TF.GenerationSoftware,KiCad,Pcbnew,9.0.8+1*%
%TF.CreationDate,2026-07-29T07:24:13+02:00*%
%TF.ProjectId,mykovolt_devkit,6d796b6f-766f-46c7-945f-6465766b6974,rev?*%
%TF.SameCoordinates,Original*%
%TF.FileFunction,Legend,Bot*%
%TF.FilePolarity,Positive*%
%FSLAX46Y46*%
G04 Gerber Fmt 4.6, Leading zero omitted, Abs format (unit mm)*
G04 Created by KiCad (PCBNEW 9.0.8+1) date 2026-07-29 07:24:13*
%MOMM*%
%LPD*%
G01*
G04 APERTURE LIST*
G04 Aperture macros list*
%AMRoundRect*
0 Rectangle with rounded corners*
0 $1 Rounding radius*
0 $2 $3 $4 $5 $6 $7 $8 $9 X,Y pos of 4 corners*
0 Add a 4 corners polygon primitive as box body*
4,1,4,$2,$3,$4,$5,$6,$7,$8,$9,$2,$3,0*
0 Add four circle primitives for the rounded corners*
1,1,$1+$1,$2,$3*
1,1,$1+$1,$4,$5*
1,1,$1+$1,$6,$7*
1,1,$1+$1,$8,$9*
0 Add four rect primitives between the rounded corners*
20,1,$1+$1,$2,$3,$4,$5,0*
20,1,$1+$1,$4,$5,$6,$7,0*
20,1,$1+$1,$6,$7,$8,$9,0*
20,1,$1+$1,$8,$9,$2,$3,0*%
G04 Aperture macros list end*
%ADD10C,0.100000*%
%ADD11RoundRect,0.250000X-0.350000X-0.625000X0.350000X-0.625000X0.350000X0.625000X-0.350000X0.625000X0*%
%ADD12O,1.200000X1.750000*%
%ADD13RoundRect,0.250000X-0.550000X-0.550000X0.550000X-0.550000X0.550000X0.550000X-0.550000X0.550000X0*%
%ADD14C,1.600000*%
%ADD15C,0.350000*%
G04 APERTURE END LIST*
D10*
X13342857Y-18243800D02*
X13428572Y-18272371D01*
X13428572Y-18272371D02*
X13571429Y-18272371D01*
X13571429Y-18272371D02*
X13628572Y-18243800D01*
X13628572Y-18243800D02*
X13657143Y-18215228D01*
X13657143Y-18215228D02*
X13685714Y-18158085D01*
X13685714Y-18158085D02*
X13685714Y-18100942D01*
X13685714Y-18100942D02*
X13657143Y-18043800D01*
X13657143Y-18043800D02*
X13628572Y-18015228D01*
X13628572Y-18015228D02*
X13571429Y-17986657D01*
X13571429Y-17986657D02*
X13457143Y-17958085D01*
X13457143Y-17958085D02*
X13400000Y-17929514D01*
X13400000Y-17929514D02*
X13371429Y-17900942D01*
X13371429Y-17900942D02*
X13342857Y-17843800D01*
X13342857Y-17843800D02*
X13342857Y-17786657D01*
X13342857Y-17786657D02*
X13371429Y-17729514D01*
X13371429Y-17729514D02*
X13400000Y-17700942D01*
X13400000Y-17700942D02*
X13457143Y-17672371D01*
X13457143Y-17672371D02*
X13600000Y-17672371D01*
X13600000Y-17672371D02*
X13685714Y-17700942D01*
X13942858Y-17958085D02*
X14142858Y-17958085D01*
X14228572Y-18272371D02*
X13942858Y-18272371D01*
X13942858Y-18272371D02*
X13942858Y-17672371D01*
X13942858Y-17672371D02*
X14228572Y-17672371D01*
X14485715Y-18272371D02*
X14485715Y-17672371D01*
X14485715Y-17672371D02*
X14828572Y-18272371D01*
X14828572Y-18272371D02*
X14828572Y-17672371D01*
X15085714Y-18243800D02*
X15171429Y-18272371D01*
X15171429Y-18272371D02*
X15314286Y-18272371D01*
X15314286Y-18272371D02*
X15371429Y-18243800D01*
X15371429Y-18243800D02*
X15400000Y-18215228D01*
X15400000Y-18215228D02*
X15428571Y-18158085D01*
X15428571Y-18158085D02*
X15428571Y-18100942D01*
X15428571Y-18100942D02*
X15400000Y-18043800D01*
X15400000Y-18043800D02*
X15371429Y-18015228D01*
X15371429Y-18015228D02*
X15314286Y-17986657D01*
X15314286Y-17986657D02*
X15200000Y-17958085D01*
X15200000Y-17958085D02*
X15142857Y-17929514D01*
X15142857Y-17929514D02*
X15114286Y-17900942D01*
X15114286Y-17900942D02*
X15085714Y-17843800D01*
X15085714Y-17843800D02*
X15085714Y-17786657D01*
X15085714Y-17786657D02*
X15114286Y-17729514D01*
X15114286Y-17729514D02*
X15142857Y-17700942D01*
X15142857Y-17700942D02*
X15200000Y-17672371D01*
X15200000Y-17672371D02*
X15342857Y-17672371D01*
X15342857Y-17672371D02*
X15428571Y-17700942D01*
X15800000Y-17672371D02*
X15914286Y-17672371D01*
X15914286Y-17672371D02*
X15971429Y-17700942D01*
X15971429Y-17700942D02*
X16028572Y-17758085D01*
X16028572Y-17758085D02*
X16057143Y-17872371D01*
X16057143Y-17872371D02*
X16057143Y-18072371D01*
X16057143Y-18072371D02*
X16028572Y-18186657D01*
X16028572Y-18186657D02*
X15971429Y-18243800D01*
X15971429Y-18243800D02*
X15914286Y-18272371D01*
X15914286Y-18272371D02*
X15800000Y-18272371D01*
X15800000Y-18272371D02*
X15742858Y-18243800D01*
X15742858Y-18243800D02*
X15685715Y-18186657D01*
X15685715Y-18186657D02*
X15657143Y-18072371D01*
X15657143Y-18072371D02*
X15657143Y-17872371D01*
X15657143Y-17872371D02*
X15685715Y-17758085D01*
X15685715Y-17758085D02*
X15742858Y-17700942D01*
X15742858Y-17700942D02*
X15800000Y-17672371D01*
X16657143Y-18272371D02*
X16457143Y-17986657D01*
X16314286Y-18272371D02*
X16314286Y-17672371D01*
X16314286Y-17672371D02*
X16542857Y-17672371D01*
X16542857Y-17672371D02*
X16600000Y-17700942D01*
X16600000Y-17700942D02*
X16628571Y-17729514D01*
X16628571Y-17729514D02*
X16657143Y-17786657D01*
X16657143Y-17786657D02*
X16657143Y-17872371D01*
X16657143Y-17872371D02*
X16628571Y-17929514D01*
X16628571Y-17929514D02*
X16600000Y-17958085D01*
X16600000Y-17958085D02*
X16542857Y-17986657D01*
X16542857Y-17986657D02*
X16314286Y-17986657D01*
%LPC*%
D11*
X2000000Y-5000000D03*
D12*
X4000000Y-5000000D03*
D11*
X2000000Y-2000000D03*
D12*
X4000000Y-2000000D03*
D13*
X8000000Y-4000000D03*
D14*
X11500000Y-4000000D03*
%LPD*%
D15*
X2000000Y-5000000D03*
X4000000Y-5000000D03*
X2000000Y-2000000D03*
X4000000Y-2000000D03*
X8000000Y-4000000D03*
X11500000Y-4000000D03*
M02*
