%TF.GenerationSoftware,KiCad,Pcbnew,6.0.11+dfsg-1*%
%TF.CreationDate,2026-07-27T13:39:11+02:00*%
%TF.ProjectId,mykovolt_devkit,6d796b6f-766f-46c7-945f-6465766b6974,rev?*%
%TF.SameCoordinates,Original*%
%TF.FileFunction,Copper,L1,Top*%
%TF.FilePolarity,Positive*%
%FSLAX46Y46*%
G04 Gerber Fmt 4.6, Leading zero omitted, Abs format (unit mm)*
G04 Created by KiCad (PCBNEW 6.0.11+dfsg-1) date 2026-07-27 13:39:11*
%MOMM*%
%LPD*%
G01*
G04 APERTURE LIST*
G04 Aperture macros list*
%AMRoundRect*
0 Rectangle with rounded corners*
0 $1 Rounding radius*
0 $2 $3 $4 $5 $6 $7 $8 $9 X,Y pos of 4 corners*
0 Add a 4 corners polygon primitive as box body*
4,1,4,$2,$3,$4,$5,$6,$7,$8,$9,$2,$3,0*
0 Add four circle primitives for the rounded corners*
1,1,$1+$1,$2,$3*
1,1,$1+$1,$4,$5*
1,1,$1+$1,$6,$7*
1,1,$1+$1,$8,$9*
0 Add four rect primitives between the rounded corners*
20,1,$1+$1,$2,$3,$4,$5,0*
20,1,$1+$1,$4,$5,$6,$7,0*
20,1,$1+$1,$6,$7,$8,$9,0*
20,1,$1+$1,$8,$9,$2,$3,0*%
G04 Aperture macros list end*
%TA.AperFunction,Profile*%
%ADD10C,0.100000*%
%TD*%
%TA.AperFunction,SMDPad,CuDef*%
%ADD11RoundRect,0.150000X-0.825000X-0.150000X0.825000X-0.150000X0.825000X0.150000X-0.825000X0.150000X0*%
%TD*%
%TA.AperFunction,SMDPad,CuDef*%
%ADD12RoundRect,0.225000X-0.225000X-0.250000X0.225000X-0.250000X0.225000X0.250000X-0.225000X0.250000X0*%
%TD*%
%TA.AperFunction,SMDPad,CuDef*%
%ADD13R,2.400000X0.740000*%
%TD*%
%TA.AperFunction,SMDPad,CuDef*%
%ADD14R,0.600000X0.700000*%
%TD*%
%TA.AperFunction,SMDPad,CuDef*%
%ADD15RoundRect,0.200000X-0.200000X-0.275000X0.200000X-0.275000X0.200000X0.275000X-0.200000X0.275000X0*%
%TD*%
%TA.AperFunction,SMDPad,CuDef*%
%ADD16R,1.500000X3.600000*%
%TD*%
%TA.AperFunction,ComponentPad*%
%ADD17RoundRect,0.250000X-0.350000X-0.625000X0.350000X-0.625000X0.350000X0.625000X-0.350000X0.625000X0*%
%TD*%
%TA.AperFunction,ComponentPad*%
%ADD18O,1.200000X1.750000*%
%TD*%
%TA.AperFunction,SMDPad,CuDef*%
%ADD19RoundRect,0.250000X-0.250000X-0.475000X0.250000X-0.475000X0.250000X0.475000X-0.250000X0.475000X0*%
%TD*%
%TA.AperFunction,SMDPad,CuDef*%
%ADD20R,0.280000X0.280000*%
%TD*%
%TA.AperFunction,SMDPad,CuDef*%
%ADD21O,0.850000X0.280000*%
%TD*%
%TA.AperFunction,SMDPad,CuDef*%
%ADD22R,0.230000X0.600000*%
%TD*%
%TA.AperFunction,SMDPad,CuDef*%
%ADD23R,0.650000X0.900000*%
%TD*%
%TA.AperFunction,SMDPad,CuDef*%
%ADD24R,0.250000X0.700000*%
%TD*%
%TA.AperFunction,SMDPad,CuDef*%
%ADD25R,1.700000X2.150000*%
%TD*%
%TA.AperFunction,SMDPad,CuDef*%
%ADD26R,1.150000X3.600000*%
%TD*%
%TA.AperFunction,SMDPad,CuDef*%
%ADD27R,1.000000X1.800000*%
%TD*%
%TA.AperFunction,SMDPad,CuDef*%
%ADD28RoundRect,0.062500X-0.375000X-0.062500X0.375000X-0.062500X0.375000X0.062500X-0.375000X0.062500X0*%
%TD*%
%TA.AperFunction,SMDPad,CuDef*%
%ADD29RoundRect,0.062500X-0.062500X-0.375000X0.062500X-0.375000X0.062500X0.375000X-0.062500X0.375000X0*%
%TD*%
%TA.AperFunction,SMDPad,CuDef*%
%ADD30R,2.000000X2.000000*%
%TD*%
%TA.AperFunction,ComponentPad*%
%ADD31R,1.600000X1.600000*%
%TD*%
%TA.AperFunction,ComponentPad*%
%ADD32C,1.600000*%
%TD*%
%TA.AperFunction,SMDPad,CuDef*%
%ADD33RoundRect,0.218750X-0.218750X-0.256250X0.218750X-0.256250X0.218750X0.256250X-0.218750X0.256250X0*%
%TD*%
%TA.AperFunction,SMDPad,CuDef*%
%ADD34RoundRect,0.100000X-0.637500X-0.100000X0.637500X-0.100000X0.637500X0.100000X-0.637500X0.100000X0*%
%TD*%
%TA.AperFunction,SMDPad,CuDef*%
%ADD35R,0.500000X0.375000*%
%TD*%
%TA.AperFunction,SMDPad,CuDef*%
%ADD36R,0.650000X0.300000*%
%TD*%
%TA.AperFunction,SMDPad,CuDef*%
%ADD37R,0.700000X0.450000*%
%TD*%
%TA.AperFunction,ViaPad*%
%ADD38C,0.500000*%
%TD*%
%TA.AperFunction,Conductor*%
%ADD39C,0.300000*%
%TD*%
%TA.AperFunction,Conductor*%
%ADD40C,0.500000*%
%TD*%
%ADD41C,0.250000*%
%ADD42C,0.350000*%
G04 APERTURE END LIST*
D10*
X30000000Y0D02*
X30000000Y-20000000D01*
X0Y-20000000D02*
X0Y0D01*
X0Y0D02*
X30000000Y0D01*
X30000000Y-20000000D02*
X0Y-20000000D01*
D11*
X15525000Y-6095000D03*
X15525000Y-7365000D03*
X15525000Y-8635000D03*
X15525000Y-9905000D03*
X20475000Y-9905000D03*
X20475000Y-8635000D03*
X20475000Y-7365000D03*
X20475000Y-6095000D03*
D12*
X5225000Y-6000000D03*
X6775000Y-6000000D03*
D13*
X20050000Y-15730000D03*
X23950000Y-15730000D03*
X20050000Y-17000000D03*
X23950000Y-17000000D03*
X20050000Y-18270000D03*
X23950000Y-18270000D03*
D12*
X20225000Y-15000000D03*
X21775000Y-15000000D03*
X10225000Y-11800000D03*
X11775000Y-11800000D03*
X9225000Y-10000000D03*
X10775000Y-10000000D03*
X12225000Y-11800000D03*
X13775000Y-11800000D03*
X22225000Y-11000000D03*
X23775000Y-11000000D03*
D14*
X7300000Y-14000000D03*
X8700000Y-14000000D03*
D15*
X9175000Y-15000000D03*
X10825000Y-15000000D03*
X11175000Y-2000000D03*
X12825000Y-2000000D03*
X19175000Y-8000000D03*
X20825000Y-8000000D03*
D16*
X2475000Y-7000000D03*
X5525000Y-7000000D03*
D12*
X13225000Y-13000000D03*
X14775000Y-13000000D03*
X9225000Y-11000000D03*
X10775000Y-11000000D03*
D17*
X2000000Y-5000000D03*
D18*
X4000000Y-5000000D03*
D19*
X5050000Y-4000000D03*
X6950000Y-4000000D03*
D11*
X15525000Y-10095000D03*
X15525000Y-11365000D03*
X15525000Y-12635000D03*
X15525000Y-13905000D03*
X20475000Y-13905000D03*
X20475000Y-12635000D03*
X20475000Y-11365000D03*
X20475000Y-10095000D03*
D15*
X4175000Y-8000000D03*
X5825000Y-8000000D03*
D20*
X20240000Y-13000000D03*
D21*
X20525000Y-13000000D03*
X20525000Y-13500000D03*
D20*
X20240000Y-13500000D03*
X20240000Y-14000000D03*
D21*
X20525000Y-14000000D03*
X20525000Y-14500000D03*
D20*
X20240000Y-14500000D03*
X20240000Y-15000000D03*
D21*
X20525000Y-15000000D03*
D20*
X23760000Y-15000000D03*
D21*
X23475000Y-15000000D03*
D20*
X23760000Y-14500000D03*
D21*
X23475000Y-14500000D03*
X23475000Y-14000000D03*
D20*
X23760000Y-14000000D03*
X23760000Y-13500000D03*
D21*
X23475000Y-13500000D03*
X23475000Y-13000000D03*
D20*
X23760000Y-13000000D03*
D22*
X22600000Y-12575000D03*
X21400000Y-15425000D03*
D23*
X22435000Y-13440000D03*
D22*
X21800000Y-12575000D03*
D23*
X21565000Y-13440000D03*
D22*
X22200000Y-12575000D03*
D23*
X21565000Y-14560000D03*
D24*
X21800000Y-12575000D03*
X22600000Y-12575000D03*
D22*
X22600000Y-15425000D03*
D24*
X22600000Y-15425000D03*
X21400000Y-12575000D03*
X22200000Y-12575000D03*
D22*
X21400000Y-12575000D03*
D25*
X22000000Y-14000000D03*
D24*
X21800000Y-15425000D03*
D22*
X22200000Y-15425000D03*
D24*
X21400000Y-15425000D03*
D23*
X22435000Y-14560000D03*
D24*
X22200000Y-15425000D03*
D22*
X21800000Y-15425000D03*
D12*
X9225000Y-9000000D03*
X10775000Y-9000000D03*
X14225000Y-14000000D03*
X15775000Y-14000000D03*
X13225000Y-10500000D03*
X14775000Y-10500000D03*
D26*
X1525000Y-6000000D03*
X4475000Y-6000000D03*
D12*
X15225000Y-14000000D03*
X16775000Y-14000000D03*
X13225000Y-11500000D03*
X14775000Y-11500000D03*
D19*
X4050000Y-4000000D03*
X5950000Y-4000000D03*
D27*
X15250000Y-12000000D03*
X12750000Y-12000000D03*
D28*
X2312500Y-9000000D03*
X2312500Y-9500000D03*
X2312500Y-10000000D03*
X2312500Y-10500000D03*
X2312500Y-11000000D03*
D29*
X3000000Y-11687500D03*
X3500000Y-11687500D03*
X4000000Y-11687500D03*
X4500000Y-11687500D03*
X5000000Y-11687500D03*
D28*
X5687500Y-11000000D03*
X5687500Y-10500000D03*
X5687500Y-10000000D03*
X5687500Y-9500000D03*
X5687500Y-9000000D03*
D29*
X5000000Y-8312500D03*
X4500000Y-8312500D03*
X4000000Y-8312500D03*
X3500000Y-8312500D03*
X3000000Y-8312500D03*
D30*
X4000000Y-10000000D03*
D15*
X4175000Y-5000000D03*
X5825000Y-5000000D03*
D31*
X8000000Y-4000000D03*
D32*
X11500000Y-4000000D03*
D12*
X14225000Y-13000000D03*
X15775000Y-13000000D03*
D15*
X3175000Y-8000000D03*
X4825000Y-8000000D03*
D17*
X2000000Y-2000000D03*
D18*
X4000000Y-2000000D03*
D15*
X10175000Y-15000000D03*
X11825000Y-15000000D03*
X3175000Y-5000000D03*
X4825000Y-5000000D03*
D12*
X12725000Y-8500000D03*
X14275000Y-8500000D03*
D33*
X11212500Y-1000000D03*
X12787500Y-1000000D03*
D15*
X5175000Y-8000000D03*
X6825000Y-8000000D03*
X6175000Y-8000000D03*
X7825000Y-8000000D03*
D12*
X11725000Y-8500000D03*
X13275000Y-8500000D03*
X10725000Y-8500000D03*
X12275000Y-8500000D03*
D34*
X9137500Y-7075000D03*
X9137500Y-7725000D03*
X9137500Y-8375000D03*
X9137500Y-9025000D03*
X9137500Y-9675000D03*
X9137500Y-10325000D03*
X9137500Y-10975000D03*
X9137500Y-11625000D03*
X9137500Y-12275000D03*
X9137500Y-12925000D03*
X14862500Y-12925000D03*
X14862500Y-12275000D03*
X14862500Y-11625000D03*
X14862500Y-10975000D03*
X14862500Y-10325000D03*
X14862500Y-9675000D03*
X14862500Y-9025000D03*
X14862500Y-8375000D03*
X14862500Y-7725000D03*
X14862500Y-7075000D03*
D11*
X21525000Y-8095000D03*
X21525000Y-9365000D03*
X21525000Y-10635000D03*
X21525000Y-11905000D03*
X26475000Y-11905000D03*
X26475000Y-10635000D03*
X26475000Y-9365000D03*
X26475000Y-8095000D03*
D15*
X20175000Y-8000000D03*
X21825000Y-8000000D03*
D33*
X13212500Y-1000000D03*
X14787500Y-1000000D03*
D12*
X4225000Y-9000000D03*
X5775000Y-9000000D03*
D15*
X12175000Y-2000000D03*
X13825000Y-2000000D03*
X4175000Y-6000000D03*
X5825000Y-6000000D03*
D12*
X9725000Y-8500000D03*
X11275000Y-8500000D03*
X24225000Y-10000000D03*
X25775000Y-10000000D03*
X13225000Y-9500000D03*
X14775000Y-9500000D03*
X13225000Y-7500000D03*
X14775000Y-7500000D03*
D15*
X3175000Y-6000000D03*
X4825000Y-6000000D03*
D13*
X3050000Y-12460000D03*
X6950000Y-12460000D03*
X3050000Y-13730000D03*
X6950000Y-13730000D03*
X3050000Y-15000000D03*
X6950000Y-15000000D03*
X3050000Y-16270000D03*
X6950000Y-16270000D03*
X3050000Y-17540000D03*
X6950000Y-17540000D03*
D35*
X25150000Y-9462500D03*
D36*
X25075000Y-10000000D03*
D35*
X25150000Y-10537500D03*
X26850000Y-10537500D03*
D36*
X26925000Y-10000000D03*
D35*
X26850000Y-9462500D03*
D37*
X7000000Y-11350000D03*
X7000000Y-12650000D03*
X9000000Y-12000000D03*
D38*
X5000000Y-11000000D03*
X13000000Y-11000000D03*
X25000000Y-11000000D03*
X19000000Y-13000000D03*
X19000000Y-9000000D03*
X23000000Y-15000000D03*
X11000000Y-9000000D03*
X17000000Y-11000000D03*
X21000000Y-13000000D03*
X3000000Y-9000000D03*
X17000000Y-7000000D03*
X23000000Y-9000000D03*
D39*
X31400000Y-5600000D02*
X31400000Y-14400000D01*
X19200000Y-6200000D02*
X30800000Y-6200000D01*
X18000000Y-15000000D02*
X18000000Y-5600000D01*
X30800000Y-13800000D02*
X19200000Y-13800000D01*
X19800000Y-9200000D02*
X26500000Y-9200000D01*
X31400000Y-14400000D02*
X18600000Y-14400000D01*
X19200000Y-13800000D02*
X19200000Y-8000000D01*
X32000000Y-5000000D02*
X32000000Y-15000000D01*
X30200000Y-13200000D02*
X19800000Y-13200000D01*
X19800000Y-6800000D02*
X30200000Y-6800000D01*
X30800000Y-6200000D02*
X30800000Y-13800000D01*
X18600000Y-14400000D02*
X18600000Y-6800000D01*
X18600000Y-5600000D02*
X31400000Y-5600000D01*
X32000000Y-15000000D02*
X18000000Y-15000000D01*
X30200000Y-6800000D02*
X30200000Y-13200000D01*
X11300000Y-11000000D02*
X24000000Y-11000000D01*
X23000000Y-10500000D02*
X23000000Y-11000000D01*
X20000000Y-8000000D02*
X20000000Y-11000000D01*
X12300000Y-10500000D02*
X12300000Y-11000000D01*
X17500000Y-11500000D02*
X17500000Y-11000000D01*
X17500000Y-8500000D02*
X17500000Y-11000000D01*
X21500000Y-13500000D02*
X21500000Y-11000000D01*
X17500000Y-11500000D02*
X17500000Y-11000000D01*
X17500000Y-8500000D02*
X17500000Y-11000000D01*
X11300000Y-11000000D02*
X24000000Y-11000000D01*
X12300000Y-10500000D02*
X12300000Y-11000000D01*
X23000000Y-10500000D02*
X23000000Y-11000000D01*
X21000000Y-8000000D02*
X21000000Y-11000000D01*
X21500000Y-13500000D02*
X21500000Y-11000000D01*
D40*
X4000000Y-6000000D02*
X3000000Y-6000000D01*
X4000000Y-8000000D02*
X4000000Y-6000000D01*
X4000000Y-8000000D02*
X4000000Y-7000000D01*
D39*
X8000000Y-12000000D02*
X8000000Y-2000000D01*
X8000000Y-2000000D02*
X12000000Y-2000000D01*
X13000000Y-2000000D02*
X14000000Y-1000000D01*
X12500000Y-10800000D02*
X8000000Y-10800000D01*
X8000000Y-10800000D02*
X8000000Y-10800000D01*
X12500000Y-11500000D02*
X13000000Y-11500000D01*
X13000000Y-11500000D02*
X13000000Y-2000000D01*
X12500000Y-10500000D02*
X23000000Y-10500000D01*
X23000000Y-10500000D02*
X23000000Y-10500000D01*
X24000000Y-10000000D02*
X25000000Y-10000000D01*
X18000000Y-5000000D02*
X32000000Y-5000000D01*
X26500000Y-10000000D02*
X26500000Y-13000000D01*
X5000000Y-15000000D02*
X5000000Y-13000000D01*
X5000000Y-13000000D02*
X14000000Y-13000000D01*
X3500000Y-8000000D02*
X5000000Y-8000000D01*
X3000000Y-8000000D02*
X4000000Y-8000000D01*
X12500000Y-9500000D02*
X17000000Y-9500000D01*
X17000000Y-9500000D02*
X17000000Y-9500000D01*
X21000000Y-10200000D02*
X21000000Y-10200000D01*
X12500000Y-10200000D02*
X21000000Y-10200000D01*
X11000000Y-11500000D02*
X6500000Y-11500000D01*
X6500000Y-11500000D02*
X6500000Y-15000000D01*
X6000000Y-11000000D02*
X6000000Y-15000000D01*
X11000000Y-11000000D02*
X6000000Y-11000000D01*
X5500000Y-12000000D02*
X5500000Y-14000000D01*
X11500000Y-12000000D02*
X5500000Y-12000000D01*
X11000000Y-12000000D02*
X5000000Y-12000000D01*
X5000000Y-12000000D02*
X5000000Y-14000000D01*
X5000000Y-9000000D02*
X5000000Y-9000000D01*
X12500000Y-9000000D02*
X5000000Y-9000000D01*
X3000000Y-7000000D02*
X4000000Y-5000000D01*
X6000000Y-8000000D02*
X7000000Y-8000000D01*
X7000000Y-8000000D02*
X7000000Y-7000000D01*
X3500000Y-9000000D02*
X6000000Y-6000000D01*
X3500000Y-7000000D02*
X5000000Y-5000000D01*
X8000000Y-8000000D02*
X18000000Y-8000000D01*
D40*
X5000000Y-8000000D02*
X5000000Y-4000000D01*
X5000000Y-4000000D02*
X8000000Y-4000000D01*
D39*
X8000000Y-4000000D02*
X8000000Y-8000000D01*
X4000000Y-6000000D02*
X4000000Y-6000000D01*
D40*
X4000000Y-4000000D02*
X4000000Y-6000000D01*
D39*
X4000000Y-5000000D02*
X4000000Y-4000000D01*
D40*
X2000000Y-2000000D02*
X2000000Y-4000000D01*
X2000000Y-4000000D02*
X4000000Y-4000000D01*
D39*
X12000000Y-8500000D02*
X5000000Y-8500000D01*
X13000000Y-11000000D02*
X14000000Y-12000000D01*
X14000000Y-12000000D02*
X15000000Y-14000000D01*
X14000000Y-13000000D02*
X16000000Y-14000000D01*
X13000000Y-11000000D02*
X14000000Y-13000000D01*
D41*
X5000000Y-11000000D03*
X13000000Y-11000000D03*
X25000000Y-11000000D03*
X19000000Y-13000000D03*
X19000000Y-9000000D03*
X23000000Y-15000000D03*
X11000000Y-9000000D03*
X17000000Y-11000000D03*
X21000000Y-13000000D03*
X3000000Y-9000000D03*
X17000000Y-7000000D03*
X23000000Y-9000000D03*
D42*
X2000000Y-5000000D03*
X4000000Y-5000000D03*
X8000000Y-4000000D03*
X11500000Y-4000000D03*
X2000000Y-2000000D03*
X4000000Y-2000000D03*
M02*
