%TF.GenerationSoftware,KiCad,Pcbnew,9.0.8+1*%
%TF.CreationDate,2026-07-27T23:00:38+02:00*%
%TF.ProjectId,mykovolt_devkit,6d796b6f-766f-46c7-945f-6465766b6974,rev?*%
%TF.SameCoordinates,Original*%
%TF.FileFunction,Legend,Bot*%
%TF.FilePolarity,Positive*%
%FSLAX46Y46*%
G04 Gerber Fmt 4.6, Leading zero omitted, Abs format (unit mm)*
G04 Created by KiCad (PCBNEW 9.0.8+1) date 2026-07-27 23:00:38*
%MOMM*%
%LPD*%
G01*
G04 APERTURE LIST*
%ADD10C,0.100000*%
G04 APERTURE END LIST*
D10*
X13342857Y-21243800D02*
X13428572Y-21272371D01*
X13428572Y-21272371D02*
X13571429Y-21272371D01*
X13571429Y-21272371D02*
X13628572Y-21243800D01*
X13628572Y-21243800D02*
X13657143Y-21215228D01*
X13657143Y-21215228D02*
X13685714Y-21158085D01*
X13685714Y-21158085D02*
X13685714Y-21100942D01*
X13685714Y-21100942D02*
X13657143Y-21043800D01*
X13657143Y-21043800D02*
X13628572Y-21015228D01*
X13628572Y-21015228D02*
X13571429Y-20986657D01*
X13571429Y-20986657D02*
X13457143Y-20958085D01*
X13457143Y-20958085D02*
X13400000Y-20929514D01*
X13400000Y-20929514D02*
X13371429Y-20900942D01*
X13371429Y-20900942D02*
X13342857Y-20843800D01*
X13342857Y-20843800D02*
X13342857Y-20786657D01*
X13342857Y-20786657D02*
X13371429Y-20729514D01*
X13371429Y-20729514D02*
X13400000Y-20700942D01*
X13400000Y-20700942D02*
X13457143Y-20672371D01*
X13457143Y-20672371D02*
X13600000Y-20672371D01*
X13600000Y-20672371D02*
X13685714Y-20700942D01*
X13942858Y-20958085D02*
X14142858Y-20958085D01*
X14228572Y-21272371D02*
X13942858Y-21272371D01*
X13942858Y-21272371D02*
X13942858Y-20672371D01*
X13942858Y-20672371D02*
X14228572Y-20672371D01*
X14485715Y-21272371D02*
X14485715Y-20672371D01*
X14485715Y-20672371D02*
X14828572Y-21272371D01*
X14828572Y-21272371D02*
X14828572Y-20672371D01*
X15085714Y-21243800D02*
X15171429Y-21272371D01*
X15171429Y-21272371D02*
X15314286Y-21272371D01*
X15314286Y-21272371D02*
X15371429Y-21243800D01*
X15371429Y-21243800D02*
X15400000Y-21215228D01*
X15400000Y-21215228D02*
X15428571Y-21158085D01*
X15428571Y-21158085D02*
X15428571Y-21100942D01*
X15428571Y-21100942D02*
X15400000Y-21043800D01*
X15400000Y-21043800D02*
X15371429Y-21015228D01*
X15371429Y-21015228D02*
X15314286Y-20986657D01*
X15314286Y-20986657D02*
X15200000Y-20958085D01*
X15200000Y-20958085D02*
X15142857Y-20929514D01*
X15142857Y-20929514D02*
X15114286Y-20900942D01*
X15114286Y-20900942D02*
X15085714Y-20843800D01*
X15085714Y-20843800D02*
X15085714Y-20786657D01*
X15085714Y-20786657D02*
X15114286Y-20729514D01*
X15114286Y-20729514D02*
X15142857Y-20700942D01*
X15142857Y-20700942D02*
X15200000Y-20672371D01*
X15200000Y-20672371D02*
X15342857Y-20672371D01*
X15342857Y-20672371D02*
X15428571Y-20700942D01*
X15800000Y-20672371D02*
X15914286Y-20672371D01*
X15914286Y-20672371D02*
X15971429Y-20700942D01*
X15971429Y-20700942D02*
X16028572Y-20758085D01*
X16028572Y-20758085D02*
X16057143Y-20872371D01*
X16057143Y-20872371D02*
X16057143Y-21072371D01*
X16057143Y-21072371D02*
X16028572Y-21186657D01*
X16028572Y-21186657D02*
X15971429Y-21243800D01*
X15971429Y-21243800D02*
X15914286Y-21272371D01*
X15914286Y-21272371D02*
X15800000Y-21272371D01*
X15800000Y-21272371D02*
X15742858Y-21243800D01*
X15742858Y-21243800D02*
X15685715Y-21186657D01*
X15685715Y-21186657D02*
X15657143Y-21072371D01*
X15657143Y-21072371D02*
X15657143Y-20872371D01*
X15657143Y-20872371D02*
X15685715Y-20758085D01*
X15685715Y-20758085D02*
X15742858Y-20700942D01*
X15742858Y-20700942D02*
X15800000Y-20672371D01*
X16657143Y-21272371D02*
X16457143Y-20986657D01*
X16314286Y-21272371D02*
X16314286Y-20672371D01*
X16314286Y-20672371D02*
X16542857Y-20672371D01*
X16542857Y-20672371D02*
X16600000Y-20700942D01*
X16600000Y-20700942D02*
X16628571Y-20729514D01*
X16628571Y-20729514D02*
X16657143Y-20786657D01*
X16657143Y-20786657D02*
X16657143Y-20872371D01*
X16657143Y-20872371D02*
X16628571Y-20929514D01*
X16628571Y-20929514D02*
X16600000Y-20958085D01*
X16600000Y-20958085D02*
X16542857Y-20986657D01*
X16542857Y-20986657D02*
X16314286Y-20986657D01*
M02*
