<?xml version="1.0" encoding="UTF-8" standalone="no"?>
<svg xmlns="http://www.w3.org/2000/svg" viewBox="0 0 1200 1800" width="1200" height="1800" font-family="'Segoe UI', Arial, Helvetica, sans-serif">
  <defs>
    <linearGradient id="soilGrad" x1="0%" y1="0%" x2="0%" y2="100%">
      <stop offset="0%" style="stop-color:#5D4037;stop-opacity:1" />
      <stop offset="100%" style="stop-color:#3E2723;stop-opacity:1" />
    </linearGradient>
    <linearGradient id="presslingGrad" x1="0%" y1="0%" x2="0%" y2="100%">
      <stop offset="0%" style="stop-color:#8BC34A;stop-opacity:1" />
      <stop offset="50%" style="stop-color:#689F38;stop-opacity:1" />
      <stop offset="100%" style="stop-color:#558B2F;stop-opacity:1" />
    </linearGradient>
    <linearGradient id="pcbGrad" x1="0%" y1="0%" x2="0%" y2="100%">
      <stop offset="0%" style="stop-color:#1B5E20;stop-opacity:1" />
      <stop offset="100%" style="stop-color:#2E7D32;stop-opacity:1" />
    </linearGradient>
    <linearGradient id="electrodeGrad" x1="0%" y1="0%" x2="100%" y2="0%">
      <stop offset="0%" style="stop-color:#FFD54F;stop-opacity:1" />
      <stop offset="50%" style="stop-color:#FFC107;stop-opacity:1" />
      <stop offset="100%" style="stop-color:#FFB300;stop-opacity:1" />
    </linearGradient>
    <linearGradient id="casingGrad" x1="0%" y1="0%" x2="0%" y2="100%">
      <stop offset="0%" style="stop-color:#A1887F;stop-opacity:1" />
      <stop offset="100%" style="stop-color:#795548;stop-opacity:1" />
    </linearGradient>
    <linearGradient id="boostGrad" x1="0%" y1="0%" x2="100%" y2="100%">
      <stop offset="0%" style="stop-color:#1565C0;stop-opacity:1" />
      <stop offset="100%" style="stop-color:#0D47A1;stop-opacity:1" />
    </linearGradient>
    <linearGradient id="mcuGrad" x1="0%" y1="0%" x2="0%" y2="100%">
      <stop offset="0%" style="stop-color:#37474F;stop-opacity:1" />
      <stop offset="100%" style="stop-color:#263238;stop-opacity:1" />
    </linearGradient>
    <linearGradient id="loracGrad" x1="0%" y1="0%" x2="0%" y2="100%">
      <stop offset="0%" style="stop-color:#6A1B9A;stop-opacity:1" />
      <stop offset="100%" style="stop-color:#4A148C;stop-opacity:1" />
    </linearGradient>
    <linearGradient id="framGrad" x1="0%" y1="0%" x2="0%" y2="100%">
      <stop offset="0%" style="stop-color:#00695C;stop-opacity:1" />
      <stop offset="100%" style="stop-color:#004D40;stop-opacity:1" />
    </linearGradient>
    <linearGradient id="titleBg" x1="0%" y1="0%" x2="100%" y2="0%">
      <stop offset="0%" style="stop-color:#1B5E20;stop-opacity:0.95" />
      <stop offset="100%" style="stop-color:#2E7D32;stop-opacity:0.95" />
    </linearGradient>
    <filter id="shadow" x="-5%" y="-5%" width="110%" height="110%">
      <feDropShadow dx="2" dy="2" stdDeviation="3" flood-color="#000" flood-opacity="0.2"/>
    </filter>
    <filter id="shadowLg" x="-5%" y="-5%" width="110%" height="115%">
      <feDropShadow dx="3" dy="4" stdDeviation="5" flood-color="#000" flood-opacity="0.3"/>
    </filter>
    <pattern id="mycelium" patternUnits="userSpaceOnUse" width="20" height="20">
      <line x1="0" y1="0" x2="20" y2="20" stroke="#4CAF50" stroke-width="0.5" opacity="0.3"/>
      <line x1="20" y1="0" x2="0" y2="20" stroke="#4CAF50" stroke-width="0.5" opacity="0.3"/>
      <circle cx="10" cy="10" r="1" fill="#8BC34A" opacity="0.2"/>
    </pattern>
    <pattern id="circuitPattern" patternUnits="userSpaceOnUse" width="8" height="8">
      <rect width="8" height="8" fill="none"/>
      <line x1="0" y1="4" x2="8" y2="4" stroke="#FFC107" stroke-width="0.3" opacity="0.4"/>
      <line x1="4" y1="0" x2="4" y2="8" stroke="#FFC107" stroke-width="0.3" opacity="0.4"/>
    </pattern>
    <marker id="arrowhead" markerWidth="10" markerHeight="7" refX="10" refY="3.5" orient="auto">
      <polygon points="0 0, 10 3.5, 0 7" fill="#455A64"/>
    </marker>
    <marker id="arrowGreen" markerWidth="10" markerHeight="7" refX="10" refY="3.5" orient="auto">
      <polygon points="0 0, 10 3.5, 0 7" fill="#2E7D32"/>
    </marker>
  </defs>

  <!-- Background -->
  <rect width="1200" height="1800" fill="#FAFAFA"/>

  <!-- Title Section -->
  <rect x="0" y="0" width="1200" height="100" fill="url(#titleBg)" rx="0"/>
  <text x="60" y="45" fill="white" font-size="32" font-weight="700" letter-spacing="1">MYKOVOLT</text>
  <text x="60" y="75" fill="#A5D6A7" font-size="18" font-weight="400">Biodegradable Fungal Bio-Battery MVP — Soil Moisture Sensor Tag</text>
  <text x="1140" y="55" fill="#A5D6A7" font-size="13" text-anchor="end">v1.0 | Phase 1 DevKit | Q2 2028</text>

  <!-- ═══════════════════════════════════════════════════════════ -->
  <!-- SECTION 1: TOP VIEW -->
  <!-- ═══════════════════════════════════════════════════════════ -->
  <text x="60" y="140" fill="#2E7D32" font-size="22" font-weight="700">1. TOP VIEW — As Deployed in Soil</text>
  <line x1="60" y1="150" x2="500" y2="150" stroke="#4CAF50" stroke-width="2"/>

  <!-- Soil background -->
  <rect x="140" y="180" width="420" height="360" rx="12" fill="url(#soilGrad)" filter="url(#shadowLg)"/>
  <text x="350" y="210" fill="#BCAAA4" font-size="13" text-anchor="middle" font-style="italic">Soil Surface</text>

  <!-- Sensor Tag Top View -->
  <rect x="220" y="260" width="260" height="180" rx="20" fill="url(#casingGrad)" stroke="#5D4037" stroke-width="2" filter="url(#shadow)"/>
  <rect x="220" y="260" width="260" height="180" rx="20" fill="url(#mycelium)" opacity="0.15"/>

  <!-- Compostable label -->
  <rect x="310" y="268" width="80" height="18" rx="9" fill="#4CAF50" opacity="0.85"/>
  <text x="350" y="280" fill="white" font-size="9" text-anchor="middle" font-weight="600">COMPOSTABLE</text>

  <!-- Interdigitated electrodes visible through casing -->
  <g opacity="0.5">
    <!-- Electrode fingers -->
    <rect x="260" y="310" width="8" height="100" rx="2" fill="url(#electrodeGrad)"/>
    <rect x="280" y="320" width="8" height="80" rx="2" fill="url(#electrodeGrad)"/>
    <rect x="300" y="310" width="8" height="100" rx="2" fill="url(#electrodeGrad)"/>
    <rect x="320" y="320" width="8" height="80" rx="2" fill="url(#electrodeGrad)"/>
    <rect x="340" y="310" width="8" height="100" rx="2" fill="url(#electrodeGrad)"/>
    <rect x="360" y="320" width="8" height="80" rx="2" fill="url(#electrodeGrad)"/>
    <rect x="380" y="310" width="8" height="100" rx="2" fill="url(#electrodeGrad)"/>
    <rect x="400" y="320" width="8" height="80" rx="2" fill="url(#electrodeGrad)"/>
    <rect x="420" y="310" width="8" height="100" rx="2" fill="url(#electrodeGrad)"/>
    <!-- Bus bars -->
    <rect x="255" y="305" width="185" height="4" rx="2" fill="#FFB300" opacity="0.6"/>
    <rect x="255" y="415" width="185" height="4" rx="2" fill="#FFB300" opacity="0.6"/>
  </g>

  <!-- NFC antenna coil -->
  <ellipse cx="350" cy="350" rx="100" ry="60" fill="none" stroke="#7B1FA2" stroke-width="1.5" stroke-dasharray="4 3" opacity="0.5"/>

  <!-- LED indicator -->
  <circle cx="240" cy="430" r="4" fill="#4CAF50" opacity="0.8"/>
  <text x="252" y="433" fill="#A5D6A7" font-size="8">Status</text>

  <!-- Branding -->
  <text x="350" y="445" fill="#E8F5E9" font-size="11" text-anchor="middle" font-weight="600" opacity="0.7">MykoVolt</text>

  <!-- Dimensions -->
  <line x1="220" y1="470" x2="220" y2="490" stroke="#78909C" stroke-width="1"/>
  <line x1="480" y1="470" x2="480" y2="490" stroke="#78909C" stroke-width="1"/>
  <line x1="220" y1="485" x2="480" y2="485" stroke="#78909C" stroke-width="1" marker-start="url(#arrowhead)" marker-end="url(#arrowhead)"/>
  <text x="350" y="500" fill="#546E7A" font-size="11" text-anchor="middle">65 mm</text>

  <line x1="510" y1="260" x2="530" y2="260" stroke="#78909C" stroke-width="1"/>
  <line x1="510" y1="440" x2="530" y2="440" stroke="#78909C" stroke-width="1"/>
  <line x1="525" y1="260" x2="525" y2="440" stroke="#78909C" stroke-width="1" marker-start="url(#arrowhead)" marker-end="url(#arrowhead)"/>
  <text x="545" y="355" fill="#546E7A" font-size="11" text-anchor="middle" transform="rotate(90 545 355)">45 mm</text>

  <!-- Top View Annotations -->
  <g fill="#37474F" font-size="11">
    <text x="610" y="220">A. Interdigitated Capacitive Electrodes</text>
    <text x="630" y="237" fill="#78909C" font-size="10">Fringe-field soil moisture measurement</text>
    <text x="610" y="265">B. NFC Antenna Coil (Passive)</text>
    <text x="630" y="282" fill="#78909C" font-size="10">LoRa module (Phase 2) / NFC read</text>
    <text x="610" y="310">C. Biodegradable Casing</text>
    <text x="630" y="327" fill="#78909C" font-size="10">Compostable pressling material</text>
    <text x="610" y="355">D. Status LED</text>
    <text x="630" y="372" fill="#78909C" font-size="10">Visual lifetime indicator</text>
    <text x="610" y="400">E. Dimensions</text>
    <text x="630" y="417" fill="#78909C" font-size="10">65 x 45 x 12 mm total</text>
    <text x="630" y="432" fill="#78909C" font-size="10">Weight: 3.2 g</text>
  </g>

  <!-- ═══════════════════════════════════════════════════════════ -->
  <!-- SECTION 2: EXPLODED CROSS-SECTION VIEW -->
  <!-- ═══════════════════════════════════════════════════════════ -->
  <text x="60" y="570" fill="#2E7D32" font-size="22" font-weight="700">2. EXPLODED CROSS-SECTION — Layer Architecture</text>
  <line x1="60" y1="580" x2="580" y2="580" stroke="#4CAF50" stroke-width="2"/>

  <!-- Layer 1: Top Casing (Exterior) -->
  <g transform="translate(0, 0)">
    <rect x="200" y="610" width="300" height="50" rx="8" fill="url(#casingGrad)" stroke="#5D4037" stroke-width="1.5" filter="url(#shadow)"/>
    <rect x="200" y="610" width="300" height="50" rx="8" fill="url(#mycelium)" opacity="0.1"/>
    <text x="350" y="640" fill="#EFEBE9" font-size="13" text-anchor="middle" font-weight="600">Layer 1: Top Casing</text>
    <text x="350" y="654" fill="#D7CCC8" font-size="9" text-anchor="middle">Compostable Pressling — IP67</text>
    <!-- Callout -->
    <line x1="510" y1="635" x2="560" y2="635" stroke="#78909C" stroke-width="1" stroke-dasharray="3 2"/>
    <text x="565" y="630" fill="#546E7A" font-size="10" font-weight="600">Biodegradable outer shell</text>
    <text x="565" y="643" fill="#78909C" font-size="9">Thickness: 1.5 mm</text>
    <text x="565" y="656" fill="#78909C" font-size="9">Material: Fungal pressling</text>
  </g>

  <!-- Separator arrow -->
  <line x1="350" y1="665" x2="350" y2="685" stroke="#B0BEC5" stroke-width="1" stroke-dasharray="3 3"/>

  <!-- Layer 2: NFC/LoRa Antenna -->
  <g transform="translate(0, 30)">
    <rect x="200" y="690" width="300" height="40" rx="6" fill="url(#loracGrad)" stroke="#4A148C" stroke-width="1" filter="url(#shadow)"/>
    <text x="350" y="715" fill="#E1BEE7" font-size="12" text-anchor="middle" font-weight="600">Layer 2: NFC Antenna / LoRa Module</text>
    <!-- Callout -->
    <line x1="510" y1="710" x2="560" y2="710" stroke="#78909C" stroke-width="1" stroke-dasharray="3 2"/>
    <text x="565" y="705" fill="#546E7A" font-size="10" font-weight="600">Communication layer</text>
    <text x="565" y="718" fill="#78909C" font-size="9">Phase 1: Passive NFC (13.56 MHz)</text>
    <text x="565" y="731" fill="#78909C" font-size="9">Phase 2: LoRa 868 MHz, 2+ km</text>
  </g>

  <line x1="350" y1="735" x2="350" y2="755" stroke="#B0BEC5" stroke-width="1" stroke-dasharray="3 3"/>

  <!-- Layer 3: Sensor PCB -->
  <g transform="translate(0, 60)">
    <rect x="200" y="760" width="300" height="55" rx="6" fill="url(#pcbGrad)" stroke="#1B5E20" stroke-width="1" filter="url(#shadow)"/>
    <rect x="200" y="760" width="300" height="55" rx="6" fill="url(#circuitPattern)" opacity="0.3"/>

    <!-- Capacitive electrodes -->
    <g transform="translate(220, 770)">
      <rect x="0" y="0" width="5" height="30" rx="1" fill="#FFC107" opacity="0.7"/>
      <rect x="10" y="5" width="5" height="20" rx="1" fill="#FFC107" opacity="0.7"/>
      <rect x="20" y="0" width="5" height="30" rx="1" fill="#FFC107" opacity="0.7"/>
      <rect x="30" y="5" width="5" height="20" rx="1" fill="#FFC107" opacity="0.7"/>
      <rect x="40" y="0" width="5" height="30" rx="1" fill="#FFC107" opacity="0.7"/>
      <rect x="50" y="5" width="5" height="20" rx="1" fill="#FFC107" opacity="0.7"/>
    </g>

    <!-- MCU chip -->
    <rect x="300" y="768" width="35" height="25" rx="2" fill="url(#mcuGrad)" stroke="#455A64" stroke-width="0.5"/>
    <text x="317" y="784" fill="#B0BEC5" font-size="6" text-anchor="middle">STM32L0</text>

    <!-- FRAM -->
    <rect x="350" y="770" width="20" height="18" rx="2" fill="url(#framGrad)" stroke="#00695C" stroke-width="0.5"/>
    <text x="360" y="782" fill="#B2DFDB" font-size="5" text-anchor="middle">FRAM</text>

    <!-- Boost converter -->
    <rect x="385" y="770" width="25" height="15" rx="2" fill="url(#boostGrad)" stroke="#0D47A1" stroke-width="0.5"/>
    <text x="397" y="781" fill="#90CAF9" font-size="5" text-anchor="middle">0.45→3.3V</text>

    <!-- ADC symbol -->
    <rect x="420" y="772" width="15" height="12" rx="1" fill="#455A64" stroke="#263238" stroke-width="0.5"/>
    <text x="427" y="781" fill="#B0BEC5" font-size="5" text-anchor="middle">ADC</text>

    <!-- Labels -->
    <text x="245" y="806" fill="#A5D6A7" font-size="8" text-anchor="middle">Capacitive</text>
    <text x="245" y="814" fill="#A5D6A7" font-size="8" text-anchor="middle">Sensor</text>

    <text x="350" y="795" fill="#C8E6C9" font-size="11" text-anchor="middle" font-weight="600">Layer 3: Sensor PCB + MCU</text>

    <!-- Callout -->
    <line x1="510" y1="785" x2="560" y2="785" stroke="#78909C" stroke-width="1" stroke-dasharray="3 2"/>
    <text x="565" y="775" fill="#546E7A" font-size="10" font-weight="600">Active electronics layer</text>
    <text x="565" y="788" fill="#78909C" font-size="9">STM32L0 MCU (0.4 µA sleep)</text>
    <text x="565" y="801" fill="#78909C" font-size="9">FRAM Ring Buffer (8 KB)</text>
    <text x="565" y="814" fill="#78909C" font-size="9">Boost Converter: 0.45V → 3.3V</text>
  </g>

  <line x1="350" y1="825" x2="350" y2="845" stroke="#B0BEC5" stroke-width="1" stroke-dasharray="3 3"/>

  <!-- Layer 4: MFC Bio-Battery -->
  <g transform="translate(0, 90)">
    <rect x="200" y="850" width="300" height="60" rx="8" fill="url(#presslingGrad)" stroke="#33691E" stroke-width="1.5" filter="url(#shadow)"/>
    <rect x="200" y="850" width="300" height="60" rx="8" fill="url(#mycelium)" opacity="0.3"/>

    <!-- Fungal cell structure -->
    <g opacity="0.4">
      <circle cx="240" cy="880" r="8" fill="none" stroke="#1B5E20" stroke-width="1"/>
      <circle cx="240" cy="880" r="3" fill="#4CAF50"/>
      <circle cx="270" cy="870" r="6" fill="none" stroke="#1B5E20" stroke-width="1"/>
      <circle cx="270" cy="870" r="2" fill="#4CAF50"/>
      <circle cx="300" cy="885" r="7" fill="none" stroke="#1B5E20" stroke-width="1"/>
      <circle cx="300" cy="885" r="2.5" fill="#4CAF50"/>
      <circle cx="330" cy="875" r="9" fill="none" stroke="#1B5E20" stroke-width="1"/>
      <circle cx="330" cy="875" r="3" fill="#4CAF50"/>
      <circle cx="360" cy="880" r="6" fill="none" stroke="#1B5E20" stroke-width="1"/>
      <circle cx="360" cy="880" r="2" fill="#4CAF50"/>
      <circle cx="390" cy="872" r="7" fill="none" stroke="#1B5E20" stroke-width="1"/>
      <circle cx="390" cy="872" r="2.5" fill="#4CAF50"/>
      <circle cx="420" cy="882" r="8" fill="none" stroke="#1B5E20" stroke-width="1"/>
      <circle cx="420" cy="882" r="3" fill="#4CAF50"/>
      <circle cx="450" cy="875" r="6" fill="none" stroke="#1B5E20" stroke-width="1"/>
      <circle cx="450" cy="875" r="2" fill="#4CAF50"/>
      <circle cx="480" cy="878" r="7" fill="none" stroke="#1B5E20" stroke-width="1"/>
      <circle cx="480" cy="878" r="2.5" fill="#4CAF50"/>
    </g>

    <!-- Anode/Cathode labels -->
    <text x="250" y="900" fill="#1B5E20" font-size="10" font-weight="600" opacity="0.7">ANODE (−)</text>
    <text x="420" y="900" fill="#33691E" font-size="10" font-weight="600" opacity="0.7">CATHODE (+)</text>

    <text x="350" y="870" fill="white" font-size="13" text-anchor="middle" font-weight="700">Layer 4: MFC Bio-Battery</text>
    <text x="350" y="898" fill="#E8F5E9" font-size="9" text-anchor="middle">Trametes pubescens | 12.5 µW/cm² baseline | 2 cm²</text>

    <!-- Callout -->
    <line x1="510" y1="880" x2="560" y2="880" stroke="#78909C" stroke-width="1" stroke-dasharray="3 2"/>
    <text x="565" y="870" fill="#546E7A" font-size="10" font-weight="600">Fungal microbial fuel cell</text>
    <text x="565" y="883" fill="#78909C" font-size="9">Species: Trametes pubescens</text>
    <text x="565" y="896" fill="#78909C" font-size="9">Power: 25 µW (2 cm², literature baseline)</text>
    <text x="565" y="909" fill="#78909C" font-size="9">Voltage: 0.45V OCV | TRL 2 (simulation complete)</text>
  </g>

  <line x1="350" y1="915" x2="350" y2="935" stroke="#B0BEC5" stroke-width="1" stroke-dasharray="3 3"/>

  <!-- Layer 5: Bottom Casing -->
  <g transform="translate(0, 120)">
    <rect x="200" y="940" width="300" height="45" rx="8" fill="url(#casingGrad)" stroke="#5D4037" stroke-width="1.5" filter="url(#shadow)"/>
    <rect x="200" y="940" width="300" height="45" rx="8" fill="url(#mycelium)" opacity="0.1"/>
    <text x="350" y="967" fill="#EFEBE9" font-size="12" text-anchor="middle" font-weight="600">Layer 5: Bottom Casing</text>

    <!-- Callout -->
    <line x1="510" y1="962" x2="560" y2="962" stroke="#78909C" stroke-width="1" stroke-dasharray="3 2"/>
    <text x="565" y="957" fill="#546E7A" font-size="10" font-weight="600">Soil-contact layer</text>
    <text x="565" y="970" fill="#78909C" font-size="9">Moisture-permeable membrane</text>
  </g>

  <!-- Total height dimension -->
  <line x1="170" y1="610" x2="170" y2="985" stroke="#455A64" stroke-width="1.5" marker-start="url(#arrowGreen)" marker-end="url(#arrowGreen)"/>
  <text x="155" y="800" fill="#2E7D32" font-size="12" text-anchor="middle" font-weight="600" transform="rotate(-90 155 800)">12 mm total height</text>

  <!-- ═══════════════════════════════════════════════════════════ -->
  <!-- SECTION 3: FIELD DEPLOYMENT -->
  <!-- ═══════════════════════════════════════════════════════════ -->
  <text x="60" y="1060" fill="#2E7D32" font-size="22" font-weight="700">3. FIELD DEPLOYMENT — Precision Agriculture Use Case</text>
  <line x1="60" y1="1070" x2="620" y2="1070" stroke="#4CAF50" stroke-width="2"/>

  <!-- Ground cross-section -->
  <rect x="80" y="1100" width="520" height="50" rx="4" fill="#81C784" opacity="0.3" stroke="#4CAF50" stroke-width="1"/>
  <text x="340" y="1130" fill="#2E7D32" font-size="12" text-anchor="middle" font-weight="600">Surface — Crop Field</text>

  <!-- Sensor deployed in soil -->
  <g transform="translate(140, 1155)">
    <rect x="0" y="0" width="100" height="65" rx="10" fill="url(#casingGrad)" stroke="#5D4037" stroke-width="1.5" filter="url(#shadow)" opacity="0.8"/>
    <rect x="15" y="10" width="70" height="45" rx="6" fill="url(#pcbGrad)" opacity="0.5"/>
    <rect x="20" y="15" width="60" height="35" rx="4" fill="url(#presslingGrad)" opacity="0.6"/>
    <text x="50" y="75" fill="#8D6E63" font-size="10" text-anchor="middle">Sensor Tag</text>
    <text x="50" y="87" fill="#A1887F" font-size="8" text-anchor="middle">~12 cm deep</text>
  </g>

  <!-- Soil layers -->
  <rect x="80" y="1150" width="520" height="120" fill="url(#soilGrad)" opacity="0.7"/>

  <!-- Roots -->
  <g opacity="0.4">
    <path d="M100,1200 Q120,1220 140,1250" fill="none" stroke="#795548" stroke-width="2"/>
    <path d="M140,1250 Q155,1260 170,1280" fill="none" stroke="#795548" stroke-width="1.5"/>
    <path d="M450,1210 Q470,1240 490,1270" fill="none" stroke="#795548" stroke-width="2"/>
    <path d="M490,1270 Q510,1285 530,1300" fill="none" stroke="#795548" stroke-width="1.5"/>
  </g>

  <!-- Water drops (moisture) -->
  <g fill="#42A5F5" opacity="0.3">
    <circle cx="180" cy="1180" r="3"/>
    <circle cx="200" cy="1200" r="2.5"/>
    <circle cx="160" cy="1210" r="2"/>
    <circle cx="220" cy="1190" r="2"/>
    <circle cx="300" cy="1220" r="2.5"/>
    <circle cx="320" cy="1250" r="3"/>
    <circle cx="280" cy="1240" r="2"/>
    <circle cx="400" cy="1230" r="2.5"/>
    <circle cx="420" cy="1260" r="2"/>
    <circle cx="380" cy="1250" r="3"/>
  </g>

  <!-- Signal waves (LoRa/NFC) -->
  <g fill="none" stroke="#7B1FA2" stroke-width="1.5" opacity="0.5">
    <path d="M250,1170 Q260,1155 250,1140"/>
    <path d="M255,1170 Q270,1150 255,1130"/>
    <path d="M260,1170 Q280,1145 260,1120"/>
    <text x="275" y="1125" fill="#7B1FA2" font-size="9" opacity="0.8">NFC / LoRa</text>
  </g>

  <!-- Gateway / Reader -->
  <g transform="translate(400, 1090)">
    <rect x="0" y="0" width="60" height="40" rx="6" fill="#37474F" stroke="#263238" stroke-width="1.5" filter="url(#shadow)"/>
    <rect x="5" y="5" width="20" height="10" rx="2" fill="#4CAF50" opacity="0.5"/>
    <text x="30" y="32" fill="#B0BEC5" font-size="8" text-anchor="middle">Gateway</text>
    <line x1="30" y1="40" x2="30" y2="55" stroke="#455A64" stroke-width="1.5"/>
    <line x1="20" y1="55" x2="40" y2="55" stroke="#455A64" stroke-width="1.5"/>
  </g>

  <!-- Signal from gateway to cloud -->
  <g fill="none" stroke="#1565C0" stroke-width="1" opacity="0.4" stroke-dasharray="4 3">
    <path d="M440,1090 Q460,1080 490,1075"/>
    <path d="M440,1090 Q465,1075 500,1070"/>
    <text x="510" y="1075" fill="#1565C0" font-size="9">Cloud / Dashboard</text>
  </g>

  <!-- Deployed sensor labels -->
  <g fill="#37474F" font-size="11">
    <text x="640" y="1120">Deployment Configuration:</text>
    <text x="660" y="1140" fill="#78909C" font-size="10">Depth: 8–12 cm below surface</text>
    <text x="660" y="1157" fill="#78909C" font-size="10">Density: 1 sensor per 10 m² field</text>
    <text x="660" y="1174" fill="#78909C" font-size="10">Lifetime: 7 days continuous</text>
    <text x="660" y="1191" fill="#78909C" font-size="10">Reading interval: 15 min</text>

    <text x="640" y="1220">Data Flow:</text>
    <text x="660" y="1240" fill="#78909C" font-size="10">1. Sensor measures soil moisture</text>
    <text x="660" y="1257" fill="#78909C" font-size="10">2. MCU stores in FRAM buffer</text>
    <text x="660" y="1274" fill="#78909C" font-size="10">3. NFC read / LoRa transmit</text>
    <text x="660" y="1291" fill="#78909C" font-size="10">4. Gateway → Cloud → Dashboard</text>

    <text x="640" y="1320">End of Life:</text>
    <text x="660" y="1340" fill="#78909C" font-size="10">Sensor degrades in soil after 30–90 days</text>
    <text x="660" y="1357" fill="#78909C" font-size="10">90% compostable — zero e-waste</text>
    <text x="660" y="1374" fill="#78909C" font-size="10">Recover electronics board (reusable)</text>
  </g>

  <!-- ═══════════════════════════════════════════════════════════ -->
  <!-- SECTION 4: SPECIFICATIONS TABLE -->
  <!-- ═══════════════════════════════════════════════════════════ -->
  <text x="60" y="1430" fill="#2E7D32" font-size="22" font-weight="700">4. MVP Technical Specifications</text>
  <line x1="60" y1="1440" x2="560" y2="1440" stroke="#4CAF50" stroke-width="2"/>

  <!-- Specs table -->
  <g transform="translate(60, 1455)">
    <!-- Table header -->
    <rect x="0" y="0" width="530" height="30" rx="4" fill="#2E7D32"/>
    <text x="15" y="20" fill="white" font-size="12" font-weight="600">Parameter</text>
    <text x="250" y="20" fill="white" font-size="12" font-weight="600">Value</text>
    <text x="420" y="20" fill="white" font-size="12" font-weight="600">Notes</text>

    <!-- Rows -->
    <rect x="0" y="30" width="530" height="24" fill="#E8F5E9"/>
    <text x="15" y="46" fill="#37474F" font-size="10">Dimensions</text>
    <text x="250" y="46" fill="#37474F" font-size="10">65 x 45 x 12 mm</text>
    <text x="420" y="46" fill="#78909C" font-size="10">Credit card form factor</text>

    <rect x="0" y="54" width="530" height="24" fill="white"/>
    <text x="15" y="70" fill="#37474F" font-size="10">Weight</text>
    <text x="250" y="70" fill="#37474F" font-size="10">3.2 g</text>
    <text x="420" y="70" fill="#78909C" font-size="10">90% compostable</text>

    <rect x="0" y="78" width="530" height="24" fill="#E8F5E9"/>
    <text x="15" y="94" fill="#37474F" font-size="10">Bio-Battery Power</text>
    <text x="250" y="94" fill="#37474F" font-size="10">25 µW (2 cm²)</text>
    <text x="420" y="94" fill="#78909C" font-size="10">12.5 µW/cm² @ 0.45V (literature baseline)</text>

    <rect x="0" y="102" width="530" height="24" fill="white"/>
    <text x="15" y="118" fill="#37474F" font-size="10">MCU</text>
    <text x="250" y="118" fill="#37474F" font-size="10">STM32L0 (Cortex-M0+)</text>
    <text x="420" y="118" fill="#78909C" font-size="10">0.4 µA sleep current</text>

    <rect x="0" y="126" width="530" height="24" fill="#E8F5E9"/>
    <text x="15" y="142" fill="#37474F" font-size="10">Sensor Type</text>
    <text x="250" y="142" fill="#37474F" font-size="10">Capacitive (fringe-field)</text>
    <text x="420" y="142" fill="#78909C" font-size="10">100 kHz excitation</text>

    <rect x="0" y="150" width="530" height="24" fill="white"/>
    <text x="15" y="166" fill="#37474F" font-size="10">Communication</text>
    <text x="250" y="166" fill="#37474F" font-size="10">NFC (Phase 1) / LoRa (Phase 2)</text>
    <text x="420" y="166" fill="#78909C" font-size="10">Passive powered / 2+ km</text>

    <rect x="0" y="174" width="530" height="24" fill="#E8F5E9"/>
    <text x="15" y="190" fill="#37474F" font-size="10">Measurement Interval</text>
    <text x="250" y="190" fill="#37474F" font-size="10">15 minutes</text>
    <text x="420" y="190" fill="#78909C" font-size="10">96 measurements/day</text>

    <rect x="0" y="198" width="530" height="24" fill="white"/>
    <text x="15" y="214" fill="#37474F" font-size="10">Lifetime</text>
    <text x="250" y="214" fill="#37474F" font-size="10">7 days continuous</text>
    <text x="420" y="214" fill="#78909C" font-size="10">2% degradation/day</text>

    <rect x="0" y="222" width="530" height="24" fill="#E8F5E9"/>
    <text x="15" y="238" fill="#37474F" font-size="10">Data Storage</text>
    <text x="250" y="238" fill="#37474F" font-size="10">FRAM 8 KB ring buffer</text>
    <text x="420" y="238" fill="#78909C" font-size="10">672 entries @ 12 bytes</text>

    <rect x="0" y="246" width="530" height="24" fill="white"/>
    <text x="15" y="262" fill="#37474F" font-size="10">Fungal Species</text>
    <text x="250" y="262" fill="#37474F" font-size="10">Trametes pubescens</text>
    <text x="420" y="262" fill="#78909C" font-size="10">White-rot fungus</text>

    <rect x="0" y="270" width="530" height="24" fill="#E8F5E9"/>
    <text x="15" y="286" fill="#37474F" font-size="10">Unit Cost (Target)</text>
    <text x="250" y="286" fill="#37474F" font-size="10">DevKit ~€24.55 / pellet €0.15</text>
    <text x="420" y="286" fill="#78909C" font-size="10">BOM at 500 units / at scale</text>

    <rect x="0" y="294" width="530" height="24" rx="0 0 4 4" fill="white"/>
    <text x="15" y="310" fill="#37474F" font-size="10">IP Rating</text>
    <text x="250" y="310" fill="#37474F" font-size="10">IP67</text>
    <text x="420" y="310" fill="#78909C" font-size="10">Dustproof + waterproof</text>
  </g>

  <!-- ═══════════════════════════════════════════════════════════ -->
  <!-- SECTION 5: ENERGY BUDGET -->
  <!-- ═══════════════════════════════════════════════════════════ -->
  <g transform="translate(640, 1455)">
    <rect x="0" y="0" width="500" height="310" rx="8" fill="white" stroke="#E0E0E0" stroke-width="1"/>
    <text x="20" y="25" fill="#2E7D32" font-size="15" font-weight="700">Energy Budget (per day)</text>

    <!-- Supply bar -->
    <text x="20" y="55" fill="#37474F" font-size="11" font-weight="600">Supply (Battery)</text>
    <rect x="20" y="62" width="460" height="24" rx="4" fill="#E8F5E9"/>
    <rect x="20" y="62" width="460" height="24" rx="4" fill="#4CAF50" opacity="0.7"/>
    <text x="250" y="79" fill="white" font-size="11" text-anchor="middle" font-weight="600">4,320 mJ/day (50 µW × 24h, target)</text>

    <!-- Demand breakdown -->
    <text x="20" y="110" fill="#37474F" font-size="11" font-weight="600">Demand (System)</text>

    <rect x="20" y="118" width="350" height="18" rx="3" fill="#BBDEFB"/>
    <text x="25" y="131" fill="#1565C0" font-size="9">Sleep: 30 mJ (0.72 µW × 24h, est.)</text>

    <rect x="20" y="140" width="80" height="18" rx="3" fill="#C8E6C9"/>
    <text x="25" y="153" fill="#2E7D32" font-size="9">ADC: 5.8 mJ</text>

    <rect x="20" y="162" width="50" height="18" rx="3" fill="#FFE0B2"/>
    <text x="25" y="175" fill="#E65100" font-size="9">Sensor</text>

    <rect x="20" y="184" width="30" height="18" rx="3" fill="#F8BBD0"/>
    <text x="25" y="197" fill="#880E4F" font-size="9">NFC</text>

    <rect x="20" y="206" width="420" height="3" rx="1" fill="#E0E0E0"/>

    <text x="20" y="228" fill="#37474F" font-size="11" font-weight="600">Total Demand: ~40 mJ/day</text>

    <!-- Margin -->
    <rect x="20" y="238" width="460" height="28" rx="4" fill="#E8F5E9" stroke="#4CAF50" stroke-width="1"/>
    <text x="250" y="257" fill="#E65100" font-size="12" text-anchor="middle" font-weight="700">TRL 2 baseline insufficient — optimization critical</text>

    <!-- Summary -->
    <text x="20" y="285" fill="#78909C" font-size="10">⚠ Budget requires 25 µW/cm² optimization target (2× Empa baseline)</text>
    <text x="20" y="300" fill="#78909C" font-size="10">✓ At target: 7-day autonomy achievable; baseline TRL 2 = 12.5 µW/cm²</text>
  </g>

  <!-- Footer -->
  <rect x="0" y="1770" width="1200" height="30" fill="#1B5E20" rx="0"/>
  <text x="60" y="1790" fill="#A5D6A7" font-size="12">MykoVolt GmbH — Biodegradable Fungal Bio-Battery for Precision Agriculture</text>
  <text x="1140" y="1790" fill="#A5D6A7" font-size="11" text-anchor="end">Confidential — MVP Design Document v1.0</text>
</svg>