<?xml version="1.0" encoding="UTF-8" standalone="no"?>
<svg xmlns="http://www.w3.org/2000/svg" viewBox="0 0 1200 1900" width="1200" height="1900" font-family="'Segoe UI', -apple-system, Helvetica, Arial, sans-serif">
  <defs>
    <linearGradient id="bgGradLight" x1="0%" y1="0%" x2="0%" y2="100%">
      <stop offset="0%" style="stop-color:#F5FAF5"/>
      <stop offset="50%" style="stop-color:#FAFCFA"/>
      <stop offset="100%" style="stop-color:#F0F7F0"/>
    </linearGradient>
    <linearGradient id="titleGrad" x1="0%" y1="0%" x2="100%" y2="100%">
      <stop offset="0%" style="stop-color:#0D2818"/>
      <stop offset="40%" style="stop-color:#1B4332"/>
      <stop offset="100%" style="stop-color:#2D6A4F"/>
    </linearGradient>
    <linearGradient id="accentLine" x1="0%" y1="0%" x2="100%" y2="0%">
      <stop offset="0%" style="stop-color:#52B788"/>
      <stop offset="100%" style="stop-color:#D4FC79"/>
    </linearGradient>
    <linearGradient id="cardGreen" x1="0%" y1="0%" x2="0%" y2="100%">
      <stop offset="0%" style="stop-color:#E8F5E9"/>
      <stop offset="100%" style="stop-color:#C8E6C9"/>
    </linearGradient>
    <linearGradient id="tableHeaderGrad" x1="0%" y1="0%" x2="100%" y2="0%">
      <stop offset="0%" style="stop-color:#1B4332"/>
      <stop offset="100%" style="stop-color:#2D6A4F"/>
    </linearGradient>
    <linearGradient id="soilGrad" x1="0%" y1="0%" x2="0%" y2="100%">
      <stop offset="0%" style="stop-color:#5D4037;stop-opacity:1"/>
      <stop offset="100%" style="stop-color:#3E2723;stop-opacity:1"/>
    </linearGradient>
    <linearGradient id="presslingGrad" x1="0%" y1="0%" x2="0%" y2="100%">
      <stop offset="0%" style="stop-color:#8BC34A"/>
      <stop offset="50%" style="stop-color:#689F38"/>
      <stop offset="100%" style="stop-color:#558B2F"/>
    </linearGradient>
    <linearGradient id="pcbGrad" x1="0%" y1="0%" x2="0%" y2="100%">
      <stop offset="0%" style="stop-color:#1B5E20"/>
      <stop offset="100%" style="stop-color:#2E7D32"/>
    </linearGradient>
    <linearGradient id="electrodeGrad" x1="0%" y1="0%" x2="100%" y2="0%">
      <stop offset="0%" style="stop-color:#FFD54F"/>
      <stop offset="50%" style="stop-color:#FFC107"/>
      <stop offset="100%" style="stop-color:#FFB300"/>
    </linearGradient>
    <linearGradient id="casingGrad" x1="0%" y1="0%" x2="0%" y2="100%">
      <stop offset="0%" style="stop-color:#A1887F"/>
      <stop offset="100%" style="stop-color:#795548"/>
    </linearGradient>
    <linearGradient id="boostGrad" x1="0%" y1="0%" x2="100%" y2="100%">
      <stop offset="0%" style="stop-color:#1565C0"/>
      <stop offset="100%" style="stop-color:#0D47A1"/>
    </linearGradient>
    <linearGradient id="mcuGrad" x1="0%" y1="0%" x2="0%" y2="100%">
      <stop offset="0%" style="stop-color:#37474F"/>
      <stop offset="100%" style="stop-color:#263238"/>
    </linearGradient>
    <linearGradient id="loracGrad" x1="0%" y1="0%" x2="0%" y2="100%">
      <stop offset="0%" style="stop-color:#6A1B9A"/>
      <stop offset="100%" style="stop-color:#4A148C"/>
    </linearGradient>
    <linearGradient id="framGrad" x1="0%" y1="0%" x2="0%" y2="100%">
      <stop offset="0%" style="stop-color:#00695C"/>
      <stop offset="100%" style="stop-color:#004D40"/>
    </linearGradient>
    <radialGradient id="glowBg" cx="50%" cy="30%" r="60%">
      <stop offset="0%" style="stop-color:#52B788;stop-opacity:0.06"/>
      <stop offset="60%" style="stop-color:#52B788;stop-opacity:0.02"/>
      <stop offset="100%" style="stop-color:#52B788;stop-opacity:0"/>
    </radialGradient>
    <filter id="cardShadow">
      <feDropShadow dx="0" dy="4" stdDeviation="8" flood-color="#000" flood-opacity="0.08"/>
    </filter>
    <filter id="cardShadowLg">
      <feDropShadow dx="0" dy="6" stdDeviation="14" flood-color="#000" flood-opacity="0.12"/>
    </filter>
    <filter id="layerShadow">
      <feDropShadow dx="3" dy="4" stdDeviation="6" flood-color="#000" flood-opacity="0.18"/>
    </filter>
    <filter id="glow">
      <feGaussianBlur stdDeviation="3" result="blur"/>
      <feMerge>
        <feMergeNode in="blur"/>
        <feMergeNode in="SourceGraphic"/>
      </feMerge>
    </filter>
    <pattern id="mycelium" patternUnits="userSpaceOnUse" width="16" height="16">
      <line x1="0" y1="0" x2="16" y2="16" stroke="#4CAF50" stroke-width="0.4" opacity="0.25"/>
      <line x1="16" y1="0" x2="0" y2="16" stroke="#4CAF50" stroke-width="0.4" opacity="0.25"/>
      <circle cx="8" cy="8" r="1" fill="#8BC34A" opacity="0.15"/>
    </pattern>
    <pattern id="circuitPattern" patternUnits="userSpaceOnUse" width="8" height="8">
      <rect width="8" height="8" fill="none"/>
      <line x1="0" y1="4" x2="8" y2="4" stroke="#FFC107" stroke-width="0.3" opacity="0.35"/>
      <line x1="4" y1="0" x2="4" y2="8" stroke="#FFC107" stroke-width="0.3" opacity="0.35"/>
    </pattern>
    <marker id="arrowhead" markerWidth="10" markerHeight="7" refX="10" refY="3.5" orient="auto">
      <polygon points="0 0, 10 3.5, 0 7" fill="#78909C"/>
    </marker>
    <marker id="arrowGreen" markerWidth="10" markerHeight="7" refX="10" refY="3.5" orient="auto">
      <polygon points="0 0, 10 3.5, 0 7" fill="#52B788"/>
    </marker>
  </defs>

  <!-- Background -->
  <rect width="1200" height="1900" fill="url(#bgGradLight)"/>
  <rect width="1200" height="1900" fill="url(#glowBg)"/>

  <!-- ═══════ TITLE SECTION ═══════ -->
  <rect x="0" y="0" width="1200" height="110" fill="url(#titleGrad)"/>
  <text x="60" y="48" fill="white" font-size="36" font-weight="800" letter-spacing="-1">MykoVolt</text>
  <text x="60" y="78" fill="#A5D6A7" font-size="16" font-weight="400">Biodegradable Fungal Bio-Battery — MVP Design Document</text>
  <rect x="60" y="92" width="60" height="3" rx="1.5" fill="url(#accentLine)"/>
  <text x="1140" y="55" fill="#A5D6A7" font-size="13" text-anchor="end">v1.0 | Phase 1 DevKit | 2026–2028</text>
  <text x="1140" y="75" fill="#52B788" font-size="12" text-anchor="end">TRL 2 — Simulation Phase</text>

  <!-- ═══════════════════════════════════════════════════════════ -->
  <!-- SECTION 1: TOP VIEW -->
  <!-- ═══════════════════════════════════════════════════════════ -->
  <rect x="40" y="138" width="8" height="28" rx="4" fill="#2E7D32"/>
  <text x="60" y="158" fill="#2E7D32" font-size="22" font-weight="700">1. Top View — As Deployed in Soil</text>
  <rect x="60" y="170" width="80" height="3" rx="1.5" fill="url(#accentLine)"/>

  <!-- Soil background card -->
  <rect x="140" y="195" width="420" height="360" rx="16" fill="url(#soilGrad)" filter="url(#cardShadowLg)"/>
  <text x="350" y="225" fill="#BCAAA4" font-size="14" text-anchor="middle" font-style="italic">Soil Surface</text>

  <!-- Sensor Tag Top View -->
  <rect x="220" y="275" width="260" height="180" rx="20" fill="url(#casingGrad)" stroke="#5D4037" stroke-width="1.5" filter="url(#cardShadow)"/>
  <rect x="220" y="275" width="260" height="180" rx="20" fill="url(#mycelium)" opacity="0.15"/>

  <!-- Compostable label -->
  <rect x="310" y="283" width="90" height="20" rx="10" fill="#4CAF50" opacity="0.85"/>
  <text x="355" y="297" fill="white" font-size="11" text-anchor="middle" font-weight="600">COMPOSTABLE</text>

  <!-- Interdigitated electrodes visible through casing -->
  <g opacity="0.5">
    <rect x="260" y="325" width="8" height="100" rx="2" fill="url(#electrodeGrad)"/>
    <rect x="280" y="335" width="8" height="80" rx="2" fill="url(#electrodeGrad)"/>
    <rect x="300" y="325" width="8" height="100" rx="2" fill="url(#electrodeGrad)"/>
    <rect x="320" y="335" width="8" height="80" rx="2" fill="url(#electrodeGrad)"/>
    <rect x="340" y="325" width="8" height="100" rx="2" fill="url(#electrodeGrad)"/>
    <rect x="360" y="335" width="8" height="80" rx="2" fill="url(#electrodeGrad)"/>
    <rect x="380" y="325" width="8" height="100" rx="2" fill="url(#electrodeGrad)"/>
    <rect x="400" y="335" width="8" height="80" rx="2" fill="url(#electrodeGrad)"/>
    <rect x="420" y="325" width="8" height="100" rx="2" fill="url(#electrodeGrad)"/>
    <rect x="255" y="320" width="185" height="4" rx="2" fill="#FFB300" opacity="0.6"/>
    <rect x="255" y="430" width="185" height="4" rx="2" fill="#FFB300" opacity="0.6"/>
  </g>

  <!-- NFC antenna coil -->
  <ellipse cx="350" cy="365" rx="100" ry="60" fill="none" stroke="#7B1FA2" stroke-width="1.5" stroke-dasharray="4 3" opacity="0.5"/>

  <!-- LED indicator -->
  <circle cx="240" cy="445" r="4" fill="#4CAF50" opacity="0.8" filter="url(#glow)"/>
  <text x="252" y="449" fill="#A5D6A7" font-size="11">Status</text>

  <!-- Branding -->
  <text x="350" y="462" fill="#E8F5E9" font-size="12" text-anchor="middle" font-weight="600" opacity="0.7">MykoVolt</text>

  <!-- Dimensions -->
  <line x1="220" y1="485" x2="220" y2="505" stroke="#78909C" stroke-width="1"/>
  <line x1="480" y1="485" x2="480" y2="505" stroke="#78909C" stroke-width="1"/>
  <line x1="220" y1="500" x2="480" y2="500" stroke="#78909C" stroke-width="1" marker-start="url(#arrowhead)" marker-end="url(#arrowhead)"/>
  <text x="350" y="522" fill="#546E7A" font-size="13" text-anchor="middle">65 mm</text>

  <line x1="510" y1="275" x2="530" y2="275" stroke="#78909C" stroke-width="1"/>
  <line x1="510" y1="455" x2="530" y2="455" stroke="#78909C" stroke-width="1"/>
  <line x1="525" y1="275" x2="525" y2="455" stroke="#78909C" stroke-width="1" marker-start="url(#arrowhead)" marker-end="url(#arrowhead)"/>
  <text x="548" y="370" fill="#546E7A" font-size="13" text-anchor="middle" transform="rotate(90 548 370)">45 mm</text>

  <!-- Top View Annotations -->
  <g fill="#37474F" font-size="13">
    <text x="610" y="235">A. Interdigitated Capacitive Electrodes</text>
    <text x="630" y="255" fill="#78909C" font-size="12">Fringe-field soil moisture measurement</text>
    <text x="610" y="285">B. NFC Antenna Coil (Passive)</text>
    <text x="630" y="305" fill="#78909C" font-size="12">NFC read (Phase 1) / LoRa module (Phase 2)</text>
    <text x="610" y="335">C. Biodegradable Casing</text>
    <text x="630" y="355" fill="#78909C" font-size="12">Compostable pressling material</text>
    <text x="610" y="385">D. Status LED</text>
    <text x="630" y="405" fill="#78909C" font-size="12">Visual lifetime indicator</text>
    <text x="610" y="435">E. Dimensions</text>
    <text x="630" y="455" fill="#78909C" font-size="12">65 × 45 × 12 mm total</text>
    <text x="630" y="475" fill="#78909C" font-size="12">Weight: 3.2 g</text>
  </g>

  <!-- ═══════════════════════════════════════════════════════════ -->
  <!-- SECTION 2: EXPLODED CROSS-SECTION VIEW -->
  <!-- Layers positioned with absolute y coords (no translate) -->
  <!-- ═══════════════════════════════════════════════════════════ -->
  <rect x="40" y="568" width="8" height="28" rx="4" fill="#2E7D32"/>
  <text x="60" y="588" fill="#2E7D32" font-size="22" font-weight="700">2. Exploded Cross-Section — Layer Architecture</text>
  <rect x="60" y="600" width="80" height="3" rx="1.5" fill="url(#accentLine)"/>

  <!-- Layer 1: Top Casing — y=630 h=55 bottom=685 -->
  <g>
    <rect x="140" y="630" width="340" height="55" rx="10" fill="url(#casingGrad)" stroke="#5D4037" stroke-width="1.5" filter="url(#layerShadow)"/>
    <rect x="140" y="630" width="340" height="55" rx="10" fill="url(#mycelium)" opacity="0.1"/>
    <text x="310" y="660" fill="#EFEBE9" font-size="14" text-anchor="middle" font-weight="600">Layer 1: Top Casing</text>
    <text x="310" y="677" fill="#D7CCC8" font-size="12" text-anchor="middle">Compostable Pressling — IP67, 1.5 mm thick</text>
    <line x1="490" y1="657" x2="560" y2="657" stroke="#78909C" stroke-width="1" stroke-dasharray="3 2"/>
    <text x="565" y="650" fill="#546E7A" font-size="12" font-weight="600">Biodegradable outer shell</text>
    <text x="565" y="666" fill="#78909C" font-size="12">Material: Fungal pressling</text>
  </g>

  <!-- Connector 1→2 -->
  <line x1="310" y1="690" x2="310" y2="708" stroke="#B0BEC5" stroke-width="1.5" stroke-dasharray="4 3"/>

  <!-- Layer 2: NFC/LoRa Antenna — y=710 h=50 bottom=760 -->
  <g>
    <rect x="140" y="710" width="340" height="50" rx="8" fill="url(#loracGrad)" stroke="#4A148C" stroke-width="1" filter="url(#layerShadow)"/>
    <text x="310" y="738" fill="#E1BEE7" font-size="14" text-anchor="middle" font-weight="600">Layer 2: NFC Antenna / LoRa Module</text>
    <line x1="490" y1="732" x2="560" y2="732" stroke="#78909C" stroke-width="1" stroke-dasharray="3 2"/>
    <text x="565" y="726" fill="#546E7A" font-size="12" font-weight="600">Communication layer</text>
    <text x="565" y="742" fill="#78909C" font-size="12">Phase 1: Passive NFC (13.56 MHz)</text>
    <text x="565" y="756" fill="#78909C" font-size="12">Phase 2: LoRa 868 MHz, 2+ km</text>
  </g>

  <!-- Connector 2→3 -->
  <line x1="310" y1="765" x2="310" y2="783" stroke="#B0BEC5" stroke-width="1.5" stroke-dasharray="4 3"/>

  <!-- Layer 3: Sensor PCB — y=785 h=65 bottom=850 -->
  <g>
    <rect x="140" y="785" width="340" height="65" rx="8" fill="url(#pcbGrad)" stroke="#1B5E20" stroke-width="1" filter="url(#layerShadow)"/>
    <rect x="140" y="785" width="340" height="65" rx="8" fill="url(#circuitPattern)" opacity="0.3"/>

    <!-- Capacitive electrodes -->
    <g transform="translate(160, 795)">
      <rect x="0" y="0" width="5" height="30" rx="1" fill="#FFC107" opacity="0.7"/>
      <rect x="10" y="5" width="5" height="20" rx="1" fill="#FFC107" opacity="0.7"/>
      <rect x="20" y="0" width="5" height="30" rx="1" fill="#FFC107" opacity="0.7"/>
      <rect x="30" y="5" width="5" height="20" rx="1" fill="#FFC107" opacity="0.7"/>
      <rect x="40" y="0" width="5" height="30" rx="1" fill="#FFC107" opacity="0.7"/>
      <rect x="50" y="5" width="5" height="20" rx="1" fill="#FFC107" opacity="0.7"/>
    </g>

    <rect x="240" y="795" width="35" height="25" rx="2" fill="url(#mcuGrad)" stroke="#455A64" stroke-width="0.5"/>
    <text x="257" y="811" fill="#B0BEC5" font-size="6" text-anchor="middle">STM32L0</text>

    <rect x="290" y="797" width="20" height="18" rx="2" fill="url(#framGrad)" stroke="#00695C" stroke-width="0.5"/>
    <text x="300" y="809" fill="#B2DFDB" font-size="5" text-anchor="middle">FRAM</text>

    <rect x="325" y="797" width="25" height="15" rx="2" fill="url(#boostGrad)" stroke="#0D47A1" stroke-width="0.5"/>
    <text x="337" y="808" fill="#90CAF9" font-size="5" text-anchor="middle">0.45→3.3V</text>

    <rect x="360" y="799" width="15" height="12" rx="1" fill="#455A64" stroke="#263238" stroke-width="0.5"/>
    <text x="367" y="808" fill="#B0BEC5" font-size="5" text-anchor="middle">ADC</text>

    <text x="187" y="833" fill="#A5D6A7" font-size="8" text-anchor="middle">Capacitive</text>
    <text x="187" y="843" fill="#A5D6A7" font-size="8" text-anchor="middle">Sensor</text>

    <text x="290" y="822" fill="#C8E6C9" font-size="14" text-anchor="middle" font-weight="600">Layer 3: Sensor PCB + MCU</text>

    <line x1="490" y1="815" x2="560" y2="815" stroke="#78909C" stroke-width="1" stroke-dasharray="3 2"/>
    <text x="565" y="805" fill="#546E7A" font-size="12" font-weight="600">Active electronics layer</text>
    <text x="565" y="821" fill="#78909C" font-size="12">STM32L0 MCU (0.4 µA sleep)</text>
    <text x="565" y="837" fill="#78909C" font-size="12">FRAM Ring Buffer (8 KB)</text>
    <text x="565" y="851" fill="#78909C" font-size="12">Boost Converter: 0.45V → 3.3V</text>
  </g>

  <!-- Connector 3→4 -->
  <line x1="310" y1="855" x2="310" y2="873" stroke="#B0BEC5" stroke-width="1.5" stroke-dasharray="4 3"/>

  <!-- Layer 4: MFC Bio-Battery — y=875 h=70 bottom=945 -->
  <g>
    <rect x="140" y="875" width="340" height="70" rx="10" fill="url(#presslingGrad)" stroke="#33691E" stroke-width="1.5" filter="url(#layerShadow)"/>
    <rect x="140" y="875" width="340" height="70" rx="10" fill="url(#mycelium)" opacity="0.3"/>

    <!-- Fungal cell structure -->
    <g opacity="0.45">
      <circle cx="180" cy="910" r="8" fill="none" stroke="#1B5E20" stroke-width="1"/>
      <circle cx="180" cy="910" r="3" fill="#4CAF50"/>
      <circle cx="210" cy="900" r="6" fill="none" stroke="#1B5E20" stroke-width="1"/>
      <circle cx="210" cy="900" r="2" fill="#4CAF50"/>
      <circle cx="240" cy="915" r="7" fill="none" stroke="#1B5E20" stroke-width="1"/>
      <circle cx="240" cy="915" r="2.5" fill="#4CAF50"/>
      <circle cx="270" cy="905" r="9" fill="none" stroke="#1B5E20" stroke-width="1"/>
      <circle cx="270" cy="905" r="3" fill="#4CAF50"/>
      <circle cx="300" cy="910" r="6" fill="none" stroke="#1B5E20" stroke-width="1"/>
      <circle cx="300" cy="910" r="2" fill="#4CAF50"/>
      <circle cx="330" cy="902" r="7" fill="none" stroke="#1B5E20" stroke-width="1"/>
      <circle cx="330" cy="902" r="2.5" fill="#4CAF50"/>
      <circle cx="360" cy="912" r="8" fill="none" stroke="#1B5E20" stroke-width="1"/>
      <circle cx="360" cy="912" r="3" fill="#4CAF50"/>
      <circle cx="390" cy="905" r="6" fill="none" stroke="#1B5E20" stroke-width="1"/>
      <circle cx="390" cy="905" r="2" fill="#4CAF50"/>
      <circle cx="420" cy="908" r="7" fill="none" stroke="#1B5E20" stroke-width="1"/>
      <circle cx="420" cy="908" r="2.5" fill="#4CAF50"/>
    </g>

    <text x="190" y="935" fill="#1B5E20" font-size="12" font-weight="600" opacity="0.7">ANODE (−)</text>
    <text x="360" y="935" fill="#33691E" font-size="12" font-weight="600" opacity="0.7">CATHODE (+)</text>

    <text x="290" y="900" fill="white" font-size="14" text-anchor="middle" font-weight="700">Layer 4: MFC Bio-Battery</text>
    <text x="290" y="928" fill="#E8F5E9" font-size="12" text-anchor="middle">Trametes pubescens | 12.5 µW/cm² baseline | 2 cm² active area</text>

    <line x1="490" y1="910" x2="560" y2="910" stroke="#78909C" stroke-width="1" stroke-dasharray="3 2"/>
    <text x="565" y="900" fill="#546E7A" font-size="12" font-weight="600">Fungal microbial fuel cell</text>
    <text x="565" y="916" fill="#78909C" font-size="12">Species: Trametes pubescens</text>
    <text x="565" y="932" fill="#78909C" font-size="12">Power: 25 µW (2 cm², literature baseline)</text>
    <text x="565" y="948" fill="#78909C" font-size="12">Voltage: 0.45V OCV | TRL 2 (simulation complete)</text>
  </g>

  <!-- Connector 4→5 -->
  <line x1="310" y1="950" x2="310" y2="968" stroke="#B0BEC5" stroke-width="1.5" stroke-dasharray="4 3"/>

  <!-- Layer 5: Bottom Casing — y=970 h=55 bottom=1025 -->
  <g>
    <rect x="140" y="970" width="340" height="55" rx="10" fill="url(#casingGrad)" stroke="#5D4037" stroke-width="1.5" filter="url(#layerShadow)"/>
    <rect x="140" y="970" width="340" height="55" rx="10" fill="url(#mycelium)" opacity="0.1"/>
    <text x="310" y="1000" fill="#EFEBE9" font-size="14" text-anchor="middle" font-weight="600">Layer 5: Bottom Casing</text>
    <line x1="490" y1="997" x2="560" y2="997" stroke="#78909C" stroke-width="1" stroke-dasharray="3 2"/>
    <text x="565" y="991" fill="#546E7A" font-size="12" font-weight="600">Soil-contact layer</text>
    <text x="565" y="1007" fill="#78909C" font-size="12">Moisture-permeable membrane</text>
  </g>

  <!-- Total height dimension: Layer 1 top (630) to Layer 5 bottom (1025) -->
  <line x1="110" y1="630" x2="110" y2="1025" stroke="#52B788" stroke-width="2" marker-start="url(#arrowGreen)" marker-end="url(#arrowGreen)"/>
  <text x="95" y="830" fill="#2E7D32" font-size="13" text-anchor="middle" font-weight="600" transform="rotate(-90 95 830)">12 mm total height</text>

  <!-- ═══════════════════════════════════════════════════════════ -->
  <!-- SECTION 3: FIELD DEPLOYMENT -->
  <!-- ═══════════════════════════════════════════════════════════ -->
  <rect x="40" y="1080" width="8" height="28" rx="4" fill="#2E7D32"/>
  <text x="60" y="1100" fill="#2E7D32" font-size="22" font-weight="700">3. Field Deployment — Precision Agriculture Use Case</text>
  <rect x="60" y="1112" width="80" height="3" rx="1.5" fill="url(#accentLine)"/>

  <!-- Ground cross-section -->
  <rect x="80" y="1145" width="520" height="50" rx="6" fill="#81C784" opacity="0.25" stroke="#4CAF50" stroke-width="1"/>
  <text x="340" y="1175" fill="#2E7D32" font-size="14" text-anchor="middle" font-weight="600">Surface — Crop Field</text>

  <!-- Sensor deployed in soil -->
  <g transform="translate(140, 1200)">
    <rect x="0" y="0" width="100" height="65" rx="10" fill="url(#casingGrad)" stroke="#5D4037" stroke-width="1.5" filter="url(#cardShadow)" opacity="0.8"/>
    <rect x="15" y="10" width="70" height="45" rx="6" fill="url(#pcbGrad)" opacity="0.5"/>
    <rect x="20" y="15" width="60" height="35" rx="4" fill="url(#presslingGrad)" opacity="0.6"/>
    <text x="50" y="80" fill="#8D6E63" font-size="12" text-anchor="middle">Sensor Tag</text>
    <text x="50" y="95" fill="#A1887F" font-size="11" text-anchor="middle">~12 cm depth</text>
  </g>

  <!-- Soil layers -->
  <rect x="80" y="1195" width="520" height="120" fill="url(#soilGrad)" opacity="0.65"/>

  <!-- Roots -->
  <g opacity="0.35">
    <path d="M100,1245 Q120,1265 140,1295" fill="none" stroke="#795548" stroke-width="2"/>
    <path d="M140,1295 Q155,1305 170,1325" fill="none" stroke="#795548" stroke-width="1.5"/>
    <path d="M450,1255 Q470,1285 490,1315" fill="none" stroke="#795548" stroke-width="2"/>
    <path d="M490,1315 Q510,1330 530,1345" fill="none" stroke="#795548" stroke-width="1.5"/>
  </g>

  <!-- Water drops (moisture) -->
  <g fill="#42A5F5" opacity="0.3">
    <circle cx="180" cy="1225" r="3"/>
    <circle cx="200" cy="1245" r="2.5"/>
    <circle cx="160" cy="1255" r="2"/>
    <circle cx="220" cy="1235" r="2"/>
    <circle cx="300" cy="1265" r="2.5"/>
    <circle cx="320" cy="1295" r="3"/>
    <circle cx="280" cy="1285" r="2"/>
    <circle cx="400" cy="1275" r="2.5"/>
    <circle cx="420" cy="1305" r="2"/>
    <circle cx="380" cy="1295" r="3"/>
  </g>

  <!-- Signal waves (NFC) -->
  <g fill="none" stroke="#7B1FA2" stroke-width="1.5" opacity="0.5">
    <path d="M250,1215 Q260,1200 250,1185"/>
    <path d="M255,1215 Q270,1195 255,1175"/>
    <path d="M260,1215 Q280,1190 260,1165"/>
    <text x="278" y="1170" fill="#7B1FA2" font-size="12" opacity="0.8">NFC</text>
  </g>

  <!-- Gateway / Reader -->
  <g transform="translate(400, 1135)">
    <rect x="0" y="0" width="60" height="40" rx="6" fill="#37474F" stroke="#263238" stroke-width="1.5" filter="url(#cardShadow)"/>
    <rect x="5" y="5" width="20" height="10" rx="2" fill="#4CAF50" opacity="0.5"/>
    <text x="30" y="32" fill="#B0BEC5" font-size="9" text-anchor="middle">Reader</text>
    <line x1="30" y1="40" x2="30" y2="55" stroke="#455A64" stroke-width="1.5"/>
    <line x1="20" y1="55" x2="40" y2="55" stroke="#455A64" stroke-width="1.5"/>
  </g>

  <!-- Signal from reader to cloud -->
  <g fill="none" stroke="#1565C0" stroke-width="1" opacity="0.4" stroke-dasharray="4 3">
    <path d="M440,1135 Q460,1125 490,1120"/>
    <path d="M440,1135 Q465,1120 500,1115"/>
    <text x="510" y="1120" fill="#1565C0" font-size="12">Cloud / Dashboard</text>
  </g>

  <!-- Deployment notes card -->
  <rect x="610" y="1145" width="530" height="220" rx="12" fill="white" stroke="#E0E0E0" stroke-width="1" filter="url(#cardShadow)"/>
  <rect x="610" y="1145" width="530" height="36" rx="12" fill="url(#titleGrad)"/>
  <rect x="610" y="1169" width="530" height="12" fill="url(#titleGrad)"/>
  <text x="875" y="1169" fill="white" font-size="14" text-anchor="middle" font-weight="600">Deployment Configuration</text>

  <g fill="#37474F" font-size="13">
    <text x="635" y="1212">◈ Depth: 8–12 cm below surface</text>
    <text x="635" y="1238">◈ Density: 1 sensor per 10 m² field</text>
    <text x="635" y="1264">◈ Lifetime: 7 days continuous</text>
    <text x="635" y="1290">◈ Reading interval: 15 min</text>

    <text x="635" y="1326" font-weight="600">Data Flow</text>
    <text x="635" y="1352">1. Sensor measures soil moisture</text>
    <text x="635" y="1374">2. MCU stores in FRAM buffer</text>
    <text x="635" y="1396">3. NFC read / LoRa transmit</text>
    <text x="635" y="1418">4. Reader → Cloud → Dashboard</text>
  </g>

  <!-- ═══════════════════════════════════════════════════════════ -->
  <!-- SECTION 4: SPECIFICATIONS TABLE + ENERGY BUDGET -->
  <!-- ═══════════════════════════════════════════════════════════ -->
  <rect x="40" y="1440" width="8" height="28" rx="4" fill="#2E7D32"/>
  <text x="60" y="1460" fill="#2E7D32" font-size="22" font-weight="700">4. MVP Technical Specifications</text>
  <rect x="60" y="1472" width="80" height="3" rx="1.5" fill="url(#accentLine)"/>

  <!-- Specs table -->
  <g transform="translate(40, 1490)">
    <rect x="0" y="0" width="550" height="30" rx="6" fill="url(#tableHeaderGrad)"/>
    <rect x="0" y="24" width="550" height="6" fill="url(#tableHeaderGrad)"/>
    <text x="15" y="20" fill="white" font-size="13" font-weight="600">Parameter</text>
    <text x="240" y="20" fill="white" font-size="13" font-weight="600">Value</text>
    <text x="420" y="20" fill="white" font-size="13" font-weight="600">Notes</text>

    <rect x="0" y="30" width="550" height="28" fill="#E8F5E9"/>
    <text x="15" y="49" fill="#37474F" font-size="12">Dimensions</text>
    <text x="240" y="49" fill="#37474F" font-size="12">65 × 45 × 12 mm</text>
    <text x="420" y="49" fill="#78909C" font-size="12">Credit card form factor</text>

    <rect x="0" y="58" width="550" height="28" fill="white"/>
    <text x="15" y="77" fill="#37474F" font-size="12">Weight</text>
    <text x="240" y="77" fill="#37474F" font-size="12">3.2 g</text>
    <text x="420" y="77" fill="#78909C" font-size="12">90% compostable</text>

    <rect x="0" y="86" width="550" height="28" fill="#E8F5E9"/>
    <text x="15" y="105" fill="#37474F" font-size="12">Bio-Battery Power</text>
    <text x="240" y="105" fill="#37474F" font-size="12">25 µW (2 cm²)</text>
    <text x="420" y="105" fill="#78909C" font-size="12">12.5 µW/cm² @ 0.45V (literature)</text>

    <rect x="0" y="114" width="550" height="28" fill="white"/>
    <text x="15" y="133" fill="#37474F" font-size="12">MCU</text>
    <text x="240" y="133" fill="#37474F" font-size="12">STM32L0 (Cortex-M0+)</text>
    <text x="420" y="133" fill="#78909C" font-size="12">0.4 µA sleep current</text>

    <rect x="0" y="142" width="550" height="28" fill="#E8F5E9"/>
    <text x="15" y="161" fill="#37474F" font-size="12">Sensor Type</text>
    <text x="240" y="161" fill="#37474F" font-size="12">Capacitive (fringe-field)</text>
    <text x="420" y="161" fill="#78909C" font-size="12">100 kHz excitation</text>

    <rect x="0" y="170" width="550" height="28" fill="white"/>
    <text x="15" y="189" fill="#37474F" font-size="12">Communication</text>
    <text x="240" y="189" fill="#37474F" font-size="12">NFC (Ph.1) / LoRa (Ph.2)</text>
    <text x="420" y="189" fill="#78909C" font-size="12">Passive powered / 2+ km</text>

    <rect x="0" y="198" width="550" height="28" fill="#E8F5E9"/>
    <text x="15" y="217" fill="#37474F" font-size="12">Measurement Interval</text>
    <text x="240" y="217" fill="#37474F" font-size="12">15 minutes</text>
    <text x="420" y="217" fill="#78909C" font-size="12">96 measurements/day</text>

    <rect x="0" y="226" width="550" height="28" fill="white"/>
    <text x="15" y="245" fill="#37474F" font-size="12">Lifetime</text>
    <text x="240" y="245" fill="#37474F" font-size="12">7 days continuous</text>
    <text x="420" y="245" fill="#78909C" font-size="12">2% power degradation/day</text>

    <rect x="0" y="254" width="550" height="28" fill="#E8F5E9"/>
    <text x="15" y="273" fill="#37474F" font-size="12">Data Storage</text>
    <text x="240" y="273" fill="#37474F" font-size="12">FRAM 8 KB ring buffer</text>
    <text x="420" y="273" fill="#78909C" font-size="12">672 entries @ 12 bytes</text>

    <rect x="0" y="282" width="550" height="28" fill="white"/>
    <text x="15" y="301" fill="#37474F" font-size="12">Fungal Species</text>
    <text x="240" y="301" fill="#37474F" font-size="12">Trametes pubescens</text>
    <text x="420" y="301" fill="#78909C" font-size="12">White-rot fungus</text>

    <rect x="0" y="310" width="550" height="28" fill="#E8F5E9"/>
    <text x="15" y="329" fill="#37474F" font-size="12">Unit Cost (Target)</text>
    <text x="240" y="329" fill="#37474F" font-size="12">DevKit ~€24.55 / pellet €0.15</text>
    <text x="420" y="329" fill="#78909C" font-size="12">BOM at 500 units / at scale</text>

    <rect x="0" y="338" width="550" height="28" rx="0 0 6 6" fill="white"/>
    <text x="15" y="357" fill="#37474F" font-size="12">Ingress Protection</text>
    <text x="240" y="357" fill="#37474F" font-size="12">IP67</text>
    <text x="420" y="357" fill="#78909C" font-size="12">Dustproof + waterproof</text>
  </g>

  <!-- Energy Budget Card -->
  <g transform="translate(610, 1490)">
    <rect x="0" y="0" width="550" height="350" rx="12" fill="white" stroke="#E0E0E0" stroke-width="1" filter="url(#cardShadow)"/>
    <rect x="0" y="0" width="550" height="36" rx="12" fill="url(#titleGrad)"/>
    <rect x="0" y="24" width="550" height="12" fill="url(#titleGrad)"/>
    <text x="275" y="25" fill="white" font-size="14" text-anchor="middle" font-weight="600">Energy Budget (per day)</text>

    <!-- Supply bar -->
    <text x="20" y="68" fill="#37474F" font-size="13" font-weight="600">Supply (Battery)</text>
    <rect x="20" y="78" width="510" height="30" rx="6" fill="#E8F5E9"/>
    <rect x="20" y="78" width="510" height="30" rx="6" fill="#4CAF50" opacity="0.7"/>
    <text x="275" y="98" fill="white" font-size="13" text-anchor="middle" font-weight="600">4,320 mJ/day (50 µW × 24h, target)</text>

    <!-- Demand breakdown -->
    <text x="20" y="140" fill="#37474F" font-size="13" font-weight="600">Demand (System)</text>

    <rect x="20" y="150" width="390" height="24" rx="4" fill="#BBDEFB"/>
    <text x="25" y="167" fill="#1565C0" font-size="12">Sleep: 30 mJ (0.72 µW × 24h, est.)</text>

    <rect x="20" y="178" width="100" height="24" rx="4" fill="#C8E6C9"/>
    <text x="25" y="195" fill="#2E7D32" font-size="12">ADC: 5.8 mJ</text>

    <rect x="20" y="206" width="60" height="24" rx="4" fill="#FFE0B2"/>
    <text x="25" y="223" fill="#E65100" font-size="12">Sensor</text>

    <rect x="20" y="234" width="40" height="24" rx="4" fill="#F8BBD0"/>
    <text x="25" y="251" fill="#880E4F" font-size="12">NFC</text>

    <rect x="20" y="264" width="510" height="2" rx="1" fill="#E0E0E0"/>

    <text x="20" y="288" fill="#37474F" font-size="13" font-weight="600">Total Demand: ~40 mJ/day</text>

    <!-- Margin -->
    <rect x="20" y="300" width="510" height="36" rx="6" fill="#FFF3E0" stroke="#E65100" stroke-width="1.5"/>
    <text x="275" y="323" fill="#E65100" font-size="13" text-anchor="middle" font-weight="700">TRL 2 baseline insufficient — power optimization critical</text>
  </g>

  <!-- ═══════ FOOTER ═══════ -->
  <rect x="0" y="1870" width="1200" height="30" fill="url(#titleGrad)"/>
  <text x="60" y="1890" fill="#A5D6A7" font-size="12">MykoVolt — Biodegradable Fungal Bio-Battery for Precision Agriculture</text>
  <text x="1140" y="1890" fill="#A5D6A7" font-size="11" text-anchor="end">Confidential — MVP Design v1.0</text>
</svg>
