<?xml version="1.0" encoding="UTF-8" standalone="no"?>
<svg xmlns="http://www.w3.org/2000/svg" viewBox="0 0 1200 1800" width="1200" height="1800" font-family="'Segoe UI', -apple-system, Helvetica, Arial, sans-serif">
  <defs>
    <linearGradient id="bgGradLight" x1="0%" y1="0%" x2="0%" y2="100%">
      <stop offset="0%" style="stop-color:#F5FAF5"/>
      <stop offset="50%" style="stop-color:#FAFCFA"/>
      <stop offset="100%" style="stop-color:#F0F7F0"/>
    </linearGradient>
    <linearGradient id="titleGrad" x1="0%" y1="0%" x2="100%" y2="100%">
      <stop offset="0%" style="stop-color:#0D2818"/>
      <stop offset="40%" style="stop-color:#1B4332"/>
      <stop offset="100%" style="stop-color:#2D6A4F"/>
    </linearGradient>
    <linearGradient id="accentLine" x1="0%" y1="0%" x2="100%" y2="0%">
      <stop offset="0%" style="stop-color:#52B788"/>
      <stop offset="100%" style="stop-color:#D4FC79"/>
    </linearGradient>
    <linearGradient id="cardGreen" x1="0%" y1="0%" x2="0%" y2="100%">
      <stop offset="0%" style="stop-color:#E8F5E9"/>
      <stop offset="100%" style="stop-color:#C8E6C9"/>
    </linearGradient>
    <linearGradient id="tableHeaderGrad" x1="0%" y1="0%" x2="100%" y2="0%">
      <stop offset="0%" style="stop-color:#1B4332"/>
      <stop offset="100%" style="stop-color:#2D6A4F"/>
    </linearGradient>
    <linearGradient id="soilGrad" x1="0%" y1="0%" x2="0%" y2="100%">
      <stop offset="0%" style="stop-color:#5D4037;stop-opacity:1"/>
      <stop offset="100%" style="stop-color:#3E2723;stop-opacity:1"/>
    </linearGradient>
    <linearGradient id="presslingGrad" x1="0%" y1="0%" x2="0%" y2="100%">
      <stop offset="0%" style="stop-color:#8BC34A"/>
      <stop offset="50%" style="stop-color:#689F38"/>
      <stop offset="100%" style="stop-color:#558B2F"/>
    </linearGradient>
    <linearGradient id="pcbGrad" x1="0%" y1="0%" x2="0%" y2="100%">
      <stop offset="0%" style="stop-color:#1B5E20"/>
      <stop offset="100%" style="stop-color:#2E7D32"/>
    </linearGradient>
    <linearGradient id="electrodeGrad" x1="0%" y1="0%" x2="100%" y2="0%">
      <stop offset="0%" style="stop-color:#FFD54F"/>
      <stop offset="50%" style="stop-color:#FFC107"/>
      <stop offset="100%" style="stop-color:#FFB300"/>
    </linearGradient>
    <linearGradient id="casingGrad" x1="0%" y1="0%" x2="0%" y2="100%">
      <stop offset="0%" style="stop-color:#A1887F"/>
      <stop offset="100%" style="stop-color:#795548"/>
    </linearGradient>
    <linearGradient id="boostGrad" x1="0%" y1="0%" x2="100%" y2="100%">
      <stop offset="0%" style="stop-color:#1565C0"/>
      <stop offset="100%" style="stop-color:#0D47A1"/>
    </linearGradient>
    <linearGradient id="mcuGrad" x1="0%" y1="0%" x2="0%" y2="100%">
      <stop offset="0%" style="stop-color:#37474F"/>
      <stop offset="100%" style="stop-color:#263238"/>
    </linearGradient>
    <linearGradient id="loracGrad" x1="0%" y1="0%" x2="0%" y2="100%">
      <stop offset="0%" style="stop-color:#6A1B9A"/>
      <stop offset="100%" style="stop-color:#4A148C"/>
    </linearGradient>
    <linearGradient id="framGrad" x1="0%" y1="0%" x2="0%" y2="100%">
      <stop offset="0%" style="stop-color:#00695C"/>
      <stop offset="100%" style="stop-color:#004D40"/>
    </linearGradient>
    <radialGradient id="glowBg" cx="50%" cy="30%" r="60%">
      <stop offset="0%" style="stop-color:#52B788;stop-opacity:0.06"/>
      <stop offset="60%" style="stop-color:#52B788;stop-opacity:0.02"/>
      <stop offset="100%" style="stop-color:#52B788;stop-opacity:0"/>
    </radialGradient>
    <filter id="cardShadow">
      <feDropShadow dx="0" dy="4" stdDeviation="8" flood-color="#000" flood-opacity="0.08"/>
    </filter>
    <filter id="cardShadowLg">
      <feDropShadow dx="0" dy="6" stdDeviation="14" flood-color="#000" flood-opacity="0.12"/>
    </filter>
    <filter id="layerShadow">
      <feDropShadow dx="3" dy="4" stdDeviation="6" flood-color="#000" flood-opacity="0.18"/>
    </filter>
    <filter id="glow">
      <feGaussianBlur stdDeviation="3" result="blur"/>
      <feMerge>
        <feMergeNode in="blur"/>
        <feMergeNode in="SourceGraphic"/>
      </feMerge>
    </filter>
    <pattern id="mycelium" patternUnits="userSpaceOnUse" width="16" height="16">
      <line x1="0" y1="0" x2="16" y2="16" stroke="#4CAF50" stroke-width="0.4" opacity="0.25"/>
      <line x1="16" y1="0" x2="0" y2="16" stroke="#4CAF50" stroke-width="0.4" opacity="0.25"/>
      <circle cx="8" cy="8" r="1" fill="#8BC34A" opacity="0.15"/>
    </pattern>
    <pattern id="circuitPattern" patternUnits="userSpaceOnUse" width="8" height="8">
      <rect width="8" height="8" fill="none"/>
      <line x1="0" y1="4" x2="8" y2="4" stroke="#FFC107" stroke-width="0.3" opacity="0.35"/>
      <line x1="4" y1="0" x2="4" y2="8" stroke="#FFC107" stroke-width="0.3" opacity="0.35"/>
    </pattern>
    <marker id="arrowhead" markerWidth="10" markerHeight="7" refX="10" refY="3.5" orient="auto">
      <polygon points="0 0, 10 3.5, 0 7" fill="#78909C"/>
    </marker>
    <marker id="arrowGreen" markerWidth="10" markerHeight="7" refX="10" refY="3.5" orient="auto">
      <polygon points="0 0, 10 3.5, 0 7" fill="#52B788"/>
    </marker>
  </defs>

  <!-- Background -->
  <rect width="1200" height="1800" fill="url(#bgGradLight)"/>
  <rect width="1200" height="1800" fill="url(#glowBg)"/>

  <!-- ═══════ TITLE SECTION ═══════ -->
  <rect x="0" y="0" width="1200" height="110" fill="url(#titleGrad)"/>
  <text x="60" y="48" fill="white" font-size="36" font-weight="800" letter-spacing="-1">MykoVolt</text>
  <text x="60" y="78" fill="#A5D6A7" font-size="16" font-weight="400">Biodegradable Fungal Bio-Battery — MVP Design Document</text>
  <rect x="60" y="92" width="60" height="3" rx="1.5" fill="url(#accentLine)"/>
  <text x="1140" y="55" fill="#A5D6A7" font-size="13" text-anchor="end">v1.0 | Phase 1 DevKit | 2026–2028</text>
  <text x="1140" y="75" fill="#52B788" font-size="11" text-anchor="end">TRL 2 — Simulation Phase</text>

  <!-- ═══════════════════════════════════════════════════════════ -->
  <!-- SECTION 1: TOP VIEW -->
  <!-- ═══════════════════════════════════════════════════════════ -->
  <rect x="40" y="138" width="8" height="28" rx="4" fill="#2E7D32"/>
  <text x="60" y="158" fill="#2E7D32" font-size="22" font-weight="700">1. Top View — As Deployed in Soil</text>
  <rect x="60" y="170" width="80" height="3" rx="1.5" fill="url(#accentLine)"/>

  <!-- Soil background card -->
  <rect x="140" y="195" width="420" height="360" rx="16" fill="url(#soilGrad)" filter="url(#cardShadowLg)"/>
  <text x="350" y="225" fill="#BCAAA4" font-size="13" text-anchor="middle" font-style="italic">Soil Surface</text>

  <!-- Sensor Tag Top View -->
  <rect x="220" y="275" width="260" height="180" rx="20" fill="url(#casingGrad)" stroke="#5D4037" stroke-width="1.5" filter="url(#cardShadow)"/>
  <rect x="220" y="275" width="260" height="180" rx="20" fill="url(#mycelium)" opacity="0.15"/>

  <!-- Compostable label -->
  <rect x="310" y="283" width="80" height="18" rx="9" fill="#4CAF50" opacity="0.85"/>
  <text x="350" y="295" fill="white" font-size="9" text-anchor="middle" font-weight="600">COMPOSTABLE</text>

  <!-- Interdigitated electrodes visible through casing -->
  <g opacity="0.5">
    <rect x="260" y="325" width="8" height="100" rx="2" fill="url(#electrodeGrad)"/>
    <rect x="280" y="335" width="8" height="80" rx="2" fill="url(#electrodeGrad)"/>
    <rect x="300" y="325" width="8" height="100" rx="2" fill="url(#electrodeGrad)"/>
    <rect x="320" y="335" width="8" height="80" rx="2" fill="url(#electrodeGrad)"/>
    <rect x="340" y="325" width="8" height="100" rx="2" fill="url(#electrodeGrad)"/>
    <rect x="360" y="335" width="8" height="80" rx="2" fill="url(#electrodeGrad)"/>
    <rect x="380" y="325" width="8" height="100" rx="2" fill="url(#electrodeGrad)"/>
    <rect x="400" y="335" width="8" height="80" rx="2" fill="url(#electrodeGrad)"/>
    <rect x="420" y="325" width="8" height="100" rx="2" fill="url(#electrodeGrad)"/>
    <rect x="255" y="320" width="185" height="4" rx="2" fill="#FFB300" opacity="0.6"/>
    <rect x="255" y="430" width="185" height="4" rx="2" fill="#FFB300" opacity="0.6"/>
  </g>

  <!-- NFC antenna coil -->
  <ellipse cx="350" cy="365" rx="100" ry="60" fill="none" stroke="#7B1FA2" stroke-width="1.5" stroke-dasharray="4 3" opacity="0.5"/>

  <!-- LED indicator -->
  <circle cx="240" cy="445" r="4" fill="#4CAF50" opacity="0.8" filter="url(#glow)"/>
  <text x="252" y="448" fill="#A5D6A7" font-size="8">Status</text>

  <!-- Branding -->
  <text x="350" y="460" fill="#E8F5E9" font-size="11" text-anchor="middle" font-weight="600" opacity="0.7">MykoVolt</text>

  <!-- Dimensions -->
  <line x1="220" y1="485" x2="220" y2="505" stroke="#78909C" stroke-width="1"/>
  <line x1="480" y1="485" x2="480" y2="505" stroke="#78909C" stroke-width="1"/>
  <line x1="220" y1="500" x2="480" y2="500" stroke="#78909C" stroke-width="1" marker-start="url(#arrowhead)" marker-end="url(#arrowhead)"/>
  <text x="350" y="520" fill="#546E7A" font-size="12" text-anchor="middle">65 mm</text>

  <line x1="510" y1="275" x2="530" y2="275" stroke="#78909C" stroke-width="1"/>
  <line x1="510" y1="455" x2="530" y2="455" stroke="#78909C" stroke-width="1"/>
  <line x1="525" y1="275" x2="525" y2="455" stroke="#78909C" stroke-width="1" marker-start="url(#arrowhead)" marker-end="url(#arrowhead)"/>
  <text x="545" y="370" fill="#546E7A" font-size="12" text-anchor="middle" transform="rotate(90 545 370)">45 mm</text>

  <!-- Top View Annotations -->
  <g fill="#37474F" font-size="11">
    <text x="610" y="235">A. Interdigitated Capacitive Electrodes</text>
    <text x="630" y="252" fill="#78909C" font-size="10">Fringe-field soil moisture measurement</text>
    <text x="610" y="280">B. NFC Antenna Coil (Passive)</text>
    <text x="630" y="297" fill="#78909C" font-size="10">NFC read (Phase 1) / LoRa module (Phase 2)</text>
    <text x="610" y="325">C. Biodegradable Casing</text>
    <text x="630" y="342" fill="#78909C" font-size="10">Compostable pressling material</text>
    <text x="610" y="370">D. Status LED</text>
    <text x="630" y="387" fill="#78909C" font-size="10">Visual lifetime indicator</text>
    <text x="610" y="415">E. Dimensions</text>
    <text x="630" y="432" fill="#78909C" font-size="10">65 × 45 × 12 mm total</text>
    <text x="630" y="449" fill="#78909C" font-size="10">Weight: 3.2 g</text>
  </g>

  <!-- ═══════════════════════════════════════════════════════════ -->
  <!-- SECTION 2: EXPLODED CROSS-SECTION VIEW -->
  <!-- ═══════════════════════════════════════════════════════════ -->
  <rect x="40" y="568" width="8" height="28" rx="4" fill="#2E7D32"/>
  <text x="60" y="588" fill="#2E7D32" font-size="22" font-weight="700">2. Exploded Cross-Section — Layer Architecture</text>
  <rect x="60" y="600" width="80" height="3" rx="1.5" fill="url(#accentLine)"/>

  <!-- Layer 1: Top Casing -->
  <g transform="translate(0, 0)">
    <rect x="140" y="630" width="340" height="55" rx="10" fill="url(#casingGrad)" stroke="#5D4037" stroke-width="1.5" filter="url(#layerShadow)"/>
    <rect x="140" y="630" width="340" height="55" rx="10" fill="url(#mycelium)" opacity="0.1"/>
    <text x="310" y="662" fill="#EFEBE9" font-size="14" text-anchor="middle" font-weight="600">Layer 1: Top Casing</text>
    <text x="310" y="678" fill="#D7CCC8" font-size="10" text-anchor="middle">Compostable Pressling — IP67, 1.5 mm thick</text>
    <line x1="490" y1="657" x2="560" y2="657" stroke="#78909C" stroke-width="1" stroke-dasharray="3 2"/>
    <text x="565" y="650" fill="#546E7A" font-size="10" font-weight="600">Biodegradable outer shell</text>
    <text x="565" y="664" fill="#78909C" font-size="9">Material: Fungal pressling</text>
  </g>

  <line x1="310" y1="690" x2="310" y2="708" stroke="#B0BEC5" stroke-width="1.5" stroke-dasharray="4 3"/>

  <!-- Layer 2: NFC/LoRa Antenna -->
  <g transform="translate(0, 35)">
    <rect x="140" y="715" width="340" height="45" rx="8" fill="url(#loracGrad)" stroke="#4A148C" stroke-width="1" filter="url(#layerShadow)"/>
    <text x="310" y="742" fill="#E1BEE7" font-size="13" text-anchor="middle" font-weight="600">Layer 2: NFC Antenna / LoRa Module</text>
    <line x1="490" y1="737" x2="560" y2="737" stroke="#78909C" stroke-width="1" stroke-dasharray="3 2"/>
    <text x="565" y="730" fill="#546E7A" font-size="10" font-weight="600">Communication layer</text>
    <text x="565" y="744" fill="#78909C" font-size="9">Phase 1: Passive NFC (13.56 MHz)</text>
    <text x="565" y="757" fill="#78909C" font-size="9">Phase 2: LoRa 868 MHz, 2+ km</text>
  </g>

  <line x1="310" y1="765" x2="310" y2="783" stroke="#B0BEC5" stroke-width="1.5" stroke-dasharray="4 3"/>

  <!-- Layer 3: Sensor PCB -->
  <g transform="translate(0, 70)">
    <rect x="140" y="790" width="340" height="60" rx="8" fill="url(#pcbGrad)" stroke="#1B5E20" stroke-width="1" filter="url(#layerShadow)"/>
    <rect x="140" y="790" width="340" height="60" rx="8" fill="url(#circuitPattern)" opacity="0.3"/>

    <!-- Capacitive electrodes -->
    <g transform="translate(160, 800)">
      <rect x="0" y="0" width="5" height="30" rx="1" fill="#FFC107" opacity="0.7"/>
      <rect x="10" y="5" width="5" height="20" rx="1" fill="#FFC107" opacity="0.7"/>
      <rect x="20" y="0" width="5" height="30" rx="1" fill="#FFC107" opacity="0.7"/>
      <rect x="30" y="5" width="5" height="20" rx="1" fill="#FFC107" opacity="0.7"/>
      <rect x="40" y="0" width="5" height="30" rx="1" fill="#FFC107" opacity="0.7"/>
      <rect x="50" y="5" width="5" height="20" rx="1" fill="#FFC107" opacity="0.7"/>
    </g>

    <rect x="240" y="798" width="35" height="25" rx="2" fill="url(#mcuGrad)" stroke="#455A64" stroke-width="0.5"/>
    <text x="257" y="814" fill="#B0BEC5" font-size="6" text-anchor="middle">STM32L0</text>

    <rect x="290" y="800" width="20" height="18" rx="2" fill="url(#framGrad)" stroke="#00695C" stroke-width="0.5"/>
    <text x="300" y="812" fill="#B2DFDB" font-size="5" text-anchor="middle">FRAM</text>

    <rect x="325" y="800" width="25" height="15" rx="2" fill="url(#boostGrad)" stroke="#0D47A1" stroke-width="0.5"/>
    <text x="337" y="811" fill="#90CAF9" font-size="5" text-anchor="middle">0.45→3.3V</text>

    <rect x="360" y="802" width="15" height="12" rx="1" fill="#455A64" stroke="#263238" stroke-width="0.5"/>
    <text x="367" y="811" fill="#B0BEC5" font-size="5" text-anchor="middle">ADC</text>

    <text x="187" y="838" fill="#A5D6A7" font-size="8" text-anchor="middle">Capacitive</text>
    <text x="187" y="848" fill="#A5D6A7" font-size="8" text-anchor="middle">Sensor</text>

    <text x="290" y="825" fill="#C8E6C9" font-size="12" text-anchor="middle" font-weight="600">Layer 3: Sensor PCB + MCU</text>

    <line x1="490" y1="820" x2="560" y2="820" stroke="#78909C" stroke-width="1" stroke-dasharray="3 2"/>
    <text x="565" y="808" fill="#546E7A" font-size="10" font-weight="600">Active electronics layer</text>
    <text x="565" y="822" fill="#78909C" font-size="9">STM32L0 MCU (0.4 µA sleep)</text>
    <text x="565" y="836" fill="#78909C" font-size="9">FRAM Ring Buffer (8 KB)</text>
    <text x="565" y="850" fill="#78909C" font-size="9">Boost Converter: 0.45V → 3.3V</text>
  </g>

  <line x1="310" y1="855" x2="310" y2="873" stroke="#B0BEC5" stroke-width="1.5" stroke-dasharray="4 3"/>

  <!-- Layer 4: MFC Bio-Battery -->
  <g transform="translate(0, 105)">
    <rect x="140" y="880" width="340" height="65" rx="10" fill="url(#presslingGrad)" stroke="#33691E" stroke-width="1.5" filter="url(#layerShadow)"/>
    <rect x="140" y="880" width="340" height="65" rx="10" fill="url(#mycelium)" opacity="0.3"/>

    <!-- Fungal cell structure -->
    <g opacity="0.45">
      <circle cx="180" cy="910" r="8" fill="none" stroke="#1B5E20" stroke-width="1"/>
      <circle cx="180" cy="910" r="3" fill="#4CAF50"/>
      <circle cx="210" cy="900" r="6" fill="none" stroke="#1B5E20" stroke-width="1"/>
      <circle cx="210" cy="900" r="2" fill="#4CAF50"/>
      <circle cx="240" cy="915" r="7" fill="none" stroke="#1B5E20" stroke-width="1"/>
      <circle cx="240" cy="915" r="2.5" fill="#4CAF50"/>
      <circle cx="270" cy="905" r="9" fill="none" stroke="#1B5E20" stroke-width="1"/>
      <circle cx="270" cy="905" r="3" fill="#4CAF50"/>
      <circle cx="300" cy="910" r="6" fill="none" stroke="#1B5E20" stroke-width="1"/>
      <circle cx="300" cy="910" r="2" fill="#4CAF50"/>
      <circle cx="330" cy="902" r="7" fill="none" stroke="#1B5E20" stroke-width="1"/>
      <circle cx="330" cy="902" r="2.5" fill="#4CAF50"/>
      <circle cx="360" cy="912" r="8" fill="none" stroke="#1B5E20" stroke-width="1"/>
      <circle cx="360" cy="912" r="3" fill="#4CAF50"/>
      <circle cx="390" cy="905" r="6" fill="none" stroke="#1B5E20" stroke-width="1"/>
      <circle cx="390" cy="905" r="2" fill="#4CAF50"/>
      <circle cx="420" cy="908" r="7" fill="none" stroke="#1B5E20" stroke-width="1"/>
      <circle cx="420" cy="908" r="2.5" fill="#4CAF50"/>
    </g>

    <text x="190" y="932" fill="#1B5E20" font-size="10" font-weight="600" opacity="0.7">ANODE (−)</text>
    <text x="360" y="932" fill="#33691E" font-size="10" font-weight="600" opacity="0.7">CATHODE (+)</text>

    <text x="290" y="900" fill="white" font-size="14" text-anchor="middle" font-weight="700">Layer 4: MFC Bio-Battery</text>
    <text x="290" y="928" fill="#E8F5E9" font-size="10" text-anchor="middle">Trametes pubescens | 12.5 µW/cm² baseline | 2 cm² active area</text>

    <line x1="490" y1="912" x2="560" y2="912" stroke="#78909C" stroke-width="1" stroke-dasharray="3 2"/>
    <text x="565" y="900" fill="#546E7A" font-size="10" font-weight="600">Fungal microbial fuel cell</text>
    <text x="565" y="914" fill="#78909C" font-size="9">Species: Trametes pubescens</text>
    <text x="565" y="928" fill="#78909C" font-size="9">Power: 25 µW (2 cm², literature baseline)</text>
    <text x="565" y="942" fill="#78909C" font-size="9">Voltage: 0.45V OCV | TRL 2 (simulation complete)</text>
  </g>

  <line x1="310" y1="950" x2="310" y2="968" stroke="#B0BEC5" stroke-width="1.5" stroke-dasharray="4 3"/>

  <!-- Layer 5: Bottom Casing -->
  <g transform="translate(0, 140)">
    <rect x="140" y="975" width="340" height="50" rx="10" fill="url(#casingGrad)" stroke="#5D4037" stroke-width="1.5" filter="url(#layerShadow)"/>
    <rect x="140" y="975" width="340" height="50" rx="10" fill="url(#mycelium)" opacity="0.1"/>
    <text x="310" y="1004" fill="#EFEBE9" font-size="13" text-anchor="middle" font-weight="600">Layer 5: Bottom Casing</text>
    <line x1="490" y1="1000" x2="560" y2="1000" stroke="#78909C" stroke-width="1" stroke-dasharray="3 2"/>
    <text x="565" y="993" fill="#546E7A" font-size="10" font-weight="600">Soil-contact layer</text>
    <text x="565" y="1008" fill="#78909C" font-size="9">Moisture-permeable membrane</text>
  </g>

  <!-- Total height dimension -->
  <line x1="110" y1="630" x2="110" y2="1025" stroke="#52B788" stroke-width="2" marker-start="url(#arrowGreen)" marker-end="url(#arrowGreen)"/>
  <text x="95" y="830" fill="#2E7D32" font-size="13" text-anchor="middle" font-weight="600" transform="rotate(-90 95 830)">12 mm total height</text>

  <!-- ═══════════════════════════════════════════════════════════ -->
  <!-- SECTION 3: FIELD DEPLOYMENT -->
  <!-- ═══════════════════════════════════════════════════════════ -->
  <rect x="40" y="1088" width="8" height="28" rx="4" fill="#2E7D32"/>
  <text x="60" y="1108" fill="#2E7D32" font-size="22" font-weight="700">3. Field Deployment — Precision Agriculture Use Case</text>
  <rect x="60" y="1120" width="80" height="3" rx="1.5" fill="url(#accentLine)"/>

  <!-- Ground cross-section -->
  <rect x="80" y="1150" width="520" height="50" rx="6" fill="#81C784" opacity="0.25" stroke="#4CAF50" stroke-width="1"/>
  <text x="340" y="1180" fill="#2E7D32" font-size="13" text-anchor="middle" font-weight="600">Surface — Crop Field</text>

  <!-- Sensor deployed in soil -->
  <g transform="translate(140, 1205)">
    <rect x="0" y="0" width="100" height="65" rx="10" fill="url(#casingGrad)" stroke="#5D4037" stroke-width="1.5" filter="url(#cardShadow)" opacity="0.8"/>
    <rect x="15" y="10" width="70" height="45" rx="6" fill="url(#pcbGrad)" opacity="0.5"/>
    <rect x="20" y="15" width="60" height="35" rx="4" fill="url(#presslingGrad)" opacity="0.6"/>
    <text x="50" y="75" fill="#8D6E63" font-size="10" text-anchor="middle">Sensor Tag</text>
    <text x="50" y="87" fill="#A1887F" font-size="8" text-anchor="middle">~12 cm depth</text>
  </g>

  <!-- Soil layers -->
  <rect x="80" y="1200" width="520" height="120" fill="url(#soilGrad)" opacity="0.65"/>

  <!-- Roots -->
  <g opacity="0.35">
    <path d="M100,1250 Q120,1270 140,1300" fill="none" stroke="#795548" stroke-width="2"/>
    <path d="M140,1300 Q155,1310 170,1330" fill="none" stroke="#795548" stroke-width="1.5"/>
    <path d="M450,1260 Q470,1290 490,1320" fill="none" stroke="#795548" stroke-width="2"/>
    <path d="M490,1320 Q510,1335 530,1350" fill="none" stroke="#795548" stroke-width="1.5"/>
  </g>

  <!-- Water drops (moisture) -->
  <g fill="#42A5F5" opacity="0.3">
    <circle cx="180" cy="1230" r="3"/>
    <circle cx="200" cy="1250" r="2.5"/>
    <circle cx="160" cy="1260" r="2"/>
    <circle cx="220" cy="1240" r="2"/>
    <circle cx="300" cy="1270" r="2.5"/>
    <circle cx="320" cy="1300" r="3"/>
    <circle cx="280" cy="1290" r="2"/>
    <circle cx="400" cy="1280" r="2.5"/>
    <circle cx="420" cy="1310" r="2"/>
    <circle cx="380" cy="1300" r="3"/>
  </g>

  <!-- Signal waves (NFC) -->
  <g fill="none" stroke="#7B1FA2" stroke-width="1.5" opacity="0.5">
    <path d="M250,1220 Q260,1205 250,1190"/>
    <path d="M255,1220 Q270,1200 255,1180"/>
    <path d="M260,1220 Q280,1195 260,1170"/>
    <text x="275" y="1175" fill="#7B1FA2" font-size="10" opacity="0.8">NFC</text>
  </g>

  <!-- Gateway / Reader -->
  <g transform="translate(400, 1140)">
    <rect x="0" y="0" width="60" height="40" rx="6" fill="#37474F" stroke="#263238" stroke-width="1.5" filter="url(#cardShadow)"/>
    <rect x="5" y="5" width="20" height="10" rx="2" fill="#4CAF50" opacity="0.5"/>
    <text x="30" y="32" fill="#B0BEC5" font-size="8" text-anchor="middle">Reader</text>
    <line x1="30" y1="40" x2="30" y2="55" stroke="#455A64" stroke-width="1.5"/>
    <line x1="20" y1="55" x2="40" y2="55" stroke="#455A64" stroke-width="1.5"/>
  </g>

  <!-- Signal from reader to cloud -->
  <g fill="none" stroke="#1565C0" stroke-width="1" opacity="0.4" stroke-dasharray="4 3">
    <path d="M440,1140 Q460,1130 490,1125"/>
    <path d="M440,1140 Q465,1125 500,1120"/>
    <text x="510" y="1125" fill="#1565C0" font-size="9">Cloud / Dashboard</text>
  </g>

  <!-- Deployment notes card -->
  <rect x="610" y="1150" width="530" height="200" rx="12" fill="white" stroke="#E0E0E0" stroke-width="1" filter="url(#cardShadow)"/>
  <rect x="610" y="1150" width="530" height="36" rx="12" fill="url(#titleGrad)"/>
  <rect x="610" y="1174" width="530" height="12" fill="url(#titleGrad)"/>
  <text x="875" y="1174" fill="white" font-size="13" text-anchor="middle" font-weight="600">Deployment Configuration</text>

  <g fill="#37474F" font-size="11">
    <text x="635" y="1215">◈ Depth: 8–12 cm below surface</text>
    <text x="635" y="1237">◈ Density: 1 sensor per 10 m² field</text>
    <text x="635" y="1259">◈ Lifetime: 7 days continuous</text>
    <text x="635" y="1281">◈ Reading interval: 15 min</text>

    <text x="635" y="1315" font-weight="600">Data Flow</text>
    <text x="635" y="1337">1. Sensor measures soil moisture</text>
    <text x="635" y="1359">2. MCU stores in FRAM buffer</text>
    <text x="635" y="1381">3. NFC read / LoRa transmit</text>
    <text x="635" y="1403">4. Reader → Cloud → Dashboard</text>
  </g>

  <!-- ═══════════════════════════════════════════════════════════ -->
  <!-- SECTION 4: SPECIFICATIONS TABLE + ENERGY BUDGET -->
  <!-- ═══════════════════════════════════════════════════════════ -->
  <rect x="40" y="1428" width="8" height="28" rx="4" fill="#2E7D32"/>
  <text x="60" y="1448" fill="#2E7D32" font-size="22" font-weight="700">4. MVP Technical Specifications</text>
  <rect x="60" y="1460" width="80" height="3" rx="1.5" fill="url(#accentLine)"/>

  <!-- Specs table -->
  <g transform="translate(40, 1475)">
    <rect x="0" y="0" width="550" height="28" rx="6" fill="url(#tableHeaderGrad)"/>
    <rect x="0" y="22" width="550" height="6" fill="url(#tableHeaderGrad)"/>
    <text x="15" y="19" fill="white" font-size="12" font-weight="600">Parameter</text>
    <text x="240" y="19" fill="white" font-size="12" font-weight="600">Value</text>
    <text x="420" y="19" fill="white" font-size="12" font-weight="600">Notes</text>

    <rect x="0" y="28" width="550" height="26" fill="#E8F5E9"/>
    <text x="15" y="46" fill="#37474F" font-size="10">Dimensions</text>
    <text x="240" y="46" fill="#37474F" font-size="10">65 × 45 × 12 mm</text>
    <text x="420" y="46" fill="#78909C" font-size="10">Credit card form factor</text>

    <rect x="0" y="54" width="550" height="26" fill="white"/>
    <text x="15" y="72" fill="#37474F" font-size="10">Weight</text>
    <text x="240" y="72" fill="#37474F" font-size="10">3.2 g</text>
    <text x="420" y="72" fill="#78909C" font-size="10">90% compostable</text>

    <rect x="0" y="80" width="550" height="26" fill="#E8F5E9"/>
    <text x="15" y="98" fill="#37474F" font-size="10">Bio-Battery Power</text>
    <text x="240" y="98" fill="#37474F" font-size="10">25 µW (2 cm²)</text>
    <text x="420" y="98" fill="#78909C" font-size="10">12.5 µW/cm² @ 0.45V (literature baseline)</text>

    <rect x="0" y="106" width="550" height="26" fill="white"/>
    <text x="15" y="124" fill="#37474F" font-size="10">MCU</text>
    <text x="240" y="124" fill="#37474F" font-size="10">STM32L0 (Cortex-M0+)</text>
    <text x="420" y="124" fill="#78909C" font-size="10">0.4 µA sleep current</text>

    <rect x="0" y="132" width="550" height="26" fill="#E8F5E9"/>
    <text x="15" y="150" fill="#37474F" font-size="10">Sensor Type</text>
    <text x="240" y="150" fill="#37474F" font-size="10">Capacitive (fringe-field)</text>
    <text x="420" y="150" fill="#78909C" font-size="10">100 kHz excitation</text>

    <rect x="0" y="158" width="550" height="26" fill="white"/>
    <text x="15" y="176" fill="#37474F" font-size="10">Communication</text>
    <text x="240" y="176" fill="#37474F" font-size="10">NFC (Phase 1) / LoRa (Phase 2)</text>
    <text x="420" y="176" fill="#78909C" font-size="10">Passive powered / 2+ km</text>

    <rect x="0" y="184" width="550" height="26" fill="#E8F5E9"/>
    <text x="15" y="202" fill="#37474F" font-size="10">Measurement Interval</text>
    <text x="240" y="202" fill="#37474F" font-size="10">15 minutes</text>
    <text x="420" y="202" fill="#78909C" font-size="10">96 measurements/day</text>

    <rect x="0" y="210" width="550" height="26" fill="white"/>
    <text x="15" y="228" fill="#37474F" font-size="10">Lifetime</text>
    <text x="240" y="228" fill="#37474F" font-size="10">7 days continuous</text>
    <text x="420" y="228" fill="#78909C" font-size="10">2% power degradation/day</text>

    <rect x="0" y="236" width="550" height="26" fill="#E8F5E9"/>
    <text x="15" y="254" fill="#37474F" font-size="10">Data Storage</text>
    <text x="240" y="254" fill="#37474F" font-size="10">FRAM 8 KB ring buffer</text>
    <text x="420" y="254" fill="#78909C" font-size="10">672 entries @ 12 bytes</text>

    <rect x="0" y="262" width="550" height="26" fill="white"/>
    <text x="15" y="280" fill="#37474F" font-size="10">Fungal Species</text>
    <text x="240" y="280" fill="#37474F" font-size="10">Trametes pubescens</text>
    <text x="420" y="280" fill="#78909C" font-size="10">White-rot fungus</text>

    <rect x="0" y="288" width="550" height="26" fill="#E8F5E9"/>
    <text x="15" y="306" fill="#37474F" font-size="10">Unit Cost (Target)</text>
    <text x="240" y="306" fill="#37474F" font-size="10">DevKit ~€24.55 / pellet €0.15</text>
    <text x="420" y="306" fill="#78909C" font-size="10">BOM at 500 units / at scale</text>

    <rect x="0" y="314" width="550" height="26" rx="0 0 6 6" fill="white"/>
    <text x="15" y="332" fill="#37474F" font-size="10">Ingress Protection</text>
    <text x="240" y="332" fill="#37474F" font-size="10">IP67</text>
    <text x="420" y="332" fill="#78909C" font-size="10">Dustproof + waterproof</text>
  </g>

  <!-- Energy Budget Card -->
  <g transform="translate(610, 1475)">
    <rect x="0" y="0" width="550" height="340" rx="12" fill="white" stroke="#E0E0E0" stroke-width="1" filter="url(#cardShadow)"/>
    <rect x="0" y="0" width="550" height="36" rx="12" fill="url(#titleGrad)"/>
    <rect x="0" y="24" width="550" height="12" fill="url(#titleGrad)"/>
    <text x="275" y="25" fill="white" font-size="14" text-anchor="middle" font-weight="600">Energy Budget (per day)</text>

    <!-- Supply bar -->
    <text x="20" y="68" fill="#37474F" font-size="12" font-weight="600">Supply (Battery)</text>
    <rect x="20" y="78" width="510" height="30" rx="6" fill="#E8F5E9"/>
    <rect x="20" y="78" width="510" height="30" rx="6" fill="#4CAF50" opacity="0.7"/>
    <text x="275" y="98" fill="white" font-size="13" text-anchor="middle" font-weight="600">4,320 mJ/day (50 µW × 24h, target)</text>

    <!-- Demand breakdown -->
    <text x="20" y="138" fill="#37474F" font-size="12" font-weight="600">Demand (System)</text>

    <rect x="20" y="148" width="390" height="22" rx="4" fill="#BBDEFB"/>
    <text x="25" y="164" fill="#1565C0" font-size="11">Sleep: 30 mJ (0.72 µW × 24h, est.)</text>

    <rect x="20" y="174" width="100" height="22" rx="4" fill="#C8E6C9"/>
    <text x="25" y="190" fill="#2E7D32" font-size="11">ADC: 5.8 mJ</text>

    <rect x="20" y="200" width="60" height="22" rx="4" fill="#FFE0B2"/>
    <text x="25" y="216" fill="#E65100" font-size="11">Sensor</text>

    <rect x="20" y="226" width="40" height="22" rx="4" fill="#F8BBD0"/>
    <text x="25" y="242" fill="#880E4F" font-size="11">NFC</text>

    <rect x="20" y="256" width="510" height="2" rx="1" fill="#E0E0E0"/>

    <text x="20" y="278" fill="#37474F" font-size="13" font-weight="600">Total Demand: ~40 mJ/day</text>

    <!-- Margin -->
    <rect x="20" y="290" width="510" height="36" rx="6" fill="#FFF3E0" stroke="#E65100" stroke-width="1.5"/>
    <text x="275" y="313" fill="#E65100" font-size="13" text-anchor="middle" font-weight="700">TRL 2 baseline insufficient — power optimization critical</text>
  </g>

  <!-- ═══════ FOOTER ═══════ -->
  <rect x="0" y="1770" width="1200" height="30" fill="url(#titleGrad)"/>
  <text x="60" y="1790" fill="#A5D6A7" font-size="12">MykoVolt — Biodegradable Fungal Bio-Battery for Precision Agriculture</text>
  <text x="1140" y="1790" fill="#A5D6A7" font-size="11" text-anchor="end">Confidential — MVP Design v1.0</text>
</svg>
